<?xml version="1.0" standalone="no"?>
<!DOCTYPE svg PUBLIC "-//W3C//DTD SVG 1.1//EN" "http://www.w3.org/Graphics/SVG/1.1/DTD/svg11.dtd" >
<svg>
<metadata>
Created by FontForge 20120731 at Tue Aug  9 04:48:23 2016
 By ,,,
FREE FOR PERSONAL USE
</metadata>
<defs>
<font id="TheConstellationofHeracles" horiz-adv-x="180" >
  <font-face 
    font-family="The Constellation of Heracles"
    font-weight="400"
    font-style="italic"
    font-stretch="normal"
    units-per-em="1000"
    panose-1="0 0 0 0 0 0 0 0 0 0"
    ascent="750"
    descent="-250"
    x-height="120"
    cap-height="407"
    bbox="-249 -230 784.8 494.143"
    underline-thickness="50"
    underline-position="-50"
    slope="-12"
    unicode-range="U+0020-2122"
  />
<missing-glyph horiz-adv-x="235" 
 />
    <glyph glyph-name=".notdef" horiz-adv-x="235" 
 />
    <glyph glyph-name="B" unicode="B" horiz-adv-x="361" 
d="M-78 -16q-1 0 -5.5 6.5t-4.5 14.5q0 4 1 8t6 4q6 0 14 -4l3 -1q29 -17 72 -24t78 -11q30 -4 62.5 4.5t64 24t59.5 36t49 41t32.5 39t9.5 30.5q-15 13 -44 20t-60 10t-58.5 4t-39.5 3h-15q-13 -15 -28.5 -32.5t-30 -33t-26.5 -28.5t-17 -19l-20 -22q-4 -4 -6 -4q-3 0 -3 2
t1 3l5 8q3 5 12 17t21 29t27 37.5t31 42.5h-15h-61h-3q-1 0 -1 1h-1h-4.5t-2.5 3t4 3l94 7q16 21 33.5 45.5t34 48t30.5 42.5t22 30q-15 5 -33 6.5t-32 1.5q-24 0 -38.5 -5t-16.5 -5h-1l-4.5 0.5t-10 2t-9.5 5t-4 8.5q0 1 3.5 5t13 9t27 9t44.5 4q35 0 76 -10t76 -28
q10 -6 26 -16t30 -24t24.5 -31.5t10.5 -36.5q-2 -22 -14.5 -34t-32 -18.5t-44 -9.5t-51.5 -7q20 0 43.5 -3.5t40 -13t19.5 -26.5t-17 -43q-27 -35 -59 -65.5t-67.5 -52.5t-74.5 -34.5t-80 -12.5q-38 0 -72 8.5t-75 22.5l-4 2q-8 4 -14 6v1zM185 208q25 2 57 5t62 8t54 12.5
t35 18.5l1 1v2v1q0 26 -30 56t-89 48q-23 -40 -53 -77.5t-62 -76.5z" />
    <glyph glyph-name="C" unicode="C" horiz-adv-x="274" 
d="M32 -17q-15 16 -15 41t13.5 51t32.5 49t40 43t36 34q49 44 97.5 81.5t88.5 65.5t67.5 45.5t35.5 22.5v1h4q8 0 19 -3.5t9 -11.5q-20 -26 -38 -51.5t-31.5 -46t-22 -34t-8.5 -16.5h-1q-1 -1 -3 -1h-7q-6 0 -13 0.5t-7 7.5v1q0 2 3 8t3 10l1 1q5 10 17.5 29t32.5 39l-4 -3
q-60 -40 -118.5 -83.5t-115.5 -92.5q-19 -17 -38.5 -34.5t-36 -36t-27 -38t-10.5 -39.5q0 -26 17 -39.5t42 -19t51.5 -4t46.5 5.5q15 3 31 9t29 12t21.5 10.5t9.5 4.5l1 1h-1q0 -1 9.5 -5t9.5 -13q0 -3 -3 -5.5t-7 -4.5q-2 -2 -10 -7.5t-22 -11.5t-34.5 -11t-47.5 -5
q-17 0 -37.5 2t-40.5 6.5t-38.5 13t-30.5 22.5z" />
    <glyph glyph-name="D" unicode="D" horiz-adv-x="542" 
d="M18 12q-1 1 -2 4q-2 6 -2 11q0 4 1.5 10t6.5 6q4 0 9 -3l2 -1q4 -2 8.5 -4t9.5 -4q25 -11 53 -24.5t56 -15.5q4 8 20 33.5t38.5 62t49 79t53 83t49.5 76t38 57.5q-6 0 -11.5 0.5t-11.5 0.5q-40 0 -69.5 -5.5t-50 -12.5t-31.5 -13t-13 -7l-1 -1h-11h-2q-5 0 -13 1.5
t-8 7.5q0 4 3 7q-1 -1 10.5 7.5t36.5 19.5t64 20t93 9t91 -12.5t59.5 -33.5t32 -50t9.5 -62q0 -64 -27 -121.5t-74 -100.5t-109.5 -67t-132.5 -20q-26 2 -47.5 4t-41.5 6q-2 -2 -2 -3t-1 -2t-1 -2l-1 -2q-1 -4 -4 -4l-2 1q0 1 -0.5 1t-0.5 1q0 2 1 4.5l3 7.5q-5 1 -11 3
t-17 5.5t-28 10t-45 18.5q-11 5 -17 9t-8 4h-1v1zM444 379q4 3 -8 -15.5t-34.5 -51.5t-52.5 -75.5t-61.5 -87t-62 -87t-53.5 -74.5q34 -10 70 -10.5t69 5t60 14t43 16.5q30 19 55 45t44 56.5t30 64t13 67.5q0 59 -25.5 88t-86.5 45z" />
    <glyph glyph-name="E" unicode="E" horiz-adv-x="286" 
d="M27 -17q-16 14 -16 39q0 29 15 53.5t27 40.5q-8 2 -11 2.5t-3 4.5q0 1 2 3h20q33 40 76.5 80.5t92 78.5t98 71.5t94.5 59.5l1 1h5q3 0 8 -0.5t9.5 -2.5t7.5 -5t1 -7q-3 -4 -18 -25t-32.5 -46t-32.5 -47.5t-17 -29.5h-1q0 -1 -2 -1h-8q-8 0 -13.5 1t-5.5 7v1q0 3 1 7
q2 8 5 11l1 1q4 11 17 29.5t33 38.5l-5 -3q-20 -13 -47.5 -33t-66.5 -49l-11 -8q-17 -12 -37 -28t-41 -33.5t-41.5 -35t-36.5 -33.5q21 0 45 -0.5t44.5 -1.5t35 -2t17.5 -2l1 -1q3 0 3 -18q0 -8 -1 -10t-4 -2h-1h-10q-37 0 -72.5 6t-73.5 14q-18 -20 -33 -43.5t-15 -49.5
q0 -5 2.5 -14.5t13.5 -18.5t32 -16t59 -7q22 0 44.5 5t41 12t33 14t22.5 11q0 -1 9.5 -5t9.5 -13q0 -3 -3.5 -5.5t-6.5 -4.5q-26 -19 -62 -28t-73.5 -7.5t-71.5 12.5t-54 32z" />
    <glyph glyph-name="F" unicode="F" horiz-adv-x="271" 
d="M4 -54q-3 0 -3 5l2 10.5t11.5 30t29.5 49t56 68.5q-8 2 -16 3.5t-21 5.5q-7 0 -7 5q0 2 2 2l1 1h3h1h53q43 45 96 93t101 89t83.5 70.5t45.5 37.5h1q5 1 11 0t10.5 -3t6 -6.5t-2.5 -10.5q-3 -3 -18.5 -23t-32.5 -43.5t-31 -45.5t-14 -30h-1q-1 -1 -3 -1h-7q-6 0 -13 0.5
t-7 7.5v1q0 12 9.5 26t15.5 24q-15 -13 -38.5 -32.5t-52 -43.5t-61.5 -52t-66 -58q5 -1 15 -1q16 -1 31.5 -1.5t28 -1.5t21 -1.5t10.5 -0.5l2 -1q0 -2 1 -5q2 -6 2 -14t-1.5 -9.5t-4.5 -1.5h-1q-23 0 -47 1.5t-54 7.5q-7 2 -13.5 2.5t-13.5 2.5q-56 -56 -86 -95.5t-30 -55.5
v-1q-2 -2 -2 -3.5t-2 -1.5z" />
    <glyph glyph-name="G" unicode="G" horiz-adv-x="370" 
d="M28 -18q-16 17 -16 42q0 33 31 75.5t77 87t100 86.5t99.5 74.5t75.5 51.5t28 18h1h3q7 0 18 -3t10 -12q-5 -6 -21 -27.5t-33.5 -46t-31.5 -46t-14 -28.5h-1q-1 -1 -3 -1h-7q-5 0 -12.5 0.5t-7.5 7.5v1q0 9 6.5 21.5t15.5 25t19 23.5t16 17l-1 -1q-15 -12 -49 -35.5
t-76 -54t-85.5 -66t-77.5 -69.5q-9 -9 -20 -21.5t-20 -26.5t-15 -28.5t-6 -27.5q0 -18 12.5 -29.5t32.5 -21.5q21 -6 50.5 -5.5t59 7t54.5 20.5t36 37q-25 4 -51 9t-52 13l-12 3q-7 3 -7 5q0 1 2 3h5q21 1 52 0.5t60.5 -1.5t51.5 -2t27 -2l2 -1q0 -1 1.5 -5.5t1.5 -13.5
q0 -11 -6 -12h-1h-13.5t-28.5 2q-1 -1 -1 -3q-10 -20 -27.5 -35t-39.5 -24.5t-48 -14t-54 -4.5q-5 0 -18 1t-29.5 5t-33 11.5t-29.5 20.5z" />
    <glyph glyph-name="H" unicode="H" horiz-adv-x="434" 
d="M20 101q-3 2 -5 6q-5 7 -5 18q0 7 10 7h2q3 0 7.5 0.5t16 0.5h33.5h61q25 35 53 73.5t51.5 71t40 55t18.5 26.5l1 1h2q1 0 2.5 0.5t3.5 0.5h1q2 0 11 -1t9 -7q0 -4 -3 -10l-1 -1q-5 -9 -13 -22.5t-25 -37t-45.5 -59.5t-74.5 -91q33 -1 80.5 -4.5t110.5 -8.5
q31 47 63.5 96t59.5 90t46 69t23 33v1q2 0 4 1q4 2 9 2q6 0 12 -3t6 -7q0 -3 -4 -9l-1 -2q-5 -9 -17 -28.5t-34.5 -52.5t-56 -80.5t-81.5 -111.5q4 -1 11 -1.5t33 -3.5q7 0 7 -4q0 -2 -3 -3l-10 -1h-17.5t-30.5 -1l-9 -12t-26 -36q-11 -16 -26 -37t-29.5 -41t-25 -35
t-13.5 -19l-2 1q-1 0 -1 1q0 2 1 4q2 7 3 9l2 4q4 9 13 25t21.5 37.5t28.5 46.5t34 52q-23 -1 -49 -1.5t-53.5 -1t-54.5 -0.5h-51q-19 -23 -36.5 -43.5t-31 -35.5t-22 -24.5l-8.5 -9.5l-2 -2q-1 -1 -3 -1q-3 0 -3 2q0 1 9.5 15t22 32.5t25.5 37t21 29.5h-66.5t-28.5 1h-1v0z
" />
    <glyph glyph-name="I" unicode="I" horiz-adv-x="93" 
d="M28 -51q-19 7 -19 26q2 25 31 76q12 22 31.5 51.5t42 61t45.5 63t42.5 56.5t32.5 41.5t16 19.5l1 1h6q3 0 12.5 -2.5t9.5 -8.5q0 -4 -3 -8l-1 -1q-18 -24 -44 -57t-54.5 -69t-56.5 -72.5t-50.5 -68t-36.5 -55t-14 -33.5q0 -5 3.5 -9t6.5 -5q2 0 4 -2q1 -1 1 -2
q0 -2 -2 -2.5t-3 -0.5h-1zM289 407q3 0 14.5 -6t11.5 -10q0 -6 -4 -11.5t-9 -10.5l-12 -9q-8 14 -10 19t-2 8q0 5 3 12t8 8z" />
    <glyph glyph-name="J" unicode="J" horiz-adv-x="193" 
d="M38 -62q-8 -6 -17 1.5t-9 17.5t2.5 19.5t5.5 19.5q6 17 10.5 30t10 26.5t11 29t12.5 36.5h1q0 1 1 1.5t8 1.5q2 0 6.5 0.5t8 -0.5t6 -3t0.5 -7v-1q-2 -9 -7.5 -24.5t-19.5 -52.5q-5 -14 -14 -31.5t-13 -30.5q8 8 25.5 29.5t40.5 51.5t50 65.5t54 72t52 71.5l45 63
q-36 -5 -69.5 -10t-60.5 -9t-45 -7t-22 -3h-1q-4 2 -7 6q-7 7 -7 18q0 5 9 7l1 1q54 12 111 17.5t114 10.5q11 15 17.5 25t8.5 12l1 1q5 2 17.5 1.5t12.5 -9.5q0 -3 -5 -11q-2 -3 -4.5 -7t-5.5 -9q28 2 54 3.5t47 2.5t35.5 1.5t18.5 0.5q2 0 6 -2t-1 -5q-20 -4 -66 -10.5
t-113 -17.5q-6 -3 -30 -37.5t-64 -88.5t-95.5 -123t-124.5 -142z" />
    <glyph glyph-name="K" unicode="K" horiz-adv-x="224" 
d="M-22 -36q1 2 20.5 32.5t48.5 76.5t63.5 99.5t66.5 102.5t57 85.5t34 47.5l1 1q1 0 3 1q2 0 4 0.5t5 0.5q6 0 12 -3t6 -7q0 -5 -3 -9q-6 -9 -17 -26.5t-32 -47.5t-53 -74.5t-78 -106.5q24 26 55.5 55.5t65 59.5t66.5 58t60 50.5t45.5 37.5t23.5 19l1 1h1q5 0 11 -1.5
t10.5 -4.5t5 -7t-5.5 -9q-17 -24 -33.5 -47.5t-30.5 -43t-22.5 -33.5t-8.5 -18h-1q-6 -2 -17 -2t-13 9v1q0 2 3 8t3 10l1 1q3 6 7 13t12 18q-21 -18 -49.5 -41t-60 -48.5t-64 -52.5t-61.5 -53q-2 3 3.5 -8.5t16 -31t24.5 -43t28 -45.5t27 -38.5t21 -21.5l-1 -1q-1 -1 -2 -1
l-8 2q-7 2 -25.5 18.5t-39.5 40.5t-40.5 52t-28.5 54q-12 -10 -30 -32t-35.5 -45t-31.5 -42.5t-18 -24.5h-1q-1 -4 -3 -4l-2 1q-1 1 -1 5l3 7q2 4 2 5z" />
    <glyph glyph-name="L" unicode="L" horiz-adv-x="265" 
d="M42 -53q-9 0 -24 8t-15 20q0 9 8 13t18.5 5.5t21.5 1t17 -0.5q20 20 45 52.5t51.5 71.5t53 80.5t49.5 79t40.5 67t26.5 44.5l4 5q-2 2 8.5 6.5t17.5 4.5q2 0 5.5 -1t3.5 -6t-8 -19v-1q-7 -14 -23.5 -42t-38.5 -63t-48 -75t-52.5 -77.5t-51.5 -70.5t-45 -55l-1 -2
q59 -1 112.5 -8t85.5 -12l69 -10q2 0 8 -1.5t6 -3.5t-2 -2.5t-4 -0.5l-21 2q1 0 -25 2.5t-66 5t-88 5t-93 2.5h-2q-9 -8 -19 -16.5t-24 -8.5z" />
    <glyph glyph-name="M" unicode="M" horiz-adv-x="597" 
d="M288 41q-3 -3 -4 -3q-2 0 -3 3v1q0 10 9 26t25 41t38 60t49 83q4 7 17 31t24 50t13.5 46.5t-13.5 20.5q-15 0 -36.5 -9.5t-45.5 -25t-48.5 -34t-46 -36.5t-38 -33.5t-23.5 -23.5q-80 -112 -135.5 -186t-72.5 -105q-2 0 -2 2q-2 0 9.5 24.5t38 72t70.5 116t109 155.5
q-23 -12 -46.5 -17.5t-36.5 -5.5h-6.5t-4.5 1l-1 1q-1 1 -2 4t-1 12q0 10 1.5 12t5.5 2h1q1 1 2 1h1q14 0 45 6.5t77 31.5q14 20 24 33t12 16h1q-1 0 3 1.5t9.5 1.5t10.5 -2t7 -8q0 -2 -0.5 -4.5t-4.5 -7.5q-5 -6 -10 -14t-14 -19q21 13 39 25t36 21t37 14.5t42 5.5
q26 -5 31 -23t0 -40t-16.5 -43.5t-18.5 -34.5l11.5 10t31 22.5t46 23t56.5 12.5q27 0 47 -15.5t20 -48.5q0 -28 -12.5 -61t-30.5 -65t-38 -60.5t-34 -46.5l-1 -2q-8 -11 -15.5 -22t-7.5 -19t5.5 -16t17.5 -8q13 0 28.5 5t25.5 12q2 2 7.5 1.5t1.5 -4.5q-20 -11 -34 -18.5
t-27 -7.5q-17 0 -28 8t-12 25q0 15 9 34t21 38t24 36t18 28q7 13 16 31t17 37t13 37.5t5 34.5q0 34 -31 34q-14 0 -34.5 -6t-43.5 -19q-45 -25 -61.5 -44.5t-18.5 -19.5h-1q-4 -6 -16 -21t-27.5 -34.5t-33 -41t-32.5 -40.5t-26 -34t-13 -21z" />
    <glyph glyph-name="N" unicode="N" horiz-adv-x="372" 
d="M1 -53q-1 1 -1 5q1 1 3 6v1q2 4 2 5l1 1q5 11 28.5 50t57 91.5t72.5 112t76 111.5q-30 -15 -57.5 -25.5t-49.5 -10.5h-6t-6 1q-1 1 -2.5 5t-1.5 12q0 10 2 12t5 2h1q33 0 66.5 12.5t68.5 32.5q4 2 9.5 8t10.5 12t9 11l4 5l1 1q1 0 3 1q2 0 4 0.5t4 0.5q5 0 12.5 -2.5
t6.5 -7.5q0 -4 -5.5 -13t-12.5 -19.5t-14.5 -21l-12.5 -17.5q6 4 17 11t26 14t33.5 12t39.5 5q30 0 44 -18t14 -41q0 -26 -10.5 -55t-26 -57.5t-33.5 -54.5t-34 -46q-2 -2 -15 -19.5t-24 -37t-12 -35.5t22 -16q13 0 24 4.5t17 7.5q17 8 19 8t3 -2.5t-2 -3.5
q-14 -9 -30.5 -17.5t-35.5 -8.5q-8 0 -18 5.5t-15 19.5q-1 4 -1 10q0 13 9.5 32t23 39.5t27.5 40.5t23 35q9 16 19.5 35.5t19 39t14 38.5t5.5 35q0 17 -6.5 23t-23.5 6q-18 -2 -41 -11t-50 -23q-24 -15 -40 -27.5t-26 -22t-14.5 -15t-5.5 -5.5v-1q-22 -27 -47.5 -61
t-51.5 -69l-23 -31q-23 -30 -38 -51.5t-24.5 -35.5t-14.5 -22t-8 -11h-1v-2h-1q-1 -4 -3 -4h-1z" />
    <glyph glyph-name="O" unicode="O" horiz-adv-x="330" 
d="M317 -41q-24 0 -51.5 10.5t-48.5 24.5q-15 -7 -33 -15.5t-38 -14.5t-42 -8t-44 5q-20 7 -35 26t-15 45q0 27 15 61.5t40 71t57.5 72t67.5 65t71 50.5t67 27h-1h-2q-8 6 -13 8t-7 10q0 5 6 8t23 3q45 0 74 -21.5t29 -73.5q0 -32 -15 -74t-40.5 -84.5t-60 -80t-73.5 -61.5
q20 -11 37 -15.5t30 -6.5q1 -1 5 -7t4 -15q0 -7 -2.5 -8.5t-4.5 -1.5zM89 -31q27 -3 58.5 9t56.5 26q-42 39 -42 94q1 27 9 51.5t18.5 46t23 39.5t23.5 31q20 24 43 44t45 34q-70 -31 -124 -75t-91.5 -89t-57.5 -85t-21 -62q0 -24 14 -42t45 -22zM233 23q35 25 66.5 62
t55.5 77t38.5 79.5t14.5 71.5q0 67 -67 67q14 -7 17 -21q0 -6 -5.5 -9.5t-10.5 -5.5q-2 -2 -23 -16.5t-46 -45.5q-38 -48 -58.5 -95t-20.5 -85q0 -29 11.5 -48.5t27.5 -30.5z" />
    <glyph glyph-name="P" unicode="P" horiz-adv-x="388" 
d="M71 50q-23 16 -31 34t-9 32t4 29.5t14 16.5q3 0 1 -7q-6 -14 -8 -20t-2 -14q0 -15 9 -31.5t29 -27.5q18 29 41.5 65.5t48.5 73.5t48.5 73t42.5 64.5t32 47t15 21.5l1 1q1 0 3 1q4 2 10 2q5 0 11 -3t6 -7q0 -3 -5 -11q-3 -5 -6.5 -10.5t-8.5 -13.5q10 6 24.5 14t31 15
t33 11.5t31.5 4.5q21 0 33 -6t18.5 -15t8 -20t1.5 -21q-1 -30 -12.5 -66.5t-32 -74t-47 -73t-57.5 -64t-64 -46t-66 -18.5q-34 0 -66.5 7.5t-66.5 24.5q-38 -51 -58 -83.5t-24 -32.5h-2q0 1 -0.5 1t-0.5 2q0 1 0.5 1.5t0.5 1.5q16 33 32.5 61.5t36.5 59.5zM98 55
q-2 -2 -3 -4q23 -11 49.5 -18t59.5 -7q34 0 66.5 19.5t61.5 49.5t53.5 67.5t42 73.5t27.5 66t10 47q0 13 -5 21t-20 8q-17 0 -42.5 -10.5t-51.5 -25.5t-48.5 -31.5t-32.5 -29.5l-2 -2q-12 -12 -28 -33t-34.5 -47t-38.5 -55.5t-41 -57.5z" />
    <glyph glyph-name="Q" unicode="Q" horiz-adv-x="367" 
d="M69 -39q-23 7 -37 29t-14 46q0 32 19.5 72.5t51.5 81.5t72.5 79t82.5 66q18 12 32 19.5t24 12t18 7t14 4.5q-6 0 -11.5 7t-7.5 13q0 7 10.5 9.5t18.5 2.5q57 0 81 -27t24 -70q0 -36 -20 -86.5t-54 -99t-78 -88.5t-93 -56q18 -9 37.5 -15t36.5 -6q29 0 51 15.5t32 40.5
q1 3 3.5 11.5t5.5 17.5t6 16.5t5 7.5q3 0 3 -4q-12 -69 -39 -100t-75 -31q-26 0 -54.5 9.5t-50.5 21.5q-6 -2 -13 -4q-6 -2 -13.5 -4t-14.5 -3q-10 -2 -21.5 -1.5t-31.5 6.5zM61 102q-10 -20 -16.5 -37t-6.5 -32q0 -23 14 -41.5t44 -22.5q11 -2 23.5 1t26.5 7q-41 23 -62 47
t-25 31v2q1 6 4 11q2 4 6 7.5t9 3.5q2 0 9.5 -7.5t20.5 -19.5t32 -28t45 -33q38 18 78.5 54t74.5 81t55.5 94t21.5 91q0 34 -16 50t-45 16q5 0 8.5 -7t3.5 -11q0 -5 -5 -7t-10 -2q-38 -10 -82 -38.5t-84.5 -65.5t-73.5 -75.5t-50 -68.5z" />
    <glyph glyph-name="R" unicode="R" horiz-adv-x="353" 
d="M170 -41q-24 30 -40.5 59.5t-27.5 45.5l-1 1q-1 2 -2 3t-2 3l-12 -16q-45 -60 -67.5 -97t-26.5 -35h-1q-1 1 -1 6q0 2 2 6t4 7q5 11 19 35.5t34 55.5q17 28 41.5 65.5t50.5 78t52.5 80t48 72t35.5 53.5t17 25l1 1q2 0 4 1q4 2 9 2t11 -3t6 -7q0 -5 -5 -11q-2 -5 -6 -10.5
t-9 -13.5q8 4 19.5 12t26.5 15t33.5 12.5t40.5 5.5h1q29 0 45.5 -18t16.5 -50q0 -27 -11 -58t-32 -67q-17 -28 -41 -63t-54 -66t-65.5 -52t-73.5 -21q-11 0 -26 5t-28 18q5 -8 9.5 -16t10.5 -19q4 -8 12 -22t18 -27t22 -22.5t26 -9.5q12 0 26 9t22 19l6 6q5 0 5 -4
q-3 -6 -8 -14t-13 -15.5t-19 -13t-25 -5.5t-25.5 5.5t-21.5 14t-17.5 17.5t-13.5 17zM123 94q6 -6 15 -17t19.5 -21t23 -17.5t25.5 -7.5q44 3 71.5 22.5t59.5 57.5q64 75 91 132.5t27 99.5q0 14 -6 24.5t-23 10.5q-29 0 -73 -22q-14 -7 -29 -17t-30 -21t-27.5 -22t-19.5 -20
q-21 -26 -55 -74.5t-73 -101.5l1.5 -1.5t2.5 -4.5z" />
    <glyph glyph-name="S" unicode="S" horiz-adv-x="430" 
d="M57 -28q35 6 70.5 14t70 15t67 11.5t61.5 4.5q24 0 41.5 -2.5t25.5 -4.5q-10 10 -24.5 40.5t-29 67t-27 71t-18.5 51.5q-12 35 -23.5 67.5t-11.5 69.5q0 11 5 20t17 12q33 0 64 -15.5t55.5 -41.5t39 -60.5t14.5 -71.5q0 -20 -4 -33.5t-6 -18.5v-1q-2 -1 -7 -4t-11 -3
q-5 0 -10.5 2t-5.5 7q0 1 0.5 1.5t0.5 1.5q-1 -1 -1 -2q3 4 6 11q2 6 4 14.5t2 21.5q0 23 -7.5 48.5t-22 48t-35.5 39.5t-48 24q-13 2 -15.5 2h-4.5q0 -20 6 -50.5t16.5 -66.5t23 -74t25 -73t24.5 -64t20 -45q1 -2 2 -7t0.5 -10t-2.5 -8.5t-7 -3.5q-18 0 -36.5 3.5
t-41.5 3.5q-38 0 -73 -4.5t-69 -10.5t-67 -10.5t-66 -4.5q-15 0 -23.5 1t-8.5 10q0 5 5.5 12t8.5 10q5 5 7 5q3 0 3 -3q0 -5 -5 -10t-7 -11q13 0 33 4z" />
    <glyph glyph-name="T" unicode="T" horiz-adv-x="122" 
d="M125 -11q-2 -5 -9 -9t-16 -7t-19 -5t-19 -2q-15 0 -29 6t-14 25q0 18 11.5 44.5t30.5 58.5t44 68t53 74q-68 0 -134.5 0.5t-120.5 1.5t-90.5 1.5t-43.5 0.5h-1q-5 2 -9 6q-8 8 -8 18q0 5 4 6t11 1q109 -3 208 -4t202 -5q22 31 42.5 58.5t37 48.5t27.5 34.5t14 16.5h1
q1 0 3 1q2 0 3.5 0.5t3.5 0.5h1q6 0 12.5 -3.5t6.5 -8.5q0 -2 -5 -9l-2 -2q-5 -6 -12.5 -15.5t-19.5 -25t-29.5 -38.5t-42.5 -57q-2 -2 -2 -3q100 -4 157 -7t85.5 -6t35.5 -5t7 -3q0 -4 -5 -4h-12h-5h-111.5t-169.5 1q-29 -38 -66 -87.5t-67 -97.5l-1 -1q-9 -15 -18.5 -32
t-9.5 -31q0 -9 12.5 -11.5t23.5 -2.5q22 0 34.5 8t18.5 8q3 0 3 -3q0 -1 -2 -3z" />
    <glyph glyph-name="U" unicode="U" horiz-adv-x="314" 
d="M312 -8l5 3q3 0 3 -3q0 -4 -6.5 -8.5t-16.5 -8.5t-21.5 -6.5t-20.5 -2.5q-15 0 -29 6t-14 25q0 15 8.5 32.5t17.5 33.5q-14 -11 -32 -22t-37.5 -19.5t-39 -14t-35.5 -5.5h-2q-21 0 -33.5 7t-20 18t-10 26t-2.5 31q3 31 13.5 59.5t22.5 52.5t23 42.5t17 29.5
q-13 -6 -31 -13l-42 -16q-4 -2 -4 -1.5t-1 0.5q-4 0 -4 4q9 7 25 18t33.5 23.5t35.5 27.5t32 31q3 3 8 4.5t10.5 0t9.5 -4.5t4 -9q0 -5 -8 -19t-15 -24l-15 -23q-10 -15 -22 -37.5t-29 -53.5q-9 -23 -21.5 -50t-12.5 -62q0 -23 14 -31t33 -8q14 0 36 5q30 8 51.5 18.5
t36.5 21.5t24 22t14 19q16 25 38 57.5t46 66t48 66.5t43.5 59.5t33 44t17.5 21.5q1 0 3.5 1t7.5 1h1q6 0 12.5 -3.5t6.5 -8.5q0 -3 -7 -11q-5 -6 -12.5 -15.5t-20 -25t-30 -38.5t-41.5 -57q-15 -20 -34 -45t-39.5 -52.5t-41 -57t-38.5 -57.5l-1 -1q-9 -15 -18.5 -32
t-9.5 -31q0 -9 11.5 -12t23.5 -3q23 0 35.5 7.5t13.5 6.5z" />
    <glyph glyph-name="V" unicode="V" horiz-adv-x="238" 
d="M29 371q5 9 14 19.5t20 12.5h1q8 0 12 -4.5t6 -6.5q4 -6 6 -11.5t4 -12.5q3 -10 6 -22q11 -50 18.5 -98.5t12 -92t7 -79.5t4.5 -60l3 -40q3 18 16 43.5t33 56t45 64t51 66.5l7 9q21 27 40.5 53.5t35 50t25 43t9.5 31.5q0 6 -6 6q-7 3 -8 12t-1 14q0 3 3 4.5t5 1.5
q1 0 7 -1t13.5 -4.5t13.5 -11.5t6 -22q0 -24 -18.5 -56.5t-49 -72t-69.5 -85.5t-80 -97q-20 -24 -35 -48.5t-25 -44.5q-12 -23 -20 -44q-2 0 -3 4q0 3 -0.5 9.5t-3 21t-6.5 39t-10 64.5q-3 0 -5 1l-11 3q-19 6 -36.5 24.5t-31 44t-21.5 56.5t-8 64q0 54 24 96zM58 359
q-21 -32 -21 -80q0 -35 8 -63t19.5 -48.5t24.5 -34t24 -18.5q-5 32 -9 59t-9 52l-1 3q-6 31 -12.5 62t-15.5 61q-2 5 -4 9.5t-4 -2.5z" />
    <glyph glyph-name="W" unicode="W" horiz-adv-x="417" 
d="M546 271q-21 -28 -53 -65t-65 -75t-61.5 -73.5t-42.5 -60.5q-4 -7 -7 -15.5t-6 -16t-5.5 -12.5t-3.5 -5q-3 0 -3 3v1q-1 1 -1 3v4q-1 10 -9 48t-17 88l-8 44v2q-27 -36 -49.5 -69.5t-38 -60t-24 -44.5t-8.5 -22q0 -1 -2 -0.5t-1 0.5q-2 0 -2.5 14t-2.5 25l-1 15t-3.5 33
t-6 33.5t-9.5 17.5l-10 3q-20 7 -37.5 25.5t-31 45t-21.5 58t-8 64.5q0 51 25 92q7 11 15 20t19 12h1q9 0 14.5 -6t9 -14.5t6 -18.5l4.5 -18q12 -50 19 -98.5t11.5 -92t7 -79.5t4.5 -60l2 -38q12 37 42 89t69 109l-13 78t-5 47q0 6 3 13.5t12 7.5q5 0 10.5 -3.5t7.5 -11.5
q2 -9 3.5 -29.5t8.5 -62.5q18 27 35 53t30 49.5t21 43t8 31.5q-2 5 -5.5 7t-7.5 10q-4 6 -4 13q0 6 2 7.5t6 1.5q1 0 7 -1t13 -4.5t13.5 -11t8.5 -20.5q0 -42 -32 -93t-89 -127q2 -19 4.5 -45t4.5 -53t4 -52t3 -42q6 16 20.5 42t35.5 57t45.5 64t49.5 64l12 16
q22 28 43.5 55.5t38 51.5t26.5 42.5t10 27.5l-1 1l-1 2q0 4 -3 7t-3 13q0 7 5 9q13 0 23.5 -7t12.5 -24q0 -23 -17 -51.5t-57 -80.5zM91 134q9 -10 16 -13.5t10 -5.5q-3 21 -8 50t-11 61q-7 37 -15.5 71t-16.5 68v-1q-6 -3 -10.5 -13t-8 -22.5t-5 -26.5t-1.5 -24
q0 -51 15 -87t35 -57z" />
    <glyph glyph-name="X" unicode="X" horiz-adv-x="225" 
d="M75 226q-5 12 -4.5 41.5t6.5 60t19 54t34 23.5q15 0 23.5 -13.5t13.5 -22.5q12 -27 22 -69t15 -88q34 42 64 77t54 61.5t39.5 42.5t19.5 19q6 2 19 2t13 -10q0 -3 -2.5 -5.5t-4.5 -6.5q-37 -39 -65.5 -70t-51.5 -58t-43 -50.5t-39 -46.5q1 -11 1 -23v-23q0 -29 -4 -56.5
t-10 -50.5t-12.5 -40t-11.5 -25l-2 1q-1 0 -1 1q0 2 1 3q0 4 10 38.5t10 102.5q0 11 -0.5 23t-1.5 24q-34 -41 -72.5 -87t-73.5 -85t-62.5 -64t-38.5 -24q-2 2 -0.5 5t5.5 5q-2 0 18 21t53 59.5t76.5 92.5t90.5 120q-6 45 -16 95t-36 88h-1q-1 0 -1 -1t-1 -2
q-12 -25 -18.5 -46.5t-6.5 -44.5q0 -17 2 -26.5t2 -14.5v-1q1 -2 -7 -11.5t-15 -9.5q-4 0 -5.5 4t-3.5 11z" />
    <glyph glyph-name="Y" unicode="Y" horiz-adv-x="213" 
d="M384 402q3 0 9 -2t6 -7q0 -3 -5 -13q-6 -13 -18.5 -30.5t-33.5 -52.5q-12 -19 -33 -53t-49.5 -75.5t-62 -88t-69.5 -91.5q-13 -16 -28 -34t-30 -33.5t-29 -26t-23 -10.5h-1q-5 0 -5.5 3.5t-1.5 6.5q0 7 0.5 8t2.5 1q4 0 3.5 -4t1.5 -6q8 0 33.5 28.5t63.5 82.5
q-3 -1 -11 -1q-23 0 -35.5 17t-19 42.5t-8 55.5t-1.5 55q0 23 0.5 48t3.5 57l3 37q0 5 0.5 13.5t-7.5 8.5q-3 0 -9.5 -2.5t-13.5 -6t-13 -6t-7 -2.5q-8 -4 -14.5 1.5t-6.5 17.5q0 4 6 8q3 2 18.5 12.5t40.5 10.5q15 0 28.5 -7t11.5 -28l-1 -20l-11 -127q-2 -20 -2.5 -41.5
t-0.5 -42.5q0 -11 1 -26.5t5 -29.5t12 -23.5t22 -9.5q5 0 10 1.5t10 3.5q24 35 50.5 75t52 80t48.5 77t41.5 67t31.5 50.5t17 26.5q1 1 5.5 3t11.5 2z" />
    <glyph glyph-name="Z" unicode="Z" horiz-adv-x="413" 
d="M435 394q0 -4 -0.5 -8t-3.5 -7q-31 -38 -72.5 -72.5t-79.5 -66.5q-75 -64 -124.5 -108t-77.5 -74q-5 -6 -11.5 -14t-12.5 -15.5t-10.5 -12.5l-4.5 -5q11 2 30 4t36 2q42 0 101.5 -12t124.5 -32q23 -7 41 -12.5t29 -5.5q5 0 10 1.5t5 9.5q0 10 -7 21q-5 7 -5 8t-1 3
q0 5 2 5q3 0 7 -4.5t7.5 -10.5t6 -12t2.5 -10q0 -15 -11 -20t-25 -5q-33 3 -70 10t-74.5 14.5t-73 13t-65.5 5.5t-49.5 -3.5t-24.5 -3.5q-7 -1 -9 2l-4 8q-4 8 -4 13t9 8h1q6 15 27 40.5t53.5 59t74 73t87.5 81.5l66 61q14 14 28.5 27.5t27.5 27.5q-59 -10 -115.5 -35.5
t-102 -56t-75.5 -60t-36 -45.5v-1q-4 -3 -6 -7.5t-4 -8.5h-1q-4 -10 -8 -10q-5 0 -9 6.5t-4 18.5q0 19 18 43.5t49.5 50.5t74.5 51.5t93 48.5q24 11 64 23.5t86 12.5q10 0 15 -5t5 -10z" />
    <glyph glyph-name="a" unicode="a" 
d="M12 -2q-13 0 -19.5 11t-4.5 23q3 22 16 39t30.5 28.5t37 17.5t35.5 6q9 0 22 -5t13 -13q0 -3 -5 -8.5t-8 -9.5q0 -1 -4 -6.5t-9.5 -13t-9.5 -16t-4 -16.5q0 -14 15 -14q12 1 27 6l24 8l14 5q5 2 4.5 2t1.5 0q3 0 3 -4l-1 -1l-4 -3q-1 -1 -7.5 -6.5t-17 -11.5t-23.5 -11
t-27 -5q-13 0 -21.5 8t-12.5 21q-14 -9 -29.5 -20t-35.5 -11zM20 37q-2 -2 -3.5 -6t0.5 -6q1 -2 11 2q20 7 30.5 14t16.5 15t10 16t10 17q-11 0 -31 -10t-44 -42z" />
    <glyph glyph-name="b" unicode="b" horiz-adv-x="210" 
d="M136 9q-16 -13 -46 -13q-3 0 -9 0.5t-12.5 2.5t-11.5 4.5t-5 7.5q-13 -14 -14 -17q-5 0 -15.5 4.5t-10.5 12.5q0 7 9.5 17t16.5 18q-32 -16 -46 -21t-20 -6q-3 0 -3 2q0 5 9.5 8t29.5 15t51 38t75 77q3 3 7 7.5t4 6.5q23 30 44 57.5t38 52.5l40 57q1 0 4 1t8 1t11 -2.5
t8 -5.5q-3 -9 -13.5 -25.5t-24.5 -37.5t-31 -43.5t-33 -43.5t-30 -37.5t-22 -24.5q11 -3 20 -14t9 -27q0 -23 -12 -45q-2 -2 -2 -4q8 -2 15 -2q12 0 18 0.5t12 2.5l8 2q1 0 1 0.5t1 0.5h1q6 0 6 -2v1q0 -5 -6 -9q-5 -4 -16.5 -6.5t-33.5 -2.5q-5 0 -8.5 0.5t-8.5 0.5
q-3 -2 -5.5 -4.5t-6.5 -4.5zM127 89q-4 -9 -4 -20q0 -13 7 -21q5 8 7.5 16t2.5 14q0 16 -13 11zM69 28q9 -9 24.5 -4.5t24.5 11.5q-10 8 -12 17.5t-4 20.5l-5.5 -5.5t-11.5 -12.5t-11 -14.5t-5 -11.5v-1z" />
    <glyph glyph-name="c" unicode="c" horiz-adv-x="145" 
d="M77 71q2 2 8 8.5t8 10.5h-3q-3 0 -11 -2t-18 -7t-20.5 -13.5t-18.5 -21.5q-2 -5 -1.5 -6t0.5 -2v-1q1 -1 2 -3.5t5.5 -5t14.5 -4.5t29 -2q36 0 60 8.5t25 10.5q4 0 5 -1q0 -2 -1 -5q-13 -10 -29 -17q-14 -7 -33.5 -12t-44.5 -7h-5q-8 0 -18 2t-19 7t-15 12.5t-6 18.5
q0 19 11.5 34.5t28.5 26t36.5 16.5t36.5 7q7 0 13 -3q5 -2 9 -7t4 -16q0 -10 -8 -17t-18 -11.5t-18.5 -6.5t-10.5 -2l-1 1q-2 0 -2 4v1l5 5v0z" />
    <glyph glyph-name="d" unicode="d" horiz-adv-x="207" 
d="M128 40q-4 -11 6 -18.5t19 -7.5q8 0 20.5 7t34.5 19q6 3 6.5 2.5t1.5 -0.5q2 0 3 -1q0 -6 -8 -13.5t-19.5 -15t-24 -12t-21.5 -4.5q-22 0 -32 13q-9 10 -9 23q0 12 3 21q-5 -5 -10.5 -11.5t-13.5 -13.5q-10 -9 -23.5 -19.5t-33.5 -13.5q-4 0 -11.5 0.5t-15.5 8.5
q-5 5 -10 11.5t-5 16.5q0 17 17 33.5t38.5 29t41.5 20t27 7.5l1 -1q5 -4 6.5 -8t3.5 -12q8 11 19 26.5t21.5 29.5t18 24.5t9.5 12.5q17 23 31 44l24 36l34 51h8q5 0 13 -2t8 -7q0 -1 -2 -7h-1q-5 -11 -20 -32t-39 -58q-29 -44 -60 -85.5t-56 -93.5zM103 81q5 5 7 8l-18 -6
q-3 -1 -15.5 -6.5t-26.5 -13.5t-25 -17t-11 -16q0 -10 11 -10t31 10q6 5 13 13q6 7 14.5 16t19.5 22z" />
    <glyph glyph-name="e" unicode="e" horiz-adv-x="148" 
d="M157 35q-14 -9 -31 -18t-35.5 -14.5t-39 -7t-39.5 4.5q-11 5 -17 12t-8 20v1q0 15 10 31t25.5 29t33.5 21.5t33 8.5q11 0 24.5 -5t13.5 -21q0 -17 -12.5 -29.5t-30 -20.5t-36.5 -12t-32 -4q0 -4 6 -6.5t13.5 -3.5t15 -1.5t11.5 -0.5q17 0 35 3.5t32 7.5q16 5 20 8t5 3
q4 0 4 -3v-2zM34 57q-2 -2 -6.5 -6t-1.5 -3q4 1 14.5 6t17.5 9l10 7q6 5 12.5 11t8.5 10q-2 0 -8.5 -2.5t-12.5 -5.5l-5 -3l-14 -10t-15 -13z" />
    <glyph glyph-name="f" unicode="f" horiz-adv-x="182" 
d="M-105 -206v3v2q0 3 4 10.5t9 17.5t12 21t13 21q43 66 80 117.5t69 96.5q-19 -14 -38 -27.5t-42 -23.5q-11 -5 -14.5 -6.5t-5.5 -2.5q-7 -2 -9 -3t-4 -1q-3 0 -3 1v2q0 3 3.5 4.5t5.5 3.5q12 8 24 15t37 27q20 17 44.5 40t48.5 51q20 22 50 59t67 90q2 3 4.5 6t14.5 19
q2 2 10.5 8.5t20.5 6.5q3 0 6 -1.5t3 -4.5q0 -7 -14 -27q-13 -22 -36 -52.5t-63 -86.5l-63 -89q3 -9 3 -17q0 -11 -3 -22.5t-6 -20.5q3 -3 6.5 -4.5t11.5 -1.5q3 0 11 2.5t16 5.5t15 5.5t9 2.5h1q3 0 3 -5l-3 -2q-2 -2 -8.5 -7t-15.5 -10t-19.5 -9.5t-19.5 -4.5q-10 0 -17 3
q-11 -26 -28 -53t-37.5 -54t-43.5 -53t-45 -48q-5 -5 -16 -15t-27 -10q-12 0 -16.5 8.5t-4.5 10.5v2zM-67 -186q-2 -2 -2 -4q26 20 50.5 46.5t46.5 55t39.5 56t29.5 50.5q-6 10 -8 19q-3 -5 -6 -8.5t-6 -8.5l-85 -119q-16 -23 -31 -44t-28 -43z" />
    <glyph glyph-name="g" unicode="g" horiz-adv-x="146" 
d="M-113 -225q-21 0 -21 22q0 8 2 14.5t4 12.5q9 22 25 45.5t36 45.5t43 40.5t48 32.5l12 17q-7 -4 -17 -5t-18 1q-10 2 -13 11t-3 14q0 21 11.5 38.5t29.5 30t39 20t40 8.5q8 -2 10 -4t3 -6q2 1 7 2.5t9 1.5q5 0 10.5 -2t5.5 -7q0 -4 -3 -8l-6 -8l-57 -77q11 3 23 6t19 5
l20 5q5 2 6.5 2h3.5q3 0 3 -2v-1q0 -4 -13 -7.5t-20 -6.5l-7 -2q-8 -2 -21.5 -6.5t-27.5 -11.5l-64 -88q-11 -14 -21.5 -29t-23.5 -30l-43 -53q-6 -8 -13 -14.5t-18 -6.5zM25 27q16 5 27 12.5t19.5 16t14.5 17.5t13 17q-1 0 -9 -1.5t-20 -6.5t-25.5 -15.5t-26.5 -29.5
q-4 -7 -4 -12q3 0 11 2zM-9 -57q-28 -26 -53 -57t-39 -67q19 24 36.5 49.5t35.5 47.5z" />
    <glyph glyph-name="h" unicode="h" horiz-adv-x="193" 
d="M294 333q0 -18 -14 -44t-36.5 -54.5t-50.5 -57t-56 -52.5l1 1l6 -2q1 -1 10 -6.5t8 -6.5q0 -3 -1 -4v-1q-8 -22 -22 -40t-24 -41q0 -6 12 -6t26.5 3t28 6.5t16.5 5.5q1 1 3 1q4 0 2 -2q0 -6 -10.5 -12t-24.5 -11.5t-28 -9t-20 -3.5q-9 0 -21.5 6t-12.5 24q0 10 3.5 18
t8.5 17q-8 -5 -22.5 -12t-28.5 -13.5t-24 -13t-10 -11.5q-2 -2 -11.5 -8t-17.5 -8h-1q-5 0 -5 11q1 4 2 7.5t3 7.5q-12 -4 -12.5 -4.5t-3.5 -0.5q-1 0 -3 2q0 4 7.5 6.5t16.5 8.5q10 21 32 53t53 72.5t70.5 87.5t86.5 98q6 6 15 15.5t23 9.5q17 0 21.5 -11.5t4.5 -25.5z
M264 330q2 6 2 8q-24 -24 -53 -58t-58.5 -70t-56 -71.5t-46.5 -63.5q28 21 61.5 52.5t64.5 66.5t54.5 70.5t31.5 65.5z" />
    <glyph glyph-name="i" unicode="i" horiz-adv-x="142" 
d="M53 5q-16 10 -16 32v5q-3 -2 -10 -4t-14.5 -4t-15 -3.5t-11.5 -1.5q-1 0 -3 1t-2 3q0 1 0.5 1t0.5 1h1q0 2 2 2t4 2q10 5 24.5 17.5t29 26t25 24.5t12.5 13l2 1q-2 0 2 -1t9.5 -3.5t10 -5.5t2.5 -7q-5 -9 -11.5 -17.5t-12.5 -17.5t-10.5 -18.5t-3.5 -21.5q0 -2 5 -3.5
t11 -1.5q12 1 27.5 4t25.5 5l16 4q1 0 2 0.5t3 0.5h1l2.5 -5t-4.5 -4l-41 -20.5t-42 -8.5q-11 0 -21 5zM152 192q0 -1 -2 -3l-1 -2q0 -1 1 -2v-1q0 -3 -3 -6.5t-6 -5.5l-12 -8l-8 15q-4 7 -4 12q0 3 1 5.5t2 5.5l2 4q1 0 1 1t1 2l2 2h2q-2 0 1.5 -1.5t8.5 -3.5t10 -5t5 -6
q0 -2 -1 -3z" />
    <glyph glyph-name="j" unicode="j" horiz-adv-x="127" 
d="M136 35q1 0 3 -0.5t2 -2.5q0 -4 -5 -5.5t-15 -4t-25.5 -6.5t-35.5 -13l-70 -95q-17 -23 -38.5 -50t-54.5 -69q-5 -5 -10.5 -10t-13.5 -5q-14 0 -18 8.5t-4 15.5q0 26 16.5 54.5t40.5 55t51.5 49t48.5 35.5q4 2 5 3l11 14q5 7 9.5 13.5t8.5 12.5q-23 -8 -49 -15t-53 -7h-2
q-1 1 -1 3q-2 3 1 3l6 2q18 7 41 16.5t50 25.5l14 8q8 5 16.5 12t16.5 12l2 2q8 6 16 13t19 7q5 0 10.5 -2.5t4.5 -7.5q-1 -3 -6 -10l-10 -14l-45 -62q16 5 33 8.5t30 5.5zM-19 -49q-18 -17 -35 -35.5t-31 -39.5q-10 -15 -18 -32t-15 -26q18 24 42 53.5t57 79.5zM171 201
q5 -4 5 -6q0 -3 -3 -6l-1 -2q0 -1 1 -2v-1q0 -3 -3 -6.5t-6 -5.5l-12 -8l-8 15q-4 7 -4 12q0 3 1 5.5t2 5.5l2 4q1 0 1 1t1 2l2 2h2q1 0 5 -2q2 -2 6 -4t9 -4z" />
    <glyph glyph-name="k" unicode="k" 
d="M290 330q-3 -17 -16 -40.5t-33.5 -50.5t-46.5 -55t-55 -55q6 0 12 -6.5t6 -12.5q0 -7 -6 -14t-11 -12q-8 -8 -15 -16t-18 -19q3 -5 3 -15q0 -2 -1.5 -6t-0.5 -6q2 -4 7.5 -4t13.5 2q7 1 17 4t19 6t15.5 5t8.5 2q4 0 4 -3q0 -4 -12.5 -13t-50.5 -21q-4 -1 -7.5 -1.5
t-8.5 -0.5q-14 0 -21 4.5t-9 10t-2 11v8.5q-3 -1 -6 -1h-1q-9 1 -12.5 7t-3.5 14l1 5q-6 -4 -13.5 -8.5t-20.5 -12.5q-6 -10 -9 -15.5t-6 -9.5t-8.5 -6.5t-17.5 -6.5h-1q-3 0 -4 4t-1 7q0 5 4 15q-7 -3 -10 -4.5l-4 -2t-2 -0.5h-3q-1 0 -3 2l4 2.5t9 5.5t9 6t5 3
q8 16 28.5 48.5t51.5 74.5t72 90.5t89 96.5q9 11 19 17.5t25 5.5q11 -4 16 -16t1 -23zM261 329q2 6 2 9q-20 -20 -46 -50.5t-53 -64t-53 -68t-47 -61.5q17 13 30 20.5t21 17.5q25 23 48.5 50t43.5 53.5t34 51t20 42.5z" />
    <glyph glyph-name="l" unicode="l" horiz-adv-x="140" 
d="M18 17q-7 10 -7 22q-10 -5 -24 -13t-26 -9q-3 0 -3 3q0 1 2 2t8 3.5t16 8.5t26 17q0 5 1.5 10.5t3.5 10.5q6 15 29.5 49.5t56.5 76.5t71 87t74 81q2 2 6 3t12 1q9 0 17 -7t8 -21q0 -26 -23 -64t-59 -78t-78.5 -77.5t-81.5 -62.5q-2 -3 -2.5 -7t-1.5 -8v-6.5t3 -6.5t10 -5
t20 -1q45 3 62 10.5t18 7.5q4 0 4 -5l-5 -4q-2 -2 -10.5 -6.5t-21 -10t-27.5 -10.5t-31 -8q-10 0 -22 1.5t-25 15.5zM61 87q11 8 30 25.5t41 39.5t44.5 47.5t41 50.5t30.5 48t12 40q-47 -47 -79 -87t-63 -81q-16 -20 -30 -40t-27 -42v-1z" />
    <glyph glyph-name="m" unicode="m" horiz-adv-x="266" 
d="M185 62q-7 -5 -14.5 -11.5t-15.5 -11.5l-18 -14q-7 -6 -20 -16t-24 -10q-10 0 -12.5 7.5t-2.5 10.5q2 10 4 14.5t4 8.5l11 26q-7 -5 -22 -16.5t-31.5 -23.5t-32 -21t-23.5 -9q-4 0 -9 4.5t-6 7.5q0 6 6 16.5t15 22.5t19 23.5t18 19.5l9 9q-7 0 -16.5 -2.5t-19 -6t-17 -7
t-10.5 -4.5q-6 -2 -8 -3.5t-4 -1.5t-2 3q4 6 13.5 13t21.5 12.5t24.5 9.5t21.5 5q4 0 9.5 -5t6.5 -13q0 -3 -2 -6t-2 -4l-20 -28q8 6 15.5 12t14.5 11l4 3q5 5 13 10.5t16 10.5q9 6 18 13q10 5 21.5 0t11.5 -16q-2 -6 -7.5 -19t-17.5 -37l82 51q5 7 6.5 10t2.5 4h4.5t10 -1
t10 -3.5t4.5 -6.5q0 -5 -6.5 -15.5t-14 -22.5t-15 -23.5t-8.5 -17.5l2 -2t4 -1q32 0 52 8.5t22 8.5q6 0 4 -5q-3 -3 -9.5 -9t-17 -12t-24 -10.5t-30.5 -4.5q-2 0 -7 0.5t-10.5 3t-10 8.5t-4.5 17q0 6 5.5 18.5t7.5 17.5z" />
    <glyph glyph-name="n" unicode="n" horiz-adv-x="186" 
d="M199 40q5 0 3 -3.5t-4 -5.5t-9.5 -7.5t-19 -11.5t-25 -10.5t-28.5 -4.5q-2 0 -7.5 0.5t-11.5 3.5t-10.5 9t-4.5 17q0 8 4.5 17.5t7.5 15.5q-5 -4 -19.5 -14t-30.5 -20.5t-30.5 -19t-20.5 -8.5q-18 0 -18 14q2 8 3 9q5 13 16 25.5t21 23.5q11 13 16 17.5t7 8.5q0 2 -3 2
q-14 0 -27.5 -5.5t-23.5 -9.5q-3 0 -3 3q0 8 33 21q5 2 12.5 4t12.5 1q4 0 9.5 -4.5t5.5 -10.5q0 -4 -7 -15.5t-18 -27.5q37 25 65 45.5t33 23.5q6 2 18.5 -2.5t12.5 -9.5q0 -3 -1 -5q-3 -8 -14 -24.5t-30 -51.5q-1 -2 -2 -5q0 -4 16 -4q34 0 52.5 9.5t17.5 9.5h2z" />
    <glyph glyph-name="o" unicode="o" horiz-adv-x="190" 
d="M22 26q0 8 3 16q-11 -7 -22.5 -11t-20.5 -7q-11 -4 -20 -6q-1 0 -3 2q0 2 4 4q20 8 41 20.5t37 28.5q26 26 42.5 36.5t22.5 10.5h1h1l2 -2q2 2 5.5 2h5.5q19 0 27 -14t8 -28q0 -22 -11 -42q3 -2 9.5 -2.5t13.5 -0.5q16 0 24.5 3t9.5 3q4 -2 4 -4l-1 -1l-4 -3
q-5 -4 -21.5 -9.5t-39.5 -5.5h-1q-2 0 -4 0.5t-4 0.5q-14 -13 -31 -19t-33 -6q-13 0 -29 7.5t-16 26.5zM116 88q-4 -8 -4 -20q0 -4 2 -10.5t10 -13.5q8 8 12 19.5t4 21.5q0 8 -5.5 16t-15.5 8q0 -2 2.5 -5t2.5 -7t-6 -6h-1q0 -1 -0.5 -1.5t-0.5 -1.5zM55 29q0 -3 3 -5.5
t14 -2.5q8 0 16 1t15 6q-12 8 -16 20t-4 20l-4 -3.5t-9.5 -9t-10 -12.5t-4.5 -14z" />
    <glyph glyph-name="p" unicode="p" horiz-adv-x="206" 
d="M148 39q14 11 17.5 19.5t3.5 12.5q0 8 -10 12t-19 4h-6.5t-5.5 -2l-36 -54q-3 -5 -17.5 -27t-35 -52.5t-45 -65t-49.5 -65.5q-6 -6 -14 -15t-17.5 -17t-20 -13.5t-20.5 -5.5q-8 0 -12.5 2.5t-6.5 6.5t-2.5 7.5t-0.5 5.5q0 14 10 34.5t25.5 43t36 46.5t41.5 46t41 40.5
t35 30.5q-17 -5 -33.5 -9.5t-40.5 -1.5q-7 0 -7 4q0 2 2 4q24 0 44 10.5t44 26.5q14 9 18 13t8 6q11 8 24.5 21.5t20.5 18.5l1 1q0 -1 3.5 -2t8.5 -5q27 0 47 -12.5t20 -35.5q0 -12 -6 -25t-17 -18q7 0 19 4t16 4q2 1 7 -2q1 -2 2 -3l-9.5 -3t-23 -7.5t-29 -10.5t-26.5 -12
q-5 -3 -9.5 2.5t-4.5 10.5q3 12 11.5 15t17.5 12zM33 2q4 5 7.5 10t6.5 10q-29 -26 -63 -67t-68 -88l-18 -26q-7 -9 -11 -19.5t-6 -19.5q6 5 18 16t23 24q13 14 24 30.5t22 32.5q17 23 32 46t28 43z" />
    <glyph glyph-name="q" unicode="q" horiz-adv-x="201" 
d="M213 35q7 0 3.5 -5t-13.5 -11t-22.5 -11.5t-21.5 -5.5q-8 0 -16 1t-15 6q-18 -38 -47 -83.5t-63 -85.5q-8 -10 -18 -21.5t-21 -22t-22.5 -17t-21.5 -6.5q-12 1 -17.5 10t-1.5 20q6 20 18 38t24 38t23 36.5t21.5 31.5t21 31t23.5 34q-2 -2 -6 -4q-3 -2 -9 -3.5t-12.5 -3
t-11.5 -2t-6 0.5q-6 0 -10 4.5t-5.5 9.5t-2 10.5t0.5 7.5q10 27 25 44.5t32 28t33.5 14.5t28.5 4q8 -2 10.5 -5t3.5 -8q6 7 9 12l6 2q6 2 12 2q5 0 10 -1.5t5 -6.5q0 -2 -2 -5.5t-4 -7.5q-4 -5 -6.5 -9t-5.5 -8q-3 -8 -4 -20t2 -26q3 -8 8 -12.5t21 -4.5q4 0 11 1.5t14 3.5
t12 3.5t6 1.5h1zM24 27q18 6 31 13.5t22 16.5t15 17.5t12 15.5h-7q-2 0 -13 -3t-24.5 -10t-27 -20t-19.5 -32q3 0 11 2zM42 -97q25 32 44.5 61t31.5 53q-5 5 -7 11.5t-3 11.5q-14 -20 -34 -48t-47 -68l-40 -58q-5 -8 -11 -16.5t-12 -16.5v-1l-15 -24q5 2 15.5 11.5t23.5 23
t27 29.5t27 31z" />
    <glyph glyph-name="r" unicode="r" horiz-adv-x="174" 
d="M187 38q3 0 3 -6l-5 -3q-3 -2 -12 -7.5t-21.5 -11t-27.5 -10t-31 -4.5q-9 0 -21 5.5t-14 21.5q-2 13 2 21t8 14l1 1q2 4 5 7l5 5q-2 1 -5 2t-5 3q-8 -8 -19.5 -16.5t-24 -16t-24 -12.5t-18.5 -6q-5 4 -5 7l3 3q2 2 18 12.5t31 27.5q4 4 9 11.5t9.5 15t8.5 13.5t6 8
q-2 0 2.5 -1t10.5 -2.5t11 -3.5t5 -5v-8.5t3 -7.5q2 -1 2.5 -1t2.5 -1q15 15 17 16h1q5 0 14.5 -6.5t9.5 -11.5t-7.5 -11t-13.5 -12q-8 -8 -19.5 -19t-13.5 -24q4 -4 14.5 -3.5t23 2.5t24.5 4.5t18 4.5q14 4 15.5 4.5t3.5 0.5z" />
    <glyph glyph-name="s" unicode="s" horiz-adv-x="157" 
d="M171 39q3 0 3 -2q0 -1 -2 -3q0 -1 -5.5 -6t-14 -11t-19.5 -10.5t-24 -4.5q-14 0 -19 5q-12 -8 -23 -10.5t-22 -2.5q-23 0 -32.5 8t-11.5 16q-6 0 -14 -2.5t-16 -4.5t-16 -2t-12 6q0 1 0.5 1.5t5.5 2.5q24 8 45.5 21t39.5 27t32 27.5t22 21.5q2 5 4.5 10.5t8.5 5.5
q5 0 14 -4t9 -7q-2 -8 -0.5 -13.5t4.5 -19.5q5 -20 0 -35t-19 -31h1h2q13 0 21 1.5t14 4t11 5.5t13 6zM98 76q-14 -12 -34 -27.5t-52 -26.5q7 -8 22 -8q8 0 19 4.5t21 11.5t17 16.5t7 18.5v11z" />
    <glyph glyph-name="t" unicode="t" horiz-adv-x="138" 
d="M58 28q-3 -8 8 -8q12 0 25.5 2.5t25 6t19 6.5t8.5 4q2 2 6.5 -1t2.5 -6q0 -2 -5 -4q-2 -2 -4 -3l-7 -4t-18.5 -8.5t-26.5 -8.5t-32 -4h-3q-6 0 -14.5 5t-8.5 13q0 11 5 22l10 22v1q1 1 1 1.5t1 1.5q-7 -5 -18.5 -14t-22.5 -17t-20 -12t-11 1q0 2 1 4q6 3 20 15t32 30
t38 40.5t40 46.5q-36 0 -71.5 0.5t-65 0.5t-49 0.5t-23.5 0.5h-1q-1 1 -5.5 6.5t-4.5 15.5q0 7 2.5 8t7.5 2h1h17.5t34 -0.5t65 -1.5t111.5 -4q17 24 32 44t25 31q5 8 8.5 11t5.5 5q-1 0 3 -0.5t9 -2t9 -4t4 -6.5q0 -6 -3 -10q-5 -7 -15.5 -22t-36.5 -50q69 -5 102.5 -8.5
t46.5 -5.5t12.5 -3.5t-0.5 -2.5q-1 0 -1 -1l-2 -2h-1q-2 0 -45 -0.5t-131 -0.5q-11 -11 -24.5 -27t-26.5 -34.5t-24.5 -37t-17.5 -33.5z" />
    <glyph glyph-name="u" unicode="u" horiz-adv-x="173" 
d="M187 41q4 0 4 -3q0 4 -0.5 0.5t-7 -10.5t-21 -15.5t-41.5 -14.5q-14 -3 -22 2t-12 12t-4.5 14t2.5 10q-14 -14 -31 -27.5t-42 -13.5q-10 0 -18.5 9t-8.5 21q0 16 9.5 33.5t21.5 31.5q13 17 31 33l1 1q7 0 16 -3t11 -11q-4 -7 -9 -14t-12 -15q-2 -2 -7.5 -9t-12.5 -16
t-12 -18t-5 -14h1h6q7 1 18 7.5t23 16.5t24 21t22 21q9 10 13.5 16.5t12.5 13.5q5 4 14.5 -1.5t9.5 -9.5q0 -5 -3 -10t-6 -11q-20 -32 -30.5 -45.5t-10.5 -18.5q3 -3 9 -3q3 0 13.5 2t22.5 5t21 6.5t9 6.5h1v0z" />
    <glyph glyph-name="v" unicode="v" horiz-adv-x="142" 
d="M152 121q2 -1 7 -6.5t5 -10.5q0 -3 -0.5 -4.5t-7 -7t-21.5 -17.5t-43 -36q-15 -13 -56 -36q-8 -5 -12 -5h-7q-8 0 -10.5 4.5t-2 10.5t3.5 13t6 13q5 11 13 23.5t17 23.5q5 6 6 8.5t1 3.5h-4q-1 0 -8 -2.5t-15 -5l-16 -5t-10 -2.5q-3 0 -3 3q0 -1 2 3q-2 -2 3 1.5t13.5 8
t19.5 8.5t22 5h1q3 0 7.5 -5t4.5 -11q0 -13 -11 -28t-16 -28q18 12 35 26t30.5 26.5t23.5 21t13 10.5h1h2q1 0 2.5 -1t3.5 -2z" />
    <glyph glyph-name="w" unicode="w" horiz-adv-x="229" 
d="M231 120h-1q6 -2 11 -5q5 -2 8.5 -6t3.5 -9q0 -1 -4 -5q-2 -2 -6 -5.5t-10 -8.5l-42 -35q-18 -15 -40.5 -28t-38.5 -18q-8 0 -11 4.5t-3 7.5q0 15 5.5 26.5t11.5 21.5h-1q-11 -9 -25.5 -20t-29 -21t-26.5 -16t-18 -6h-1q-11 5 -12.5 8.5t-1.5 8.5q0 10 6.5 24.5t15 27.5
t15 22.5t6.5 10.5q0 3 -2 2q-17 -5 -30.5 -11.5t-18.5 -6.5q-2 0 -2 2v-1q-1 0 -1 2q0 3 14.5 11.5t33.5 14.5q8 2 16.5 -1t8.5 -15q0 -3 -0.5 -4.5t-0.5 -3.5q-5 -9 -13 -22.5t-13 -24.5l5 3q22 17 43.5 33t44.5 36q5 5 9 5q2 0 3 -1q5 -2 9 -4q3 -2 6 -4.5t3 -7.5
q0 -3 -4 -6q-8 -8 -16 -20.5t-13 -37.5q26 20 51.5 41.5t52.5 41.5h2z" />
    <glyph glyph-name="x" unicode="x" horiz-adv-x="150" 
d="M171 29q-6 -6 -25 -19t-60 -13q-26 0 -39.5 9.5t-29.5 25.5q-32 -20 -51 -30.5t-17 -10.5q-2 0 -3 1t-1 2q0 2 3 5q-1 -1 16 14t43 38q-6 22 -7 29t-1 15l1 2q2 2 6 3q5 1 17 3q5 0 6 -1.5t2 -3.5v-1q0 -6 3 -22q19 16 38 32.5t35 30t26.5 22t12.5 10.5q6 0 15 -5.5
t9 -13.5q0 -2 -3 -5q-5 -5 -13.5 -12.5t-27.5 -23.5l-17 -14q-11 -10 -28 -22t-36 -24q0 -9 18.5 -19t40.5 -10q17 0 34.5 4.5t28.5 8.5q3 0 5 -2q0 -2 -1 -3z" />
    <glyph glyph-name="y" unicode="y" horiz-adv-x="154" 
d="M155 35q4 0 4 -3q0 -2 -1.5 -2.5t-2.5 -1.5h-1q-4 -1 -8.5 -2t-11 -3.5t-16.5 -6.5t-25 -11q-12 -5 -26 -20.5t-30 -36.5t-34 -46.5t-37 -50.5q-14 -18 -23.5 -29.5t-15.5 -19t-9.5 -11.5t-7.5 -8q-5 -5 -7.5 -6t-4.5 -2h-2q-14 0 -19.5 5t-5.5 14q0 21 14.5 46.5
t36.5 51t49 48.5t51 40l17 24q-8 -6 -25 -6t-23 9.5t-6 17.5q0 13 5 26.5t13 26.5t17.5 25t18.5 21q1 1 6 0.5t9.5 -2.5t8.5 -5t4 -6q0 -2 -2 -4l-1 -1q-11 -14 -23.5 -32.5t-22.5 -45.5q15 0 30.5 10t28.5 21q18 18 26 29.5t12.5 17.5t8.5 8.5t14 2.5q5 0 10 -2.5t5 -7.5
q0 -3 -1 -5t-5.5 -8.5t-15 -20t-28.5 -38.5l-14 -18h3q27 11 43 14.5t17 3.5h3zM-31 -92q-17 -18 -30.5 -38t-24.5 -36q13 17 25 33t24 33z" />
    <glyph glyph-name="z" unicode="z" horiz-adv-x="154" 
d="M166 39q4 0 4 -3q0 -2 -1.5 -2.5t-2.5 -1.5h-1q-2 0 -7 -2t-6 -2q-17 -8 -29.5 -13.5t-29.5 -21.5t-43.5 -48t-72.5 -93q-7 -9 -17.5 -22t-21 -25.5t-19.5 -21.5t-13 -10q-8 0 -17.5 4.5t-9.5 15.5q0 23 14.5 48t36.5 50t49 48t53 43q4 5 10 13.5t13 16.5t13 14.5t9 7.5
q-7 3 -10.5 12t-3.5 17q0 4 2 8q-15 -12 -29.5 -22t-35.5 -16l-9 -3h-4h-1q-2 0 -2 1q-1 1 -1 2q0 2 2 3t8 5.5t18 15t32 33.5q11 14 23 30t19 33h2h-1q7 -2 13 -4q5 -2 9.5 -4.5t4.5 -5.5t-3 -9.5t-4 -10.5h1q5 5 7 5q5 0 14 -8t9 -11q0 -7 -10.5 -13.5t-15.5 -11.5
q1 0 2.5 1t5.5 1q7 0 10.5 -4.5t3.5 -7.5q0 -14 -9 -26t-23 -16q0 -6 -4 -11q20 5 39 13t27 9h1h1h1zM-25 -97q-6 -3 -13 -11.5t-14 -18.5t-13 -19.5t-9 -15.5q5 6 9 12t9 11zM95 62q0 -1 1 -2q2 2 3.5 6.5t3.5 6.5q-2 -2 -4.5 -6.5t-3.5 -4.5z" />
    <glyph glyph-name="acute" unicode="&#xb4;" horiz-adv-x="201" 
d="M62 160q-1 1 -1 3q0 3 4 4q13 -2 25 3.5t21.5 12.5t16 12t9.5 2q2 -2 9.5 -8.5t7.5 -14.5q0 -10 -12 -14.5t-27.5 -6t-31 0.5t-21.5 6z" />
    <glyph glyph-name="circumflex" unicode="&#x2c6;" horiz-adv-x="224" 
d="M37 160l-2 4q0 2 1.5 2t2.5 1q29 7 40.5 12.5t19.5 11.5q13 8 15 8q3 0 12 -5.5t28 -20.5q22 -17 29.5 -20t7.5 -7t-5 -4q-14 0 -36 5t-37 14q-6 -3 -16 -5t-21.5 -2.5t-22 1t-16.5 5.5z" />
    <glyph glyph-name="cedilla" unicode="&#xb8;" horiz-adv-x="41" 
d="M23 -53q-5 0 -13.5 1.5t-17 5t-15 9t-6.5 12.5q0 3 3 3q8 -2 16.5 -4.5t17.5 -2.5q10 0 12 1q2 0 2 1q-2 2 -7.5 2.5t-8.5 1.5q-2 1 -4 4q-3 4 -3 14q0 1 2 5t5 8.5t6 8t5 3.5q1 0 8 -2t15 -10q0 -2 -3 -8l-1 -2q2 -2 8.5 -8t6.5 -17q0 -10 -8 -18t-20 -8z" />
    <glyph glyph-name="zero" unicode="0" horiz-adv-x="395" 
d="M346 462q19 -14 29.5 -40t10.5 -61q0 -34 -11.5 -75.5t-32 -83.5t-48.5 -81.5t-61.5 -70t-71 -49.5t-76.5 -20q-21 1 -36 9.5t-24 21.5t-13 28t-4 28q0 28 11 63t30 71.5t44 73.5t53 69t56.5 57t55.5 38q-3 0 -6 2h-1q-15 7 -15 17v-1l-1 1q0 1 2 4t8 6t18 5.5t33 2.5
q30 0 50 -15zM99 -5q52 9 98.5 48t81.5 91.5t55 112.5t20 111q0 40 -14 63.5t-46 23.5q-2 0 -7 -0.5t-7 -1.5q5 0 10 -6.5t5 -12.5q0 -4 -2.5 -4.5t-10.5 -4.5q-54 -25 -100.5 -74t-80 -103t-52.5 -102.5t-19 -72.5q0 -29 18.5 -50.5t50.5 -17.5z" />
    <glyph glyph-name="one" unicode="1" horiz-adv-x="290" 
d="M269 436q-45 -103 -103.5 -199.5t-116.5 -195.5l-32 -54q-4 -10 -8 -10l-2 1l-1 1q0 1 3.5 8l6.5 13q6 13 23.5 47.5t42.5 83.5t54.5 108t60.5 120q-36 -33 -72.5 -70.5t-80.5 -63.5h-1q-2 -1 -3 -1h-5q-5 0 -14 2.5t-9 10.5q0 3 3.5 6t11.5 9q52 35 103.5 85.5
t96.5 101.5q15 17 22.5 23.5t9.5 6.5q20 -2 18 -10.5t-8 -22.5z" />
    <glyph glyph-name="two" unicode="2" horiz-adv-x="374" 
d="M357 453q10 -11 6 -29q0 -7 -12.5 -33t-33.5 -62t-48.5 -78.5t-57 -83t-59 -74t-54.5 -52.5q26 -35 43.5 -53.5t37.5 -18.5q21 0 38.5 15.5t26.5 24.5l5 6q3 3 5 3t2 -4l-3 -7q-4 -5 -11 -15t-16.5 -20t-22.5 -17.5t-29 -7.5q-18 0 -33.5 8t-28 19.5t-23 24t-17.5 22.5
l-2 2q-10 -5 -20 -8.5t-21 -3.5h-1q-22 0 -22 27q0 7 1 16t5 17t11 13t18 5q15 0 26.5 -12t19.5 -23q28 27 57.5 63.5t57.5 77.5t53.5 83t45.5 80q4 9 9.5 21t10 23.5t7.5 20t4 9.5q-19 6 -47 -4.5t-56.5 -27.5t-53.5 -37.5t-38 -35.5l-3 -2q0 -1 -7.5 -4t-15.5 -3
q-12 0 -12 8q0 5 14 24t60 54q9 7 23.5 18t33 21t40.5 17t46 7q10 0 22.5 -3.5t18.5 -10.5zM25 24q9 0 18 3.5t17 8.5q-2 2 -7.5 8.5t-9.5 9.5q-9 7 -16 0t-7 -14q0 -11 2 -13.5t3 -2.5z" />
    <glyph glyph-name="three" unicode="3" horiz-adv-x="345" 
d="M335 383q0 -14 -5.5 -45t-17 -62.5t-29.5 -55.5t-43 -25h-1q18 -7 28.5 -24t10.5 -37q0 -29 -13.5 -56.5t-35.5 -49t-49 -34.5t-54 -13q-17 0 -32.5 5.5t-29 13t-24 16.5t-16.5 16q-10 11 -12.5 14t-2.5 4l-1 3v-1q0 7 2 12t5.5 9t9.5 4q4 0 7 -5q17 -22 41 -40t55 -18
q22 0 45.5 11t42.5 29t31 40.5t12 44.5t-9.5 33t-22 15t-25 4t-17.5 1q-17 1 -17 5q0 2 4 3h28q42 0 74 41.5t32 128.5q0 8 -1 18.5t-6 19.5t-15 15.5t-27 6.5h-1q-16 -1 -33.5 -5.5t-38.5 -15.5q-33 -17 -50 -32.5t-19 -15.5h-1q0 -1 -9 -1q-7 0 -13.5 3.5t-6.5 8.5
q0 1 10.5 15.5t30.5 31t50 30t68 13.5q42 0 66.5 -18t24.5 -61z" />
    <glyph glyph-name="four" unicode="4" horiz-adv-x="341" 
d="M330 460q6 -4 1 -15q-3 -9 -10 -27t-20.5 -49t-34 -78t-51.5 -115q29 -2 35.5 -3t6.5 -3v-2q0 -1 -1 -2h-1q-1 -1 -1.5 -1h-5t-14 -1t-27.5 -4q-19 -42 -39 -83.5t-40 -83.5q-2 -2 -4 -9t-5 -7h-2q-1 1 -1 5q0 -1 4 11.5t11.5 35.5t19.5 55.5t29 73.5q-25 -2 -52.5 -4.5
t-51.5 -4t-41.5 -2.5t-21.5 -1h-2q-2 2 -4 6q-3 6 -3 17q0 4 6 6q1 1 22.5 21.5t52.5 51t67.5 66.5t69 68t56 55.5l28.5 28.5q2 2 10 0.5t14 -6.5zM188 179q22 52 42.5 104.5t43.5 106.5q-27 -30 -62.5 -61.5t-71 -60.5t-66 -53t-48.5 -37q39 0 78.5 1.5t83.5 -0.5z" />
    <glyph glyph-name="five" unicode="5" horiz-adv-x="375" 
d="M341 439q9 -6 10.5 -16t-1.5 -20.5t-9.5 -20.5t-12.5 -16l-1 -1h-1l-4 0.5t-9 2t-9 4t-4 6.5q0 1 2 5q11 20 13.5 25t2.5 6q-26 0 -53 3t-51.5 8t-44.5 10.5t-33 10.5q-4 -23 -11 -46.5l-14 -47t-13 -47t-7 -47.5q9 -1 26.5 -3t38 -4.5t41.5 -5t39 -4.5q30 -4 50 -30.5
t20 -75.5q0 -33 -9.5 -64t-28.5 -55t-47.5 -38t-65.5 -14t-64.5 10t-45.5 24t-27 29t-9 26t3.5 15.5t4.5 4.5q3 0 3 -4v-1q0 -3 -0.5 -7t-0.5 -5q0 -14 11 -26.5t28.5 -21.5t39.5 -14.5t44 -5.5q66 0 98.5 40t32.5 109q0 35 -10 50.5t-15 17.5h-1q-1 0 -1.5 0.5t-2.5 0.5h-2
q-6 2 -15.5 3t-28 3t-48 6.5t-75.5 13.5q-8 8 -10 13t-2 11q0 18 8 43t18.5 52t22 52.5t18.5 43.5q0 1 1 2q-10 3 -16.5 6.5t-6.5 5.5q0 1 13 -1t32 -6t40.5 -7t39.5 -3q11 0 25.5 2t29.5 3t29 -1t25 -9z" />
    <glyph glyph-name="six" unicode="6" horiz-adv-x="311" 
d="M288 461q5 -2 9 -6.5t4 -10.5q0 1 -15.5 -9.5t-38.5 -30t-50.5 -46.5t-51.5 -60q-14 -18 -33.5 -48t-38 -64.5t-31.5 -71.5t-13 -69q0 -12 3.5 -24.5t11.5 -22.5t21 -16t32 -6q26 1 56 11.5t55.5 29t42.5 44t17 57.5q0 34 -16 49.5t-39.5 19t-50 -1t-47.5 -9.5h-1l-3 1
t-7 4t-7.5 7t-3.5 9q0 4 3 5.5t6 3.5h2q33 9 67.5 11t62.5 -6.5t46 -29t18 -55.5q0 -37 -18.5 -66t-47.5 -50t-64 -33.5t-68 -15.5q-49 0 -71 26t-22 67q0 39 15 83.5t39.5 88t54.5 84t59.5 72.5t56.5 53.5t44 27.5h1q5 0 11 -2z" />
    <glyph glyph-name="seven" unicode="7" horiz-adv-x="311" 
d="M282 462q1 0 5 -3t7.5 -6.5t6.5 -7.5t3 -5q-1 -8 -9.5 -25.5t-24 -49t-38 -79t-52.5 -115.5q10 0 22.5 -1l25 -2t22.5 -2t14 -1l14 -1q5 -2 7 -1.5t2 -3.5q0 -2 -2 -2l-6 -2q-4 0 -15 -1.5t-27 -3t-34.5 -3.5t-37.5 -3q-9 -21 -20.5 -45t-23 -47t-22 -43t-17.5 -34
q-1 -2 -4 -8.5t-5 -6.5l-2 1q-1 1 -1 5q0 2 17 49t51 126q-31 -2 -56 -4t-30 -2h-2q0 1 -3 6.5t-4 16.5q0 5 1.5 6t4.5 2h1q17 2 45.5 5t55.5 1q15 37 31.5 74.5t31.5 70.5t27.5 60t20.5 44q-29 -7 -56.5 -14.5l-55 -15t-56.5 -14t-60 -11.5q-17 -2 -22.5 -2.5t-5.5 1.5t1 3
l1 1q2 0 3 1q1 0 1.5 0.5t1.5 0.5q7 3 28.5 10.5t50.5 17.5t61 20.5t59.5 20t46 15.5t21.5 7h1v0z" />
    <glyph glyph-name="eight" unicode="8" horiz-adv-x="345" 
d="M286 470q13 0 22.5 -6.5t15.5 -16.5t9 -22t3 -24q0 -15 -5.5 -35t-15 -39.5t-23.5 -35.5t-32 -25q11 -16 16 -37.5t5 -44.5q0 -35 -17.5 -74.5t-46 -72.5t-65 -53.5t-73.5 -17.5q-34 5 -53 36.5t-19 75.5q0 60 21.5 97.5t48 58.5t50.5 29.5t29 9.5q-7 8 -10 19t-3 22
q0 20 8.5 41.5t23 40t34 33t41.5 21.5q0 2 -1 3.5t-1 3.5t1.5 2.5t3.5 2.5l1 1q7 3 14 5t18 2zM76 -15q17 -5 36.5 2t39 22t37 36.5t31.5 44.5t22 46.5t8 43.5q0 22 -5 40.5t-14 28.5q-20 5 -41 2.5t-41.5 -11.5t-38.5 -23.5t-33 -32.5q-6 -7 -13 -19t-14 -27.5t-11.5 -34.5
t-4.5 -40q0 -58 42 -78zM300 364q2 8 3.5 20t0.5 23.5t-6.5 20t-17.5 9.5q0 -2 0.5 -3t0.5 -3q0 -4 -6 -6l-5 -2q-22 -9 -40.5 -23t-32 -30.5t-21.5 -34t-8 -33.5q0 -2 1 -11t3 -9l4 1q20 5 42.5 4t31.5 -10q17 12 31 36.5t19 50.5z" />
    <glyph glyph-name="nine" unicode="9" horiz-adv-x="317" 
d="M211 469q41 0 70.5 -22.5t29.5 -69.5q0 -29 -11.5 -67.5t-31.5 -79.5t-47 -82.5t-58 -77.5t-64.5 -64t-65.5 -41h-1h-2q-6 0 -14.5 5t-8.5 13q0 6 4 6.5t11 4.5q25 12 67 48t81 88q15 21 35.5 53t39 67t31.5 70t13 61q0 37 -18.5 53t-46 15.5t-59.5 -14t-59.5 -35
t-46 -48.5t-18.5 -53q0 -31 24 -51t62 -20q24 1 40.5 4.5t24.5 7.5l10 3q0 -1 10 -5.5t10 -15.5q0 -5 -8 -8l-5 -2q-18 -9 -40 -13t-47 -4q-18 1 -37.5 6.5t-36 17.5t-27 31t-10.5 46q0 34 18.5 65.5t48 55.5t65 38t68.5 14z" />
    <glyph glyph-name="exclam" unicode="!" horiz-adv-x="322" 
d="M57 -44q5 -4 5 -5q0 -4 -3 -7l-1 -2q0 -1 1 -2v-1q0 -3 -3 -6.5t-6 -5.5l-12 -8l-8 15q-1 1 -3 5v1q-1 3 -1 9q1 2 1.5 4t1.5 4l2 4l4 5h2q2 0 5 -2q7 -4 15 -8zM294 466q6 1 9.5 -2t4.5 -8t0 -10t-2 -9q-2 -6 -15.5 -38t-41 -89.5t-72 -139.5t-108.5 -188q-4 -6 -6 -6
q-3 0 -3 5q39 81 76 160t66.5 143.5t49 108.5t24.5 55q5 10 6 13t12 5z" />
    <glyph glyph-name="question" unicode="?" horiz-adv-x="441" 
d="M44 -34q5 0 15 -5t12 -10q0 -15 -13 -24l-11 -8q-6 10 -9.5 18.5t0.5 19.5q5 9 6 9zM374 439q0 -23 -19 -56.5t-44.5 -68t-51.5 -65.5t-41 -50q-23 -29 -48.5 -63.5t-47 -65.5t-36 -52.5t-15.5 -25.5q-1 -6 -6 -6l-1 1q-1 1 -1 5q3 7 6 13l6.5 13t8.5 16.5t13 23.5
q14 25 36.5 58.5t49 71.5t56 79.5t56.5 82.5q6 9 14.5 21.5t16 24.5t12.5 22t3 14q-3 7 -18 4t-36 -12.5t-45 -23.5t-45 -28.5t-36 -28t-17 -20.5l-2 -1q-2 -1 -6 -2q-8 -2 -13 -2q-14 0 -14 8q0 2 3 7t7 10q7 9 27 30t48 42t61.5 37t67.5 16q17 0 34 -5t17 -24z" />
    <glyph glyph-name="space" unicode=" " horiz-adv-x="235" 
 />
    <glyph glyph-name="period" unicode="." horiz-adv-x="73" 
d="M25 20q5 0 15 -5t12 -10q0 -15 -13 -24l-11 -8q-6 10 -9.5 18.5t0.5 19.5q5 9 6 9z" />
    <glyph glyph-name="equal" unicode="=" horiz-adv-x="313" 
d="M292 204q3 -10 -4.5 -17t-4.5 -5q3 1 -11.5 -0.5t-44 -2t-72.5 3t-97 14.5q-3 0 -4 3q0 2 2 4q39 0 77.5 1t69.5 2.5t52.5 3t26.5 2.5h6.5t3.5 -9zM278 148q3 -10 -4.5 -17t-4.5 -5q3 1 -11.5 -0.5t-44 -2t-72.5 3t-97 14.5q-3 0 -4 3q0 2 2 4q39 0 77.5 1t69.5 2.5
t52.5 3t26.5 2.5h6.5t3.5 -9z" />
    <glyph glyph-name="hyphen" unicode="-" horiz-adv-x="340" 
d="M282 42q3 -10 -4.5 -17t-4.5 -5q3 1 -11.5 -0.5t-44 -2t-72.5 3t-97 14.5q-3 0 -4 3q0 2 2 4q39 0 77.5 1t69.5 2.5t52.5 3t26.5 2.5h6.5t3.5 -9z" />
    <glyph glyph-name="plus" unicode="+" horiz-adv-x="322" 
d="M201 279q7 -2 10.5 -7.5t4.5 -8.5q-2 -2 -8 -22.5t-21 -53.5q61 3 74 5h6.5t3.5 -9q2 -10 -3 -16q-3 -4 -6 -6q3 2 -20 -1t-69 -1q-20 -39 -51 -87q-3 -3 -4 -3q-1 1 -3 4l35 87q-24 2 -52.5 5.5t-60.5 10.5q-3 0 -4 3q0 2 2 4q32 0 64 0.5t60 1.5q13 35 21 58.5t10 29.5
q2 5 2.5 6.5t8.5 -0.5zM217 263q0 -1 -1 0h1z" />
    <glyph glyph-name="comma" unicode="," horiz-adv-x="73" 
d="M-4 -67q-1 0 -3 2t0 5q10 9 14 21.5t5.5 24t2.5 19.5t5 8q2 0 12.5 1t16.5 -4q7 -7 2.5 -19t-14.5 -24t-22 -22t-19 -12z" />
    <glyph glyph-name="grave" unicode="`" horiz-adv-x="210" 
d="M153 160q-6 -4 -21.5 -6t-31 -0.5t-27.5 6t-12 14.5q0 8 7.5 14.5t9.5 8.5q3 3 9.5 -2t16 -12t21.5 -12.5t25 -3.5q4 -1 4 -4q0 -2 -1 -3z" />
    <glyph glyph-name="slash" unicode="/" horiz-adv-x="163" 
d="M193 466q6 1 9.5 -2t4.5 -8t0 -10t-2 -9q-2 -6 -15.5 -38t-41 -89.5t-72 -139.5t-108.5 -188q-4 -6 -6 -6q-3 0 -3 5q39 81 76 160t66.5 143.5t49 108.5t24.5 55q5 10 6 13t12 5z" />
    <glyph glyph-name="asterisk" unicode="*" horiz-adv-x="178" 
d="M97 388q-2 -3 -7 -1t-7 4q0 1 -0.5 4t-1.5 10l-7 -12q-1 -1 -1 -2t-1 -1q-5 0 -7 3t-4 7q6 15 12 24l-24 -10q-3 -2 -6 4t-1 10q1 1 4 2q2 1 6.5 2.5t12.5 5.5q-5 2 -11.5 4t-16.5 5q-1 2 1.5 6.5t4.5 4.5l29 -6q-7 8 -10 13t-5 7q-2 3 -3 3v1q0 4 5.5 5.5t8.5 0.5
q0 1 10 -12l-1 16q-1 0 -1 1.5t1 1.5q3 3 7 3v1q1 2 5.5 0.5t5.5 -3.5l2 -26l11 19q2 4 7.5 0.5t6.5 -6.5q-1 -1 -2 -3q-2 -3 -8 -15l19 7h1q1 0 1 0.5t1 0.5q5 -4 5 -7t-2 -8q-8 -4 -13.5 -7t-11.5 -5q11 -3 17 -4t9 -2l4 -1l1 -1q2 -2 -1.5 -6.5t-5.5 -5.5q-1 0 -7 0.5
t-18 3.5l17 -24q0 -2 -4.5 -4.5t-6.5 -1.5l-15 18l2 -19q1 -3 -6 -5h-1v0z" />
    <glyph glyph-name="quotesingle" unicode="'" horiz-adv-x="69" 
d="M45 262q-1 0 -3 2t0 5q10 9 14 21.5t5.5 24t2.5 19.5t5 8q2 0 12.5 1t16.5 -4q7 -7 2.5 -19t-14.5 -24t-22 -22t-19 -12z" />
    <glyph glyph-name="semicolon" unicode=";" horiz-adv-x="132" 
d="M18 -64q-2 1 -2 3q-2 2 1 5q12 6 19 17t11 22t6.5 18.5t6.5 6.5q2 0 12.5 -1.5t15.5 -7.5q5 -8 -2.5 -18.5t-20 -20.5t-26.5 -16.5t-21 -7.5zM88 103q5 -1 13.5 -8t9.5 -12q-3 -15 -18 -21l-13 -5q-4 11 -5 20t5 19q7 7 8 7z" />
    <glyph glyph-name="colon" unicode=":" horiz-adv-x="94" 
d="M54 121q5 -1 14 -7t11 -11q-2 -14 -16 -22l-12 -7q-5 11 -7 19.5t3 19.5q5 9 7 8zM38 18q5 -1 14 -7t11 -11q-2 -15 -16 -22l-12 -7q-5 11 -7 19.5t3 19.5q3 4 4 6.5t3 1.5z" />
    <glyph glyph-name="questiondown" unicode="&#xbf;" horiz-adv-x="441" 
d="M363.006 330.996q-5 0 -14.999 4.99902q-9.99805 4.99902 -11.998 9.99902q0 14.998 12.998 23.9971l10.999 7.99902q5.99902 -9.99902 9.49902 -18.498q3.49902 -8.49902 -0.5 -19.4971q-5 -8.99902 -5.99902 -8.99902zM33.0459 -141.946q0 22.9971 18.9971 56.4932
q18.998 33.4961 44.4951 67.9912q25.4971 34.4961 51.4932 65.4922q25.9971 30.9961 40.9951 49.9941q22.9971 28.9961 48.4941 63.4922t46.9941 65.4922q21.498 30.9961 35.9961 52.4932q14.498 21.498 15.498 25.4971q1 5.99902 5.99902 5.99902l1 -1q1 -1 1 -4.99902
q-3 -6.99902 -5.99902 -12.998q-3 -6 -6.5 -12.999q-3.49902 -6.99902 -8.49902 -16.498q-4.99902 -9.49805 -12.998 -23.4971q-13.998 -24.9971 -36.4951 -58.4922q-22.4971 -33.4961 -48.9941 -71.4912q-26.4971 -37.9961 -55.9932 -79.4912
q-29.4961 -41.4941 -56.4932 -82.4893q-5.99902 -8.99902 -14.498 -21.498q-8.49902 -12.498 -15.998 -24.4961q-7.49902 -11.999 -12.499 -21.998q-4.99902 -9.99805 -2.99902 -13.998q2.99902 -6.99902 17.9971 -4q14.998 3 35.9961 12.499
q20.9971 9.49902 44.9941 23.4971t44.9951 28.4961q20.9971 14.499 35.9951 27.9971t16.998 20.4971l2 1q2 1 5.99902 2q7.99902 2 12.998 2q13.999 0 13.999 -7.99902q0 -2 -3 -6.99902q-3 -5 -6.99902 -9.99902q-6.99902 -8.99902 -26.9971 -29.9961
q-19.9971 -20.998 -47.9941 -41.9951q-27.9961 -20.998 -61.4922 -36.9961t-67.4922 -15.998q-16.998 0 -33.9951 5q-16.998 4.99902 -16.998 23.9971z" />
    <glyph glyph-name="exclamdown" unicode="&#xa1;" horiz-adv-x="322" 
d="M280.007 337.994q-4.99902 4 -4.99902 5q0 3.99902 2.99902 6.99902l1 2q0 1 -1 1.99902v1q0 3 3 6.5q3 3.49902 5.99902 5.49902l11.999 7.99902l7.99902 -14.998q1 -1 2.99902 -5v-1q1 -2.99902 1 -8.99805q-1 -2 -1.5 -4q-0.499023 -2 -1.49902 -3.99902l-2 -4
l-4 -4.99902h-1.99902q-2 0 -5 2q-6.99902 3.99902 -14.998 7.99805zM43.0361 -171.943q-5.99902 -1 -9.49902 2t-4.5 7.99902q-0.999023 4.99902 0 9.99902q1 4.99902 2 8.99902q2 5.99902 15.498 37.9951q13.499 31.9961 40.9951 89.4893q27.4971 57.4932 71.9912 139.482
q44.4951 81.9902 108.487 187.978q3.99902 5.99902 5.99902 5.99902q3 0 3 -4.99902q-38.9961 -80.9902 -75.9912 -159.98t-66.4922 -143.482q-29.4961 -64.4922 -48.9941 -108.487q-19.4971 -43.9941 -24.4971 -54.9932q-4.99902 -9.99902 -5.99902 -12.998
q-1 -3 -11.998 -5z" />
    <glyph glyph-name="trademark" unicode="&#x2122;" horiz-adv-x="618" 
d="M297 181q-3 -6 -17 -11t-26 -5q-11 0 -20.5 4t-9.5 17t8 31.5t21 40.5t30.5 47t36.5 51q-47 0 -93 0.5t-83.5 1t-62.5 1t-30 0.5h-1q-3 1 -6 4q-6 6 -6 13q0 4 11 4q75 -2 143.5 -2.5t140.5 -3.5q30 44 54 74.5t29 35.5h1h2q1 0 2 0.5t3 0.5h1q4 0 8.5 -2.5t4.5 -5.5
q0 -1 -4 -7l-1 -1q-3 -5 -8.5 -11.5t-13.5 -17t-20.5 -26.5t-29.5 -39q-1 -1 -1 -2q69 -3 108.5 -5t59 -4t24.5 -3.5t5 -2.5q0 -2 -3.5 -2.5t-8.5 -0.5h-3h-77t-118 1q-20 -26 -45.5 -60.5t-46.5 -67.5l-1 -1q-6 -11 -12.5 -22.5t-6.5 -20.5q0 -7 8.5 -8.5t16.5 -1.5
q15 0 23.5 5.5t13.5 5.5q0 -1 1 -1l1 -1zM405 208l-1 -1l-1 1q0 8 12.5 25t33.5 52q1 2 6.5 10.5t9.5 18t5 17t-5 7.5q-9 0 -22.5 -7.5t-27.5 -17.5t-26 -20t-16 -14q-30 -40 -51 -69t-30 -33h-1l-1 6q5 2 10.5 10t15 23t24.5 37.5t40 54.5q-9 -5 -18 -7t-14 -2q-4 0 -4 1
h-1q-1 1 -1 2v4q0 5 2 5h1l1 1q5 0 17.5 2.5t30.5 10.5q12 17 13 18h1q-1 0 4.5 1t6.5 -3q0 -3 -1 -5q-2 -2 -4 -4.5l-6 -7.5q17 10 29.5 17t30.5 7q10 -2 12 -8.5t-0.5 -14.5t-6.5 -16t-7 -12q7 7 16 12q8 5 18 8.5t21 4.5q11 0 18.5 -6t7.5 -17q0 -10 -5 -22t-11.5 -24
t-14 -22t-12.5 -17l-1 -1l-6 -8t-3 -7q0 -2 2 -5t7 -3t10.5 2t9.5 4q1 1 3.5 1t0.5 -2q-8 -5 -13 -7t-10 -2q-16 0 -16 12q0 11 11 26t16 23q6 10 13.5 24.5t7.5 25.5q0 13 -13 13q-5 0 -13 -2t-16 -7q-9 -5 -14.5 -9.5t-9.5 -7.5l-7 -7h-1q-2 -3 -11 -13t-18.5 -21.5
t-18 -21.5t-9.5 -13z" />
    <glyph glyph-name="endash" unicode="&#x2013;" horiz-adv-x="405" 
d="M376 45q3 -10 -4.5 -17t-4.5 -5q3 1 -26.5 -0.5t-76 -2t-104.5 3t-112 14.5q-3 0 -4 3q0 2 2 4q26 0 59 0.5t67.5 1.5t67.5 2t60 2t44.5 1.5t21.5 1.5h6.5t3.5 -9z" />
    <glyph glyph-name="emdash" unicode="&#x2014;" horiz-adv-x="626" 
d="M578 44q3 -10 -4.5 -17t-4.5 -5q2 1 -26 0.5t-74 -1.5t-103.5 -1.5t-116 1t-112 5t-89.5 11.5q-3 0 -4 3q0 2 2 4q26 0 74 0.5t105 1.5t116.5 2t108.5 2t81.5 1.5t36.5 1.5h6.5t3.5 -9z" />
    <glyph glyph-name="underscore" unicode="_" horiz-adv-x="621" 
d="M578 -38q3 -10 -4.5 -17t-4.5 -5q2 1 -26 0.5t-74 -1.5t-103.5 -1.5t-116 1t-112 5t-89.5 11.5q-3 0 -4 3q0 2 2 4q26 0 74 0.5t105 1.5t116.5 2t108.5 2t81.5 1.5t36.5 1.5h6.5t3.5 -9z" />
    <glyph glyph-name="backslash" unicode="\" horiz-adv-x="177" 
d="M-24 466q11 -2 12 -5t6 -13q4 -11 24 -55t49.5 -108.5t66.5 -143.5t76 -160q0 -5 -3 -5q-2 0 -6 6q-64 106 -108.5 188t-72 139.5t-41 89.5t-15.5 38q-2 4 -2.5 9t0.5 10t4.5 8t9.5 2z" />
    <glyph glyph-name="bar" unicode="|" horiz-adv-x="158" 
d="M88 489q11 7 16.5 -3.5t5.5 -18.5q0 -6 1 -41t-2 -98.5t-11.5 -156t-25.5 -215.5q0 -7 -3 -8q-2 -1 -5 3q4 90 7 177t4.5 158.5t2 119.5t0.5 60q1 11 1 14.5t9 8.5z" />
    <glyph glyph-name="multiply" unicode="&#xd7;" horiz-adv-x="275" 
d="M113 282q6 4 13 3t9 -3q1 -3 11 -21.5t23 -52.5q20 22 32.5 36.5t15.5 18.5l5 5t9 -4q6 -4 8 -13q1 -4 1 -9q1 3 -13.5 -14.5t-48.5 -49.5q8 -21 14 -45t12 -53q0 -1 0.5 -2t-1.5 -3q-3 0 -5 1l-37 86q-18 -16 -40.5 -33t-50.5 -35q0 -4 -5 -1q-1 1 -1 4q23 23 45 46
t41 43q-15 34 -26.5 56.5t-13.5 27.5t-3 6t6 6zM136 282h-1h1z" />
    <glyph glyph-name="divide" unicode="&#xf7;" horiz-adv-x="327" 
d="M282 60q3 -10 -4.5 -17t-4.5 -5q3 1 -11.5 -0.5t-44 -2t-72.5 3t-97 14.5q-3 0 -4 3q0 2 2 4q39 0 77.5 1t69.5 2.5t52.5 3t26.5 2.5h6.5t3.5 -9zM160 121q5 -1 14 -7t11 -11q-2 -14 -16 -22l-12 -7q-5 11 -7 19.5t3 19.5q5 9 7 8zM144 18q5 -1 14 -7t11 -11
q-2 -15 -16 -22l-12 -7q-5 11 -7 19.5t3 19.5q3 4 4 6.5t3 1.5z" />
    <glyph glyph-name="dollar" unicode="$" horiz-adv-x="335" 
d="M57 165q41 8 82.5 17t74.5 9q14 0 24 -1.5t15 -2.5q-6 6 -14.5 24t-17 39t-16 41t-10.5 30q-7 20 -13.5 39t-6.5 41q0 6 2.5 11t10.5 7q19 0 37 -9t32 -24t22.5 -35t8.5 -42q0 -11 -2 -19t-3 -11v-1q-2 0 -4.5 -2t-6.5 -2q-2 0 -5.5 1.5t-3.5 4.5v1v-1l3 6q4 8 4 22
q0 13 -4.5 28t-13 28t-20.5 23t-28 14q-8 1 -9.5 1h-2.5q0 -17 8 -47.5t18.5 -63.5t22 -62.5t18.5 -43.5q2 -3 2 -10t-6 -7q-11 0 -21 2t-24 2q-44 0 -83 -9t-77 -9q-9 0 -14 1t-5 6q0 3 3 7t5 6q2 1 2 2t2 1t2 -2q0 -3 -3 -6t-4 -6h7.5t11.5 2zM249 453q9 2 10.5 -5
t0.5 -12t-6 -26.5t-16.5 -60.5t-31 -95.5t-49.5 -129.5q-1 -4 -4 -4l-2 1q17 55 32.5 109t27.5 98.5t19.5 74t9.5 37.5q2 6 2.5 8.5t6.5 4.5z" />
    <glyph glyph-name="quoteright" unicode="&#x2019;" horiz-adv-x="107" 
d="M104 262q-1 0 -3 2t0 5q10 9 14 21.5t5.5 24t2.5 19.5t5 8q2 0 12.5 1t16.5 -4q7 -7 2.5 -19t-14.5 -24t-22 -22t-19 -12z" />
    <glyph glyph-name="ring" unicode="&#x2da;" horiz-adv-x="106" 
d="M44 183q5 0 15 -5t12 -10q0 -15 -13 -24l-11 -8q-6 10 -9.5 18.5t0.5 19.5q5 9 6 9zM48 166q0 -1 -0.5 -1t-0.5 -1q-2 -4 -0.5 -6.5t3.5 -6.5l4 3q4 3 4 8q-3 5 -9 5z" />
    <glyph glyph-name="dieresis" unicode="&#xa8;" horiz-adv-x="203" 
d="M79 194q5 0 15 -5t12 -10q0 -15 -13 -24l-11 -8q-6 10 -9.5 18.5t0.5 19.5q5 9 6 9zM139 194q5 0 15 -5t12 -10q0 -15 -13 -24l-11 -8q-6 10 -9.5 18.5t0.5 19.5q5 9 6 9z" />
    <glyph glyph-name="Euro" unicode="&#x20ac;" horiz-adv-x="395" 
d="M86 167q-10 11 -10 27q0 17 9 34.5t23 33.5l-42 8q-1 0 -3 2q0 3 2 3h55q5 6 11 11.5t11 10.5q-16 1 -31.5 3t-35.5 7q-2 0 -3 1q0 2 0.5 2.5t0.5 1.5q23 0 45.5 0.5t41.5 1.5q31 28 62 51.5t56.5 41.5t43 29t22.5 14h2q7 0 13.5 -2t5.5 -7q-13 -17 -24.5 -33
t-20.5 -29.5t-14.5 -22.5t-5.5 -12h-1q-1 -1 -2 -1h-4q-5 0 -9 0.5t-4 5.5q0 1 2 5t2 7v1q3 6 11 18.5t22 25.5l-3 -2q-31 -20 -61.5 -42t-59.5 -46q11 1 18.5 1t9.5 1q3 0 3.5 -0.5t2.5 -5.5t-1.5 -9t-4.5 -6q1 1 -14.5 -0.5t-38.5 -1.5l-6 -5l-16 -14q26 2 44 3t22 2h4
t2 -6q1 -3 0 -6t-2.5 -5t-3 -3t-0.5 0q-2 0 -23.5 -2t-59.5 1q-17 -16 -28.5 -33.5t-11.5 -34.5t11 -25.5t27 -12t33.5 -2.5t30.5 3q10 2 20.5 6.5t19 8.5t14 7l5.5 3q2 -1 7.5 -4t5.5 -8q0 -2 -2.5 -3.5t-4.5 -3.5t-20.5 -12t-53.5 -10q-11 0 -24 1t-26.5 4t-25.5 8.5
t-20 14.5zM221 297h1h-1z" />
    <glyph glyph-name="tilde" unicode="&#x2dc;" horiz-adv-x="207" 
d="M73 151q-8 10 -12 14.5t-5 16.5q-3 17 11 20q9 -2 10 -3q13 -4 27 -14t25 -19q14 -10 18.5 -14.5t9.5 -6.5q1 1 1 4q-1 15 0.5 15.5t6.5 5.5q2 2 3.5 -1t2.5 -7.5t1.5 -9t0.5 -7.5t-4 -9t-10 -7q-2 0 -10 4l-19 9.5t-22.5 12t-19.5 11.5q-4 0 -4.5 -3.5t-0.5 -7
t-1.5 -5.5t-8.5 1z" />
    <glyph glyph-name="OE" unicode="&#x152;" horiz-adv-x="616" 
d="M317 -41q-24 0 -51.5 10.5t-48.5 24.5q-15 -7 -33 -15.5t-38 -14.5t-42 -8t-44 5q-20 7 -35 26t-15 45q0 27 15 61.5t40 71t57.5 72t67.5 65t71 50.5t67 27h-1h-2q-8 6 -13 8t-7 10q0 5 6 8t23 3q45 0 74 -21.5t29 -73.5q0 -32 -15 -74t-40.5 -84.5t-60 -80t-73.5 -61.5
q20 -11 37 -15.5t30 -6.5q1 -1 5 -7t4 -15q0 -7 -2.5 -8.5t-4.5 -1.5zM89 -31q27 -3 58.5 9t56.5 26q-42 39 -42 94q1 27 9 51.5t18.5 46t23 39.5t23.5 31q20 24 43 44t45 34q-70 -31 -124 -75t-91.5 -89t-57.5 -85t-21 -62q0 -24 14 -42t45 -22zM233 23q35 25 66.5 62
t55.5 77t38.5 79.5t14.5 71.5q0 67 -67 67q14 -7 17 -21q0 -6 -5.5 -9.5t-10.5 -5.5q-2 -2 -23 -16.5t-46 -45.5q-38 -48 -58.5 -95t-20.5 -85q0 -29 11.5 -48.5t27.5 -30.5zM357 -17q-16 14 -16 39q0 29 15 53.5t27 40.5q-8 2 -11 2.5t-3 4.5q0 1 2 3h20q33 40 76.5 80.5
t92 78.5t98 71.5t94.5 59.5l1 1h5q3 0 8 -0.5t9.5 -2.5t7.5 -5t1 -7q-3 -4 -18 -25t-32.5 -46t-32.5 -47.5t-17 -29.5h-1q0 -1 -2 -1h-8q-8 0 -13.5 1t-5.5 7v1q0 3 1 7q2 8 5 11l1 1q4 11 17 29.5t33 38.5l-5 -3q-20 -13 -47.5 -33t-66.5 -49l-11 -8q-17 -12 -37 -28
t-41 -33.5t-41.5 -35t-36.5 -33.5q21 0 45 -0.5t44.5 -1.5t35 -2t17.5 -2l1 -1q3 0 3 -18q0 -8 -1 -10t-4 -2h-1h-10q-37 0 -72.5 6t-73.5 14q-18 -20 -33 -43.5t-15 -49.5q0 -5 2.5 -14.5t13.5 -18.5t32 -16t59 -7q22 0 44.5 5t41 12t33 14t22.5 11q0 -1 9.5 -5t9.5 -13
q0 -3 -3.5 -5.5t-6.5 -4.5q-26 -19 -62 -28t-73.5 -7.5t-71.5 12.5t-54 32z" />
    <glyph glyph-name="oe" unicode="&#x153;" horiz-adv-x="281" 
d="M294 35q-14 -9 -31 -18t-35.5 -14.5t-39 -7t-39.5 4.5q-12 4 -20 15q-14 -11 -30.5 -17t-31.5 -6q-13 0 -29 7.5t-16 26.5q0 8 3 16q-11 -7 -22.5 -11t-20.5 -7q-11 -4 -20 -6q-1 0 -3 2q0 2 4 4q20 8 41 20.5t37 28.5q26 26 42.5 36.5t22.5 10.5h1h1l2 -2q2 2 5.5 2h5.5
q15 0 23 -9.5t11 -21.5q16 14 35 24t36 10q11 0 24.5 -5t13.5 -21q0 -17 -12.5 -29.5t-30 -20.5t-36.5 -12t-32 -4q0 -4 6 -6.5t13.5 -3.5t15 -1.5t11.5 -0.5q17 0 35 3.5t32 7.5q16 5 20 8t5 3q4 0 4 -3v-2zM55 29q0 -3 3 -5.5t14 -2.5q8 0 16 1t15 6q-12 8 -16 20t-4 20
l-4 -3.5t-9.5 -9t-10 -12.5t-4.5 -14zM116 88q-4 -8 -4 -20q0 -4 2 -10.5t10 -13.5l1 1q5 13 13 24q1 5 1.5 8.5t0.5 7.5q0 8 -5.5 16t-15.5 8q0 -2 2.5 -5t2.5 -7t-6 -6h-1q0 -1 -0.5 -1.5t-0.5 -1.5zM171 57q-2 -2 -6.5 -6t-1.5 -3q4 1 14.5 6t17.5 9l10 7q6 5 12.5 11
t8.5 10q-2 0 -8.5 -2.5t-12.5 -5.5l-5 -3l-14 -10t-15 -13z" />
    <glyph glyph-name="Ydieresis" unicode="&#x178;" horiz-adv-x="213" 
d="M384 402q3 0 9 -2t6 -7q0 -3 -5 -13q-6 -13 -18.5 -30.5t-33.5 -52.5q-12 -19 -33 -53t-49.5 -75.5t-62 -88t-69.5 -91.5q-13 -16 -28 -34t-30 -33.5t-29 -26t-23 -10.5h-1q-5 0 -5.5 3.5t-1.5 6.5q0 7 0.5 8t2.5 1q4 0 3.5 -4t1.5 -6q8 0 33.5 28.5t63.5 82.5
q-3 -1 -11 -1q-23 0 -35.5 17t-19 42.5t-8 55.5t-1.5 55q0 23 0.5 48t3.5 57l3 37q0 5 0.5 13.5t-7.5 8.5q-3 0 -9.5 -2.5t-13.5 -6t-13 -6t-7 -2.5q-8 -4 -14.5 1.5t-6.5 17.5q0 4 6 8q3 2 18.5 12.5t40.5 10.5q15 0 28.5 -7t11.5 -28l-1 -20l-11 -127q-2 -20 -2.5 -41.5
t-0.5 -42.5q0 -11 1 -26.5t5 -29.5t12 -23.5t22 -9.5q5 0 10 1.5t10 3.5q24 35 50.5 75t52 80t48.5 77t41.5 67t31.5 50.5t17 26.5q1 1 5.5 3t11.5 2zM159 430q5 0 15 -5t12 -10q0 -15 -13 -24l-11 -8q-6 10 -9.5 18.5t0.5 19.5q5 9 6 9zM219 430q5 0 15 -5t12 -10
q0 -15 -13 -24l-11 -8q-6 10 -9.5 18.5t0.5 19.5q5 9 6 9z" />
    <glyph glyph-name="Agrave" unicode="&#xc0;" horiz-adv-x="405" 
d="M14 96q-1 0 -5 5.5t-4 16.5q0 6 2 7.5t7 1.5q27 3 62.5 2t69.5 -1q80 106 144 164.5t112 86t80 32.5t47 5q14 0 26 -2.5t14 -10.5q1 -5 -1 -11q-1 -3 -2 -5l-13 -19.5t-33.5 -49.5t-58.5 -84t-88 -122q4 -1 11 -1.5t33 -3.5q2 0 4.5 -1t2.5 -3q0 -4 -13 -4h-17.5
t-30.5 -1q-32 -46 -53 -75.5t-33 -46.5t-16.5 -23.5l-4.5 -6.5l-2 1q-1 1 -1 5q20 40 40.5 74.5t42.5 71.5q-41 -2 -95 -3t-99 -1q-29 -35 -52 -60.5t-39 -39.5q-9 -9 -13 -9q-3 0 -3 3q0 2 1 2.5t5 5.5q4 4 26 30.5t54 68.5h-106zM275 240q-29 -29 -55.5 -58.5t-48.5 -54.5
q30 -2 74.5 -5t100.5 -8q21 35 46.5 74.5t49.5 76.5t44.5 68t33.5 50h-8q-7 0 -24.5 -3t-43.5 -14q-38 -17 -81 -49t-88 -77zM573 441q-6 -4 -21.5 -6t-31 -0.5t-27.5 6t-12 14.5q0 8 7.5 14.5t9.5 8.5q3 3 9.5 -2t16 -12t21.5 -12.5t25 -3.5q4 -1 4 -4q0 -2 -1 -3z" />
    <glyph glyph-name="Aacute" unicode="&#xc1;" horiz-adv-x="405" 
d="M14 96q-1 0 -5 5.5t-4 16.5q0 6 2 7.5t7 1.5q27 3 62.5 2t69.5 -1q80 106 144 164.5t112 86t80 32.5t47 5q14 0 26 -2.5t14 -10.5q1 -5 -1 -11q-1 -3 -2 -5l-13 -19.5t-33.5 -49.5t-58.5 -84t-88 -122q4 -1 11 -1.5t33 -3.5q2 0 4.5 -1t2.5 -3q0 -4 -13 -4h-17.5
t-30.5 -1q-32 -46 -53 -75.5t-33 -46.5t-16.5 -23.5l-4.5 -6.5l-2 1q-1 1 -1 5q20 40 40.5 74.5t42.5 71.5q-41 -2 -95 -3t-99 -1q-29 -35 -52 -60.5t-39 -39.5q-9 -9 -13 -9q-3 0 -3 3q0 2 1 2.5t5 5.5q4 4 26 30.5t54 68.5h-106zM275 240q-29 -29 -55.5 -58.5t-48.5 -54.5
q30 -2 74.5 -5t100.5 -8q21 35 46.5 74.5t49.5 76.5t44.5 68t33.5 50h-8q-7 0 -24.5 -3t-43.5 -14q-38 -17 -81 -49t-88 -77zM469 438q-1 1 -1 3q0 3 4 4q13 -2 25 3.5t21.5 12.5t16 12t9.5 2q2 -2 9.5 -8.5t7.5 -14.5q0 -10 -12 -14.5t-27.5 -6t-31 0.5t-21.5 6z" />
    <glyph glyph-name="Acircumflex" unicode="&#xc2;" horiz-adv-x="405" 
d="M14 96q-1 0 -5 5.5t-4 16.5q0 6 2 7.5t7 1.5q27 3 62.5 2t69.5 -1q80 106 144 164.5t112 86t80 32.5t47 5q14 0 26 -2.5t14 -10.5q1 -5 -1 -11q-1 -3 -2 -5l-13 -19.5t-33.5 -49.5t-58.5 -84t-88 -122q4 -1 11 -1.5t33 -3.5q2 0 4.5 -1t2.5 -3q0 -4 -13 -4h-17.5
t-30.5 -1q-32 -46 -53 -75.5t-33 -46.5t-16.5 -23.5l-4.5 -6.5l-2 1q-1 1 -1 5q20 40 40.5 74.5t42.5 71.5q-41 -2 -95 -3t-99 -1q-29 -35 -52 -60.5t-39 -39.5q-9 -9 -13 -9q-3 0 -3 3q0 2 1 2.5t5 5.5q4 4 26 30.5t54 68.5h-106zM275 240q-29 -29 -55.5 -58.5t-48.5 -54.5
q30 -2 74.5 -5t100.5 -8q21 35 46.5 74.5t49.5 76.5t44.5 68t33.5 50h-8q-7 0 -24.5 -3t-43.5 -14q-38 -17 -81 -49t-88 -77zM449 443l-2 4q0 2 1.5 2t2.5 1q29 7 40.5 12.5t19.5 11.5q13 8 15 8q3 0 12 -5.5t28 -20.5q22 -17 29.5 -20t7.5 -7t-5 -4q-14 0 -36 5t-37 14
q-6 -3 -16 -5t-21.5 -2.5t-22 1t-16.5 5.5z" />
    <glyph glyph-name="Atilde" unicode="&#xc3;" horiz-adv-x="405" 
d="M14 96q-1 0 -5 5.5t-4 16.5q0 6 2 7.5t7 1.5q27 3 62.5 2t69.5 -1q80 106 144 164.5t112 86t80 32.5t47 5q14 0 26 -2.5t14 -10.5q1 -5 -1 -11q-1 -3 -2 -5l-13 -19.5t-33.5 -49.5t-58.5 -84t-88 -122q4 -1 11 -1.5t33 -3.5q2 0 4.5 -1t2.5 -3q0 -4 -13 -4h-17.5
t-30.5 -1q-32 -46 -53 -75.5t-33 -46.5t-16.5 -23.5l-4.5 -6.5l-2 1q-1 1 -1 5q20 40 40.5 74.5t42.5 71.5q-41 -2 -95 -3t-99 -1q-29 -35 -52 -60.5t-39 -39.5q-9 -9 -13 -9q-3 0 -3 3q0 2 1 2.5t5 5.5q4 4 26 30.5t54 68.5h-106zM275 240q-29 -29 -55.5 -58.5t-48.5 -54.5
q30 -2 74.5 -5t100.5 -8q21 35 46.5 74.5t49.5 76.5t44.5 68t33.5 50h-8q-7 0 -24.5 -3t-43.5 -14q-38 -17 -81 -49t-88 -77zM495 442q-8 10 -12 14.5t-5 16.5q-3 17 11 20q9 -2 10 -3q13 -4 27 -14t25 -19q14 -10 18.5 -14.5t9.5 -6.5q1 1 1 4q-1 15 0.5 15.5t6.5 5.5
q2 2 3.5 -1t2.5 -7.5t1.5 -9t0.5 -7.5t-4 -9t-10 -7q-2 0 -10 4l-19 9.5t-22.5 12t-19.5 11.5q-4 0 -4.5 -3.5t-0.5 -7t-1.5 -5.5t-8.5 1z" />
    <glyph glyph-name="Adieresis" unicode="&#xc4;" horiz-adv-x="405" 
d="M14 96q-1 0 -5 5.5t-4 16.5q0 6 2 7.5t7 1.5q27 3 62.5 2t69.5 -1q80 106 144 164.5t112 86t80 32.5t47 5q14 0 26 -2.5t14 -10.5q1 -5 -1 -11q-1 -3 -2 -5l-13 -19.5t-33.5 -49.5t-58.5 -84t-88 -122q4 -1 11 -1.5t33 -3.5q2 0 4.5 -1t2.5 -3q0 -4 -13 -4h-17.5
t-30.5 -1q-32 -46 -53 -75.5t-33 -46.5t-16.5 -23.5l-4.5 -6.5l-2 1q-1 1 -1 5q20 40 40.5 74.5t42.5 71.5q-41 -2 -95 -3t-99 -1q-29 -35 -52 -60.5t-39 -39.5q-9 -9 -13 -9q-3 0 -3 3q0 2 1 2.5t5 5.5q4 4 26 30.5t54 68.5h-106zM275 240q-29 -29 -55.5 -58.5t-48.5 -54.5
q30 -2 74.5 -5t100.5 -8q21 35 46.5 74.5t49.5 76.5t44.5 68t33.5 50h-8q-7 0 -24.5 -3t-43.5 -14q-38 -17 -81 -49t-88 -77zM490 473q5 0 15 -5t12 -10q0 -15 -13 -24l-11 -8q-6 10 -9.5 18.5t0.5 19.5q5 9 6 9zM550 473q5 0 15 -5t12 -10q0 -15 -13 -24l-11 -8
q-6 10 -9.5 18.5t0.5 19.5q5 9 6 9z" />
    <glyph glyph-name="Aring" unicode="&#xc5;" horiz-adv-x="405" 
d="M14 96q-1 0 -5 5.5t-4 16.5q0 6 2 7.5t7 1.5q27 3 62.5 2t69.5 -1q80 106 144 164.5t112 86t80 32.5t47 5q14 0 26 -2.5t14 -10.5q1 -5 -1 -11q-1 -3 -2 -5l-13 -19.5t-33.5 -49.5t-58.5 -84t-88 -122q4 -1 11 -1.5t33 -3.5q2 0 4.5 -1t2.5 -3q0 -4 -13 -4h-17.5
t-30.5 -1q-32 -46 -53 -75.5t-33 -46.5t-16.5 -23.5l-4.5 -6.5l-2 1q-1 1 -1 5q20 40 40.5 74.5t42.5 71.5q-41 -2 -95 -3t-99 -1q-29 -35 -52 -60.5t-39 -39.5q-9 -9 -13 -9q-3 0 -3 3q0 2 1 2.5t5 5.5q4 4 26 30.5t54 68.5h-106zM275 240q-29 -29 -55.5 -58.5t-48.5 -54.5
q30 -2 74.5 -5t100.5 -8q21 35 46.5 74.5t49.5 76.5t44.5 68t33.5 50h-8q-7 0 -24.5 -3t-43.5 -14q-38 -17 -81 -49t-88 -77zM528 476q5 0 15 -5t12 -10q0 -15 -13 -24l-11 -8q-6 10 -9.5 18.5t0.5 19.5q5 9 6 9zM532 459q0 -1 -0.5 -1t-0.5 -1q-2 -4 -0.5 -6.5t3.5 -6.5
l4 3q4 3 4 8q-3 5 -9 5z" />
    <glyph glyph-name="AE" unicode="&#xc6;" horiz-adv-x="575" 
d="M325 -17q-16 14 -16 38q-16 -22 -26.5 -36.5t-16.5 -23t-8 -12l-2 -3.5l-2 1q-1 1 -1 5q20 40 40.5 74.5t42.5 71.5q-41 -2 -95 -3t-99 -1q-29 -35 -52 -60.5t-39 -39.5q-9 -9 -13 -9q-3 0 -3 3q0 2 1 2.5t5 5.5q4 4 26 30.5t54 68.5h-106l-1 1q-1 0 -5 5.5t-4 16.5
q0 6 2 7.5t7 1.5q27 3 62.5 2t69.5 -1q80 106 144 164.5t112 86t80 32.5t47 5q14 0 26 -2.5t14 -10.5q1 -5 -1 -11q-1 -3 -2 -5q-2 -2 -8 -12t-19 -29.5t-33.5 -49.5t-50.5 -72q62 56 132 106.5t133 85.5l1 1h5q3 0 8 -0.5t9.5 -2.5t7.5 -5t1 -7q-3 -4 -18 -25t-32.5 -46
t-32.5 -47.5t-17 -29.5h-1q0 -1 -2 -1h-8q-8 0 -13.5 1t-5.5 7v1q0 3 1 7q2 8 5 11l1 1q4 11 17 29.5t33 38.5l-5 -3q-20 -13 -47.5 -33t-66.5 -49l-11 -8q-17 -12 -37 -28t-41 -33.5t-41.5 -35t-36.5 -33.5q21 0 45 -0.5t44.5 -1.5t35 -2t17.5 -2l1 -1q3 0 3 -18
q0 -8 -1 -10t-4 -2h-11q-37 0 -72.5 6t-73.5 14q-18 -20 -33 -43.5t-15 -49.5q0 -5 2.5 -14.5t13.5 -18.5t32 -16t59 -7q22 0 44.5 5t41 12t33 14t22.5 11q0 -1 9.5 -5t9.5 -13q0 -3 -3.5 -5.5t-6.5 -4.5q-26 -19 -62 -28t-73.5 -7.5t-71.5 12.5t-54 32zM275 240
q-29 -29 -55.5 -58.5t-48.5 -54.5q30 -2 74.5 -5t100.5 -8l6 9q-2 2 1 2q21 34 45 72t47 73.5t43 65t32 47.5h-8q-7 0 -24.5 -3t-43.5 -14q-38 -17 -81 -49t-88 -77z" />
    <glyph glyph-name="Ccedilla" unicode="&#xc7;" horiz-adv-x="274" 
d="M32 -17q-15 16 -15 41t13.5 51t32.5 49t40 43t36 34q49 44 97.5 81.5t88.5 65.5t67.5 45.5t35.5 22.5v1h4q8 0 19 -3.5t9 -11.5q-20 -26 -38 -51.5t-31.5 -46t-22 -34t-8.5 -16.5h-1q-1 -1 -3 -1h-7q-6 0 -13 0.5t-7 7.5v1q0 2 3 8t3 10l1 1q5 10 17.5 29t32.5 39l-4 -3
q-60 -40 -118.5 -83.5t-115.5 -92.5q-19 -17 -38.5 -34.5t-36 -36t-27 -38t-10.5 -39.5q0 -26 17 -39.5t42 -19t51.5 -4t46.5 5.5q15 3 31 9t29 12t21.5 10.5t9.5 4.5q2 -1 10.5 -4.5t8.5 -12.5q0 -3 -3 -5.5t-7 -4.5q-2 -2 -10 -7.5t-22 -11.5t-34.5 -11t-47.5 -5
q-16 0 -35.5 1.5t-39.5 6.5l-3 -7l-1 -2q2 -2 8.5 -8t6.5 -17q0 -10 -8 -18t-20 -8q-5 0 -13.5 1.5t-17 5t-15 9t-6.5 12.5q0 3 3 3q8 -2 16.5 -4.5t17.5 -2.5q10 0 12 1q2 0 2 1q-2 2 -7.5 2.5t-8.5 1.5q-2 1 -4 4q-3 4 -3 14q0 2 3.5 8.5t8.5 11.5q-28 11 -43 28zM284 2h1
l-1 -1v1z" />
    <glyph glyph-name="Egrave" unicode="&#xc8;" horiz-adv-x="286" 
d="M27 -17q-16 14 -16 39q0 29 15 53.5t27 40.5q-8 2 -11 2.5t-3 4.5q0 1 2 3h20q33 40 76.5 80.5t92 78.5t98 71.5t94.5 59.5l1 1h5q3 0 8 -0.5t9.5 -2.5t7.5 -5t1 -7q-3 -4 -18 -25t-32.5 -46t-32.5 -47.5t-17 -29.5h-1q0 -1 -2 -1h-8q-8 0 -13.5 1t-5.5 7v1q0 3 1 7
q2 8 5 11l1 1q4 11 17 29.5t33 38.5l-5 -3q-20 -13 -47.5 -33t-66.5 -49l-11 -8q-17 -12 -37 -28t-41 -33.5t-41.5 -35t-36.5 -33.5q21 0 45 -0.5t44.5 -1.5t35 -2t17.5 -2l1 -1q3 0 3 -18q0 -8 -1 -10t-4 -2h-1h-10q-37 0 -72.5 6t-73.5 14q-18 -20 -33 -43.5t-15 -49.5
q0 -5 2.5 -14.5t13.5 -18.5t32 -16t59 -7q22 0 44.5 5t41 12t33 14t22.5 11q0 -1 9.5 -5t9.5 -13q0 -3 -3.5 -5.5t-6.5 -4.5q-26 -19 -62 -28t-73.5 -7.5t-71.5 12.5t-54 32zM486 435q-6 -4 -21.5 -6t-31 -0.5t-27.5 6t-12 14.5q0 8 7.5 14.5t9.5 8.5q3 3 9.5 -2t16 -12
t21.5 -12.5t25 -3.5q4 -1 4 -4q0 -2 -1 -3z" />
    <glyph glyph-name="Eacute" unicode="&#xc9;" horiz-adv-x="286" 
d="M27 -17q-16 14 -16 39q0 29 15 53.5t27 40.5q-8 2 -11 2.5t-3 4.5q0 1 2 3h20q33 40 76.5 80.5t92 78.5t98 71.5t94.5 59.5l1 1h5q3 0 8 -0.5t9.5 -2.5t7.5 -5t1 -7q-3 -4 -18 -25t-32.5 -46t-32.5 -47.5t-17 -29.5h-1q0 -1 -2 -1h-8q-8 0 -13.5 1t-5.5 7v1q0 3 1 7
q2 8 5 11l1 1q4 11 17 29.5t33 38.5l-5 -3q-20 -13 -47.5 -33t-66.5 -49l-11 -8q-17 -12 -37 -28t-41 -33.5t-41.5 -35t-36.5 -33.5q21 0 45 -0.5t44.5 -1.5t35 -2t17.5 -2l1 -1q3 0 3 -18q0 -8 -1 -10t-4 -2h-1h-10q-37 0 -72.5 6t-73.5 14q-18 -20 -33 -43.5t-15 -49.5
q0 -5 2.5 -14.5t13.5 -18.5t32 -16t59 -7q22 0 44.5 5t41 12t33 14t22.5 11q0 -1 9.5 -5t9.5 -13q0 -3 -3.5 -5.5t-6.5 -4.5q-26 -19 -62 -28t-73.5 -7.5t-71.5 12.5t-54 32zM397 438q-1 1 -1 3q0 3 4 4q13 -2 25 3.5t21.5 12.5t16 12t9.5 2q2 -2 9.5 -8.5t7.5 -14.5
q0 -10 -12 -14.5t-27.5 -6t-31 0.5t-21.5 6z" />
    <glyph glyph-name="Ecircumflex" unicode="&#xca;" horiz-adv-x="286" 
d="M27 -17q-16 14 -16 39q0 29 15 53.5t27 40.5q-8 2 -11 2.5t-3 4.5q0 1 2 3h20q33 40 76.5 80.5t92 78.5t98 71.5t94.5 59.5l1 1h5q3 0 8 -0.5t9.5 -2.5t7.5 -5t1 -7q-3 -4 -18 -25t-32.5 -46t-32.5 -47.5t-17 -29.5h-1q0 -1 -2 -1h-8q-8 0 -13.5 1t-5.5 7v1q0 3 1 7
q2 8 5 11l1 1q4 11 17 29.5t33 38.5l-5 -3q-20 -13 -47.5 -33t-66.5 -49l-11 -8q-17 -12 -37 -28t-41 -33.5t-41.5 -35t-36.5 -33.5q21 0 45 -0.5t44.5 -1.5t35 -2t17.5 -2l1 -1q3 0 3 -18q0 -8 -1 -10t-4 -2h-1h-10q-37 0 -72.5 6t-73.5 14q-18 -20 -33 -43.5t-15 -49.5
q0 -5 2.5 -14.5t13.5 -18.5t32 -16t59 -7q22 0 44.5 5t41 12t33 14t22.5 11q0 -1 9.5 -5t9.5 -13q0 -3 -3.5 -5.5t-6.5 -4.5q-26 -19 -62 -28t-73.5 -7.5t-71.5 12.5t-54 32zM363 437l-2 4q0 2 1.5 2t2.5 1q29 7 40.5 12.5t19.5 11.5q13 8 15 8q3 0 12 -5.5t28 -20.5
q22 -17 29.5 -20t7.5 -7t-5 -4q-14 0 -36 5t-37 14q-6 -3 -16 -5t-21.5 -2.5t-22 1t-16.5 5.5z" />
    <glyph glyph-name="Edieresis" unicode="&#xcb;" horiz-adv-x="286" 
d="M27 -17q-16 14 -16 39q0 29 15 53.5t27 40.5q-8 2 -11 2.5t-3 4.5q0 1 2 3h20q33 40 76.5 80.5t92 78.5t98 71.5t94.5 59.5l1 1h5q3 0 8 -0.5t9.5 -2.5t7.5 -5t1 -7q-3 -4 -18 -25t-32.5 -46t-32.5 -47.5t-17 -29.5h-1q0 -1 -2 -1h-8q-8 0 -13.5 1t-5.5 7v1q0 3 1 7
q2 8 5 11l1 1q4 11 17 29.5t33 38.5l-5 -3q-20 -13 -47.5 -33t-66.5 -49l-11 -8q-17 -12 -37 -28t-41 -33.5t-41.5 -35t-36.5 -33.5q21 0 45 -0.5t44.5 -1.5t35 -2t17.5 -2l1 -1q3 0 3 -18q0 -8 -1 -10t-4 -2h-1h-10q-37 0 -72.5 6t-73.5 14q-18 -20 -33 -43.5t-15 -49.5
q0 -5 2.5 -14.5t13.5 -18.5t32 -16t59 -7q22 0 44.5 5t41 12t33 14t22.5 11q0 -1 9.5 -5t9.5 -13q0 -3 -3.5 -5.5t-6.5 -4.5q-26 -19 -62 -28t-73.5 -7.5t-71.5 12.5t-54 32zM403 472q5 0 15 -5t12 -10q0 -15 -13 -24l-11 -8q-6 10 -9.5 18.5t0.5 19.5q5 9 6 9zM463 472
q5 0 15 -5t12 -10q0 -15 -13 -24l-11 -8q-6 10 -9.5 18.5t0.5 19.5q5 9 6 9z" />
    <glyph glyph-name="Igrave" unicode="&#xcc;" horiz-adv-x="93" 
d="M28 -51q-19 7 -19 26q2 25 31 76q12 22 31.5 51.5t42 61t45.5 63t42.5 56.5t32.5 41.5t16 19.5l1 1h6q3 0 12.5 -2.5t9.5 -8.5q0 -4 -3 -8l-1 -1q-18 -24 -44 -57t-54.5 -69t-56.5 -72.5t-50.5 -68t-36.5 -55t-14 -33.5q0 -5 3.5 -9t6.5 -5q2 0 4 -2q1 -1 1 -2
q0 -2 -2 -2.5t-3 -0.5h-1zM345 381q-6 -4 -21.5 -6t-31 -0.5t-27.5 6t-12 14.5q0 8 7.5 14.5t9.5 8.5q3 3 9.5 -2t16 -12t21.5 -12.5t25 -3.5q4 -1 4 -4q0 -2 -1 -3z" />
    <glyph glyph-name="Iacute" unicode="&#xcd;" horiz-adv-x="93" 
d="M28 -51q-19 7 -19 26q2 25 31 76q12 22 31.5 51.5t42 61t45.5 63t42.5 56.5t32.5 41.5t16 19.5l1 1h6q3 0 12.5 -2.5t9.5 -8.5q0 -4 -3 -8l-1 -1q-18 -24 -44 -57t-54.5 -69t-56.5 -72.5t-50.5 -68t-36.5 -55t-14 -33.5q0 -5 3.5 -9t6.5 -5q2 0 4 -2q1 -1 1 -2
q0 -2 -2 -2.5t-3 -0.5h-1zM248 375q-1 1 -1 3q0 3 4 4q13 -2 25 3.5t21.5 12.5t16 12t9.5 2q2 -2 9.5 -8.5t7.5 -14.5q0 -10 -12 -14.5t-27.5 -6t-31 0.5t-21.5 6z" />
    <glyph glyph-name="Icircumflex" unicode="&#xce;" horiz-adv-x="93" 
d="M28 -51q-19 7 -19 26q2 25 31 76q12 22 31.5 51.5t42 61t45.5 63t42.5 56.5t32.5 41.5t16 19.5l1 1h6q3 0 12.5 -2.5t9.5 -8.5q0 -4 -3 -8l-1 -1q-18 -24 -44 -57t-54.5 -69t-56.5 -72.5t-50.5 -68t-36.5 -55t-14 -33.5q0 -5 3.5 -9t6.5 -5q2 0 4 -2q1 -1 1 -2
q0 -2 -2 -2.5t-3 -0.5h-1zM213 375l-2 4q0 2 1.5 2t2.5 1q29 7 40.5 12.5t19.5 11.5q13 8 15 8q3 0 12 -5.5t28 -20.5q22 -17 29.5 -20t7.5 -7t-5 -4q-14 0 -36 5t-37 14q-6 -3 -16 -5t-21.5 -2.5t-22 1t-16.5 5.5z" />
    <glyph glyph-name="Idieresis" unicode="&#xcf;" horiz-adv-x="93" 
d="M28 -51q-19 7 -19 26q2 25 31 76q12 22 31.5 51.5t42 61t45.5 63t42.5 56.5t32.5 41.5t16 19.5l1 1h6q3 0 12.5 -2.5t9.5 -8.5q0 -4 -3 -8l-1 -1q-18 -24 -44 -57t-54.5 -69t-56.5 -72.5t-50.5 -68t-36.5 -55t-14 -33.5q0 -5 3.5 -9t6.5 -5q2 0 4 -2q1 -1 1 -2
q0 -2 -2 -2.5t-3 -0.5h-1zM244 407q5 0 15 -5t12 -10q0 -15 -13 -24l-11 -8q-6 10 -9.5 18.5t0.5 19.5q5 9 6 9zM304 407q5 0 15 -5t12 -10q0 -15 -13 -24l-11 -8q-6 10 -9.5 18.5t0.5 19.5q5 9 6 9z" />
    <glyph glyph-name="Eth" unicode="&#xd0;" horiz-adv-x="542" 
d="M18 12q-1 1 -2 4q-2 6 -2 11q0 4 1.5 10t6.5 6q4 0 9 -3l2 -1l18 -8q25 -11 53 -24.5t56 -15.5l12 20t22 36t29.5 47.5t34.5 55.5q-20 2 -42.5 5.5t-47.5 8.5q-3 0 -4 3q0 2 2 4q27 0 54 0.5t52 1.5q19 30 38.5 60.5t37.5 58t33.5 51t26.5 39.5q-6 0 -11.5 0.5t-11.5 0.5
q-40 0 -69.5 -5.5t-50 -12.5t-31.5 -13t-13 -7l-1 -1h-13q-5 0 -13 1.5t-8 7.5q0 4 3 7q-1 -1 10.5 7.5t36.5 19.5t64 20t93 9t91 -12.5t59.5 -33.5t32 -50t9.5 -62q0 -64 -27 -121.5t-74 -100.5t-109.5 -67t-132.5 -20q-26 2 -47.5 4t-41.5 6q-2 -2 -2 -3t-1 -2t-1 -2
l-1 -2q-1 -4 -4 -4l-2 1q0 1 -0.5 1t-0.5 1q0 2 1 4.5l3 7.5q-5 1 -11 3t-17 5.5t-28 10t-45 18.5q-11 5 -17 9t-8 4h-1v1zM402 171q2 -10 -3 -16q-3 -4 -6 -6q4 2 -24 -1t-82 0q-32 -45 -62 -86.5t-53 -73.5q34 -10 70 -10.5t69 5t60 14t43 16.5q30 19 55 45t44 56.5t30 64
t13 67.5q0 58 -25.5 87.5t-85.5 45.5q-1 -3 -12.5 -21.5t-31 -46.5t-44.5 -63.5t-52 -73.5q35 2 58 3.5t29 2.5h6.5t3.5 -9z" />
    <glyph glyph-name="Ntilde" unicode="&#xd1;" horiz-adv-x="372" 
d="M1 -53q-1 1 -1 5q1 1 3 6v1q2 4 2 5l1 1q5 11 28.5 50t57 91.5t72.5 112t76 111.5q-30 -15 -57.5 -25.5t-49.5 -10.5h-6t-6 1q-1 1 -2.5 5t-1.5 12q0 10 2 12t5 2h1q33 0 66.5 12.5t68.5 32.5q4 2 9.5 8t10.5 12t9 11l4 5l1 1q1 0 3 1q2 0 4 0.5t4 0.5q5 0 12.5 -2.5
t6.5 -7.5q0 -4 -5.5 -13t-12.5 -19.5t-14.5 -21l-12.5 -17.5q6 4 17 11t26 14t33.5 12t39.5 5q30 0 44 -18t14 -41q0 -26 -10.5 -55t-26 -57.5t-33.5 -54.5t-34 -46q-2 -2 -15 -19.5t-24 -37t-12 -35.5t22 -16q13 0 24 4.5t17 7.5q17 8 19 8t3 -2.5t-2 -3.5
q-14 -9 -30.5 -17.5t-35.5 -8.5q-8 0 -18 5.5t-15 19.5q-1 4 -1 10q0 13 9.5 32t23 39.5t27.5 40.5t23 35q9 16 19.5 35.5t19 39t14 38.5t5.5 35q0 17 -6.5 23t-23.5 6q-18 -2 -41 -11t-50 -23q-24 -15 -40 -27.5t-26 -22t-14.5 -15t-5.5 -5.5v-1q-22 -27 -47.5 -61
t-51.5 -69l-23 -31q-23 -30 -38 -51.5t-24.5 -35.5t-14.5 -22t-8 -11h-1v-2h-1q-1 -4 -3 -4h-1zM372 423q-8 10 -12 14.5t-5 16.5q-3 17 11 20q9 -2 10 -3q13 -4 27 -14t25 -19q14 -10 18.5 -14.5t9.5 -6.5q1 1 1 4q-1 15 0.5 15.5t6.5 5.5q2 2 3.5 -1t2.5 -7.5t1.5 -9
t0.5 -7.5t-4 -9t-10 -7q-2 0 -10 4l-19 9.5t-22.5 12t-19.5 11.5q-4 0 -4.5 -3.5t-0.5 -7t-1.5 -5.5t-8.5 1z" />
    <glyph glyph-name="Ograve" unicode="&#xd2;" horiz-adv-x="330" 
d="M317 -41q-24 0 -51.5 10.5t-48.5 24.5q-15 -7 -33 -15.5t-38 -14.5t-42 -8t-44 5q-20 7 -35 26t-15 45q0 27 15 61.5t40 71t57.5 72t67.5 65t71 50.5t67 27h-1h-2q-8 6 -13 8t-7 10q0 5 6 8t23 3q45 0 74 -21.5t29 -73.5q0 -32 -15 -74t-40.5 -84.5t-60 -80t-73.5 -61.5
q20 -11 37 -15.5t30 -6.5q1 -1 5 -7t4 -15q0 -7 -2.5 -8.5t-4.5 -1.5zM89 -31q27 -3 58.5 9t56.5 26q-42 39 -42 94q1 27 9 51.5t18.5 46t23 39.5t23.5 31q20 24 43 44t45 34q-70 -31 -124 -75t-91.5 -89t-57.5 -85t-21 -62q0 -24 14 -42t45 -22zM233 23q35 25 66.5 62
t55.5 77t38.5 79.5t14.5 71.5q0 67 -67 67q14 -7 17 -21q0 -6 -5.5 -9.5t-10.5 -5.5q-2 -2 -23 -16.5t-46 -45.5q-38 -48 -58.5 -95t-20.5 -85q0 -29 11.5 -48.5t27.5 -30.5zM445 428q-6 -4 -21.5 -6t-31 -0.5t-27.5 6t-12 14.5q0 8 7.5 14.5t9.5 8.5q3 3 9.5 -2t16 -12
t21.5 -12.5t25 -3.5q4 -1 4 -4q0 -2 -1 -3z" />
    <glyph glyph-name="Oacute" unicode="&#xd3;" horiz-adv-x="330" 
d="M317 -41q-24 0 -51.5 10.5t-48.5 24.5q-15 -7 -33 -15.5t-38 -14.5t-42 -8t-44 5q-20 7 -35 26t-15 45q0 27 15 61.5t40 71t57.5 72t67.5 65t71 50.5t67 27h-1h-2q-8 6 -13 8t-7 10q0 5 6 8t23 3q45 0 74 -21.5t29 -73.5q0 -32 -15 -74t-40.5 -84.5t-60 -80t-73.5 -61.5
q20 -11 37 -15.5t30 -6.5q1 -1 5 -7t4 -15q0 -7 -2.5 -8.5t-4.5 -1.5zM89 -31q27 -3 58.5 9t56.5 26q-42 39 -42 94q1 27 9 51.5t18.5 46t23 39.5t23.5 31q20 24 43 44t45 34q-70 -31 -124 -75t-91.5 -89t-57.5 -85t-21 -62q0 -24 14 -42t45 -22zM233 23q35 25 66.5 62
t55.5 77t38.5 79.5t14.5 71.5q0 67 -67 67q14 -7 17 -21q0 -6 -5.5 -9.5t-10.5 -5.5q-2 -2 -23 -16.5t-46 -45.5q-38 -48 -58.5 -95t-20.5 -85q0 -29 11.5 -48.5t27.5 -30.5zM358 434q-1 1 -1 3q0 3 4 4q13 -2 25 3.5t21.5 12.5t16 12t9.5 2q2 -2 9.5 -8.5t7.5 -14.5
q0 -10 -12 -14.5t-27.5 -6t-31 0.5t-21.5 6z" />
    <glyph glyph-name="Ocircumflex" unicode="&#xd4;" horiz-adv-x="330" 
d="M317 -41q-24 0 -51.5 10.5t-48.5 24.5q-15 -7 -33 -15.5t-38 -14.5t-42 -8t-44 5q-20 7 -35 26t-15 45q0 27 15 61.5t40 71t57.5 72t67.5 65t71 50.5t67 27h-1h-2q-8 6 -13 8t-7 10q0 5 6 8t23 3q45 0 74 -21.5t29 -73.5q0 -32 -15 -74t-40.5 -84.5t-60 -80t-73.5 -61.5
q20 -11 37 -15.5t30 -6.5q1 -1 5 -7t4 -15q0 -7 -2.5 -8.5t-4.5 -1.5zM89 -31q27 -3 58.5 9t56.5 26q-42 39 -42 94q1 27 9 51.5t18.5 46t23 39.5t23.5 31q20 24 43 44t45 34q-70 -31 -124 -75t-91.5 -89t-57.5 -85t-21 -62q0 -24 14 -42t45 -22zM233 23q35 25 66.5 62
t55.5 77t38.5 79.5t14.5 71.5q0 67 -67 67q14 -7 17 -21q0 -6 -5.5 -9.5t-10.5 -5.5q-2 -2 -23 -16.5t-46 -45.5q-38 -48 -58.5 -95t-20.5 -85q0 -29 11.5 -48.5t27.5 -30.5zM329 440l-2 4q0 2 1.5 2t2.5 1q29 7 40.5 12.5t19.5 11.5q13 8 15 8q3 0 12 -5.5t28 -20.5
q22 -17 29.5 -20t7.5 -7t-5 -4q-14 0 -36 5t-37 14q-6 -3 -16 -5t-21.5 -2.5t-22 1t-16.5 5.5z" />
    <glyph glyph-name="Otilde" unicode="&#xd5;" horiz-adv-x="330" 
d="M317 -41q-24 0 -51.5 10.5t-48.5 24.5q-15 -7 -33 -15.5t-38 -14.5t-42 -8t-44 5q-20 7 -35 26t-15 45q0 27 15 61.5t40 71t57.5 72t67.5 65t71 50.5t67 27h-1h-2q-8 6 -13 8t-7 10q0 5 6 8t23 3q45 0 74 -21.5t29 -73.5q0 -32 -15 -74t-40.5 -84.5t-60 -80t-73.5 -61.5
q20 -11 37 -15.5t30 -6.5q1 -1 5 -7t4 -15q0 -7 -2.5 -8.5t-4.5 -1.5zM89 -31q27 -3 58.5 9t56.5 26q-42 39 -42 94q1 27 9 51.5t18.5 46t23 39.5t23.5 31q20 24 43 44t45 34q-70 -31 -124 -75t-91.5 -89t-57.5 -85t-21 -62q0 -24 14 -42t45 -22zM233 23q35 25 66.5 62
t55.5 77t38.5 79.5t14.5 71.5q0 67 -67 67q14 -7 17 -21q0 -6 -5.5 -9.5t-10.5 -5.5q-2 -2 -23 -16.5t-46 -45.5q-38 -48 -58.5 -95t-20.5 -85q0 -29 11.5 -48.5t27.5 -30.5zM368 432q-8 10 -12 14.5t-5 16.5q-3 17 11 20q9 -2 10 -3q13 -4 27 -14t25 -19q14 -10 18.5 -14.5
t9.5 -6.5q1 1 1 4q-1 15 0.5 15.5t6.5 5.5q2 2 3.5 -1t2.5 -7.5t1.5 -9t0.5 -7.5t-4 -9t-10 -7q-2 0 -10 4l-19 9.5t-22.5 12t-19.5 11.5q-4 0 -4.5 -3.5t-0.5 -7t-1.5 -5.5t-8.5 1z" />
    <glyph glyph-name="Odieresis" unicode="&#xd6;" horiz-adv-x="330" 
d="M317 -41q-24 0 -51.5 10.5t-48.5 24.5q-15 -7 -33 -15.5t-38 -14.5t-42 -8t-44 5q-20 7 -35 26t-15 45q0 27 15 61.5t40 71t57.5 72t67.5 65t71 50.5t67 27h-1h-2q-8 6 -13 8t-7 10q0 5 6 8t23 3q45 0 74 -21.5t29 -73.5q0 -32 -15 -74t-40.5 -84.5t-60 -80t-73.5 -61.5
q20 -11 37 -15.5t30 -6.5q1 -1 5 -7t4 -15q0 -7 -2.5 -8.5t-4.5 -1.5zM89 -31q27 -3 58.5 9t56.5 26q-42 39 -42 94q1 27 9 51.5t18.5 46t23 39.5t23.5 31q20 24 43 44t45 34q-70 -31 -124 -75t-91.5 -89t-57.5 -85t-21 -62q0 -24 14 -42t45 -22zM233 23q35 25 66.5 62
t55.5 77t38.5 79.5t14.5 71.5q0 67 -67 67q14 -7 17 -21q0 -6 -5.5 -9.5t-10.5 -5.5q-2 -2 -23 -16.5t-46 -45.5q-38 -48 -58.5 -95t-20.5 -85q0 -29 11.5 -48.5t27.5 -30.5zM368 469q5 0 15 -5t12 -10q0 -15 -13 -24l-11 -8q-6 10 -9.5 18.5t0.5 19.5q5 9 6 9zM428 469
q5 0 15 -5t12 -10q0 -15 -13 -24l-11 -8q-6 10 -9.5 18.5t0.5 19.5q5 9 6 9z" />
    <glyph glyph-name="Oslash" unicode="&#xd8;" horiz-adv-x="330" 
d="M317 -41q-24 0 -51.5 10.5t-48.5 24.5q-15 -7 -33 -15.5t-38 -14.5t-42 -8t-44 5l-8 3l-14 -13q-7 -5 -9 -5q-6 1 -4 6l16 19q-14 10 -22.5 25.5t-8.5 35.5q0 27 15 61.5t40 71t57.5 72t67.5 65t71 50.5t67 27h-3q-8 6 -13 8t-7 10q0 5 6 8t23 3q37 0 63 -15l10 13
q8 9 11 12t17 2q17 -1 16.5 -13t-5.5 -20l-19 -26q10 -19 10 -48q0 -32 -15 -74t-40.5 -84.5t-60 -80t-73.5 -61.5q20 -11 37 -15.5t30 -6.5q1 -1 5 -7t4 -15q0 -7 -2.5 -8.5t-4.5 -1.5zM233 23q35 25 66.5 62t55.5 77t38.5 79.5t14.5 71.5q0 6 -0.5 11.5t-1.5 10.5
q-29 -36 -80.5 -94.5t-131.5 -139.5q0 -28 11.5 -47.5t27.5 -30.5zM52 -17q29 32 56.5 64t54.5 64q3 25 11 47.5t18.5 42.5t22 36.5t21.5 28.5q20 24 43 44t45 34q-70 -31 -124 -75t-91.5 -89t-57.5 -85t-21 -62q0 -32 22 -50zM89 -31q27 -3 58.5 9t56.5 26q-31 28 -40 68
q-23 -23 -47.5 -47t-52.5 -49q5 -2 11 -4t14 -3zM203 159q59 69 105 124.5t72 87.5q-15 9 -39 9q14 -7 17 -21q0 -6 -5.5 -9.5t-10.5 -5.5q-2 -2 -23 -16.5t-46 -45.5q-26 -32 -43 -63t-27 -60z" />
    <glyph glyph-name="Ugrave" unicode="&#xd9;" horiz-adv-x="314" 
d="M312 -8l5 3q3 0 3 -3q0 -4 -6.5 -8.5t-16.5 -8.5t-21.5 -6.5t-20.5 -2.5q-15 0 -29 6t-14 25q0 15 8.5 32.5t17.5 33.5q-14 -11 -32 -22t-37.5 -19.5t-39 -14t-35.5 -5.5h-2q-21 0 -33.5 7t-20 18t-10 26t-2.5 31q3 31 13.5 59.5t22.5 52.5t23 42.5t17 29.5
q-13 -6 -31 -13l-42 -16q-4 -2 -4 -1.5t-1 0.5q-4 0 -4 4q9 7 25 18t33.5 23.5t35.5 27.5t32 31q3 3 8 4.5t10.5 0t9.5 -4.5t4 -9q0 -5 -8 -19t-15 -24l-15 -23q-10 -15 -22 -37.5t-29 -53.5q-9 -23 -21.5 -50t-12.5 -62q0 -23 14 -31t33 -8q14 0 36 5q30 8 51.5 18.5
t36.5 21.5t24 22t14 19q16 25 38 57.5t46 66t48 66.5t43.5 59.5t33 44t17.5 21.5q1 0 3.5 1t7.5 1h1q6 0 12.5 -3.5t6.5 -8.5q0 -3 -7 -11q-5 -6 -12.5 -15.5t-20 -25t-30 -38.5t-41.5 -57q-15 -20 -34 -45t-39.5 -52.5t-41 -57t-38.5 -57.5l-1 -1q-9 -15 -18.5 -32
t-9.5 -31q0 -9 11.5 -12t23.5 -3q23 0 35.5 7.5t13.5 6.5zM352 424q-6 -4 -21.5 -6t-31 -0.5t-27.5 6t-12 14.5q0 8 7.5 14.5t9.5 8.5q3 3 9.5 -2t16 -12t21.5 -12.5t25 -3.5q4 -1 4 -4q0 -2 -1 -3z" />
    <glyph glyph-name="Uacute" unicode="&#xda;" horiz-adv-x="314" 
d="M312 -8l5 3q3 0 3 -3q0 -4 -6.5 -8.5t-16.5 -8.5t-21.5 -6.5t-20.5 -2.5q-15 0 -29 6t-14 25q0 15 8.5 32.5t17.5 33.5q-14 -11 -32 -22t-37.5 -19.5t-39 -14t-35.5 -5.5h-2q-21 0 -33.5 7t-20 18t-10 26t-2.5 31q3 31 13.5 59.5t22.5 52.5t23 42.5t17 29.5
q-13 -6 -31 -13l-42 -16q-4 -2 -4 -1.5t-1 0.5q-4 0 -4 4q9 7 25 18t33.5 23.5t35.5 27.5t32 31q3 3 8 4.5t10.5 0t9.5 -4.5t4 -9q0 -5 -8 -19t-15 -24l-15 -23q-10 -15 -22 -37.5t-29 -53.5q-9 -23 -21.5 -50t-12.5 -62q0 -23 14 -31t33 -8q14 0 36 5q30 8 51.5 18.5
t36.5 21.5t24 22t14 19q16 25 38 57.5t46 66t48 66.5t43.5 59.5t33 44t17.5 21.5q1 0 3.5 1t7.5 1h1q6 0 12.5 -3.5t6.5 -8.5q0 -3 -7 -11q-5 -6 -12.5 -15.5t-20 -25t-30 -38.5t-41.5 -57q-15 -20 -34 -45t-39.5 -52.5t-41 -57t-38.5 -57.5l-1 -1q-9 -15 -18.5 -32
t-9.5 -31q0 -9 11.5 -12t23.5 -3q23 0 35.5 7.5t13.5 6.5zM273 425q-1 1 -1 3q0 3 4 4q13 -2 25 3.5t21.5 12.5t16 12t9.5 2q2 -2 9.5 -8.5t7.5 -14.5q0 -10 -12 -14.5t-27.5 -6t-31 0.5t-21.5 6z" />
    <glyph glyph-name="Ucircumflex" unicode="&#xdb;" horiz-adv-x="314" 
d="M312 -8l5 3q3 0 3 -3q0 -4 -6.5 -8.5t-16.5 -8.5t-21.5 -6.5t-20.5 -2.5q-15 0 -29 6t-14 25q0 15 8.5 32.5t17.5 33.5q-14 -11 -32 -22t-37.5 -19.5t-39 -14t-35.5 -5.5h-2q-21 0 -33.5 7t-20 18t-10 26t-2.5 31q3 31 13.5 59.5t22.5 52.5t23 42.5t17 29.5
q-13 -6 -31 -13l-42 -16q-4 -2 -4 -1.5t-1 0.5q-4 0 -4 4q9 7 25 18t33.5 23.5t35.5 27.5t32 31q3 3 8 4.5t10.5 0t9.5 -4.5t4 -9q0 -5 -8 -19t-15 -24l-15 -23q-10 -15 -22 -37.5t-29 -53.5q-9 -23 -21.5 -50t-12.5 -62q0 -23 14 -31t33 -8q14 0 36 5q30 8 51.5 18.5
t36.5 21.5t24 22t14 19q16 25 38 57.5t46 66t48 66.5t43.5 59.5t33 44t17.5 21.5q1 0 3.5 1t7.5 1h1q6 0 12.5 -3.5t6.5 -8.5q0 -3 -7 -11q-5 -6 -12.5 -15.5t-20 -25t-30 -38.5t-41.5 -57q-15 -20 -34 -45t-39.5 -52.5t-41 -57t-38.5 -57.5l-1 -1q-9 -15 -18.5 -32
t-9.5 -31q0 -9 11.5 -12t23.5 -3q23 0 35.5 7.5t13.5 6.5zM236 429l-2 4q0 2 1.5 2t2.5 1q29 7 40.5 12.5t19.5 11.5q13 8 15 8q3 0 12 -5.5t28 -20.5q22 -17 29.5 -20t7.5 -7t-5 -4q-14 0 -36 5t-37 14q-6 -3 -16 -5t-21.5 -2.5t-22 1t-16.5 5.5z" />
    <glyph glyph-name="Udieresis" unicode="&#xdc;" horiz-adv-x="314" 
d="M312 -8l5 3q3 0 3 -3q0 -4 -6.5 -8.5t-16.5 -8.5t-21.5 -6.5t-20.5 -2.5q-15 0 -29 6t-14 25q0 15 8.5 32.5t17.5 33.5q-14 -11 -32 -22t-37.5 -19.5t-39 -14t-35.5 -5.5h-2q-21 0 -33.5 7t-20 18t-10 26t-2.5 31q3 31 13.5 59.5t22.5 52.5t23 42.5t17 29.5
q-13 -6 -31 -13l-42 -16q-4 -2 -4 -1.5t-1 0.5q-4 0 -4 4q9 7 25 18t33.5 23.5t35.5 27.5t32 31q3 3 8 4.5t10.5 0t9.5 -4.5t4 -9q0 -5 -8 -19t-15 -24l-15 -23q-10 -15 -22 -37.5t-29 -53.5q-9 -23 -21.5 -50t-12.5 -62q0 -23 14 -31t33 -8q14 0 36 5q30 8 51.5 18.5
t36.5 21.5t24 22t14 19q16 25 38 57.5t46 66t48 66.5t43.5 59.5t33 44t17.5 21.5q1 0 3.5 1t7.5 1h1q6 0 12.5 -3.5t6.5 -8.5q0 -3 -7 -11q-5 -6 -12.5 -15.5t-20 -25t-30 -38.5t-41.5 -57q-15 -20 -34 -45t-39.5 -52.5t-41 -57t-38.5 -57.5l-1 -1q-9 -15 -18.5 -32
t-9.5 -31q0 -9 11.5 -12t23.5 -3q23 0 35.5 7.5t13.5 6.5zM274 466q5 0 15 -5t12 -10q0 -15 -13 -24l-11 -8q-6 10 -9.5 18.5t0.5 19.5q5 9 6 9zM334 466q5 0 15 -5t12 -10q0 -15 -13 -24l-11 -8q-6 10 -9.5 18.5t0.5 19.5q5 9 6 9z" />
    <glyph glyph-name="Yacute" unicode="&#xdd;" horiz-adv-x="213" 
d="M384 402q3 0 9 -2t6 -7q0 -3 -5 -13q-6 -13 -18.5 -30.5t-33.5 -52.5q-12 -19 -33 -53t-49.5 -75.5t-62 -88t-69.5 -91.5q-13 -16 -28 -34t-30 -33.5t-29 -26t-23 -10.5h-1q-5 0 -5.5 3.5t-1.5 6.5q0 7 0.5 8t2.5 1q4 0 3.5 -4t1.5 -6q8 0 33.5 28.5t63.5 82.5
q-3 -1 -11 -1q-23 0 -35.5 17t-19 42.5t-8 55.5t-1.5 55q0 23 0.5 48t3.5 57l3 37q0 5 0.5 13.5t-7.5 8.5q-3 0 -9.5 -2.5t-13.5 -6t-13 -6t-7 -2.5q-8 -4 -14.5 1.5t-6.5 17.5q0 4 6 8q3 2 18.5 12.5t40.5 10.5q15 0 28.5 -7t11.5 -28l-1 -20l-11 -127q-2 -20 -2.5 -41.5
t-0.5 -42.5q0 -11 1 -26.5t5 -29.5t12 -23.5t22 -9.5q5 0 10 1.5t10 3.5q24 35 50.5 75t52 80t48.5 77t41.5 67t31.5 50.5t17 26.5q1 1 5.5 3t11.5 2zM169 429q-1 1 -1 3q0 3 4 4q13 -2 25 3.5t21.5 12.5t16 12t9.5 2q2 -2 9.5 -8.5t7.5 -14.5q0 -10 -12 -14.5t-27.5 -6
t-31 0.5t-21.5 6z" />
    <glyph glyph-name="agrave" unicode="&#xe0;" 
d="M12 -2q-13 0 -19.5 11t-4.5 23q3 22 16 39t30.5 28.5t37 17.5t35.5 6q9 0 22 -5t13 -13q0 -3 -5 -8.5t-8 -9.5q0 -1 -4 -6.5t-9.5 -13t-9.5 -16t-4 -16.5q0 -14 15 -14q12 1 27 6l24 8l14 5q5 2 4.5 2t1.5 0q3 0 3 -4l-1 -1l-4 -3q-1 -1 -7.5 -6.5t-17 -11.5t-23.5 -11
t-27 -5q-13 0 -21.5 8t-12.5 21q-14 -9 -29.5 -20t-35.5 -11zM20 37q-2 -2 -3.5 -6t0.5 -6q1 -2 11 2q20 7 30.5 14t16.5 15t10 16t10 17q-11 0 -31 -10t-44 -42zM168 160q-6 -4 -21.5 -6t-31 -0.5t-27.5 6t-12 14.5q0 8 7.5 14.5t9.5 8.5q3 3 9.5 -2t16 -12t21.5 -12.5
t25 -3.5q4 -1 4 -4q0 -2 -1 -3z" />
    <glyph glyph-name="aacute" unicode="&#xe1;" 
d="M12 -2q-13 0 -19.5 11t-4.5 23q3 22 16 39t30.5 28.5t37 17.5t35.5 6q9 0 22 -5t13 -13q0 -3 -5 -8.5t-8 -9.5q0 -1 -4 -6.5t-9.5 -13t-9.5 -16t-4 -16.5q0 -14 15 -14q12 1 27 6l24 8l14 5q5 2 4.5 2t1.5 0q3 0 3 -4l-1 -1l-4 -3q-1 -1 -7.5 -6.5t-17 -11.5t-23.5 -11
t-27 -5q-13 0 -21.5 8t-12.5 21q-14 -9 -29.5 -20t-35.5 -11zM20 37q-2 -2 -3.5 -6t0.5 -6q1 -2 11 2q20 7 30.5 14t16.5 15t10 16t10 17q-11 0 -31 -10t-44 -42zM77 160q-1 1 -1 3q0 3 4 4q13 -2 25 3.5t21.5 12.5t16 12t9.5 2q2 -2 9.5 -8.5t7.5 -14.5q0 -10 -12 -14.5
t-27.5 -6t-31 0.5t-21.5 6z" />
    <glyph glyph-name="acircumflex" unicode="&#xe2;" 
d="M12 -2q-13 0 -19.5 11t-4.5 23q3 22 16 39t30.5 28.5t37 17.5t35.5 6q9 0 22 -5t13 -13q0 -3 -5 -8.5t-8 -9.5q0 -1 -4 -6.5t-9.5 -13t-9.5 -16t-4 -16.5q0 -14 15 -14q12 1 27 6l24 8l14 5q5 2 4.5 2t1.5 0q3 0 3 -4l-1 -1l-4 -3q-1 -1 -7.5 -6.5t-17 -11.5t-23.5 -11
t-27 -5q-13 0 -21.5 8t-12.5 21q-14 -9 -29.5 -20t-35.5 -11zM20 37q-2 -2 -3.5 -6t0.5 -6q1 -2 11 2q20 7 30.5 14t16.5 15t10 16t10 17q-11 0 -31 -10t-44 -42zM42 160l-2 4q0 2 1.5 2t2.5 1q29 7 40.5 12.5t19.5 11.5q13 8 15 8q3 0 12 -5.5t28 -20.5q22 -17 29.5 -20
t7.5 -7t-5 -4q-14 0 -36 5t-37 14q-6 -3 -16 -5t-21.5 -2.5t-22 1t-16.5 5.5z" />
    <glyph glyph-name="atilde" unicode="&#xe3;" 
d="M12 -2q-13 0 -19.5 11t-4.5 23q3 22 16 39t30.5 28.5t37 17.5t35.5 6q9 0 22 -5t13 -13q0 -3 -5 -8.5t-8 -9.5q0 -1 -4 -6.5t-9.5 -13t-9.5 -16t-4 -16.5q0 -14 15 -14q12 1 27 6l24 8l14 5q5 2 4.5 2t1.5 0q3 0 3 -4l-1 -1l-4 -3q-1 -1 -7.5 -6.5t-17 -11.5t-23.5 -11
t-27 -5q-13 0 -21.5 8t-12.5 21q-14 -9 -29.5 -20t-35.5 -11zM20 37q-2 -2 -3.5 -6t0.5 -6q1 -2 11 2q20 7 30.5 14t16.5 15t10 16t10 17q-11 0 -31 -10t-44 -42zM83 151q-8 10 -12 14.5t-5 16.5q-3 17 11 20q9 -2 10 -3q13 -4 27 -14t25 -19q14 -10 18.5 -14.5t9.5 -6.5
q1 1 1 4q-1 15 0.5 15.5t6.5 5.5q2 2 3.5 -1t2.5 -7.5t1.5 -9t0.5 -7.5t-4 -9t-10 -7q-2 0 -10 4l-19 9.5t-22.5 12t-19.5 11.5q-4 0 -4.5 -3.5t-0.5 -7t-1.5 -5.5t-8.5 1z" />
    <glyph glyph-name="adieresis" unicode="&#xe4;" 
d="M12 -2q-13 0 -19.5 11t-4.5 23q3 22 16 39t30.5 28.5t37 17.5t35.5 6q9 0 22 -5t13 -13q0 -3 -5 -8.5t-8 -9.5q0 -1 -4 -6.5t-9.5 -13t-9.5 -16t-4 -16.5q0 -14 15 -14q12 1 27 6l24 8l14 5q5 2 4.5 2t1.5 0q3 0 3 -4l-1 -1l-4 -3q-1 -1 -7.5 -6.5t-17 -11.5t-23.5 -11
t-27 -5q-13 0 -21.5 8t-12.5 21q-14 -9 -29.5 -20t-35.5 -11zM20 37q-2 -2 -3.5 -6t0.5 -6q1 -2 11 2q20 7 30.5 14t16.5 15t10 16t10 17q-11 0 -31 -10t-44 -42zM85 194q5 0 15 -5t12 -10q0 -15 -13 -24l-11 -8q-6 10 -9.5 18.5t0.5 19.5q5 9 6 9zM145 194q5 0 15 -5
t12 -10q0 -15 -13 -24l-11 -8q-6 10 -9.5 18.5t0.5 19.5q5 9 6 9z" />
    <glyph glyph-name="aring" unicode="&#xe5;" 
d="M12 -2q-13 0 -19.5 11t-4.5 23q3 22 16 39t30.5 28.5t37 17.5t35.5 6q9 0 22 -5t13 -13q0 -3 -5 -8.5t-8 -9.5q0 -1 -4 -6.5t-9.5 -13t-9.5 -16t-4 -16.5q0 -14 15 -14q12 1 27 6l24 8l14 5q5 2 4.5 2t1.5 0q3 0 3 -4l-1 -1l-4 -3q-1 -1 -7.5 -6.5t-17 -11.5t-23.5 -11
t-27 -5q-13 0 -21.5 8t-12.5 21q-14 -9 -29.5 -20t-35.5 -11zM20 37q-2 -2 -3.5 -6t0.5 -6q1 -2 11 2q20 7 30.5 14t16.5 15t10 16t10 17q-11 0 -31 -10t-44 -42zM120 183q5 0 15 -5t12 -10q0 -15 -13 -24l-11 -8q-6 10 -9.5 18.5t0.5 19.5q5 9 6 9zM124 166q0 -1 -0.5 -1
t-0.5 -1q-2 -4 -0.5 -6.5t3.5 -6.5l4 3q4 3 4 8q-3 5 -9 5z" />
    <glyph glyph-name="ae" unicode="&#xe6;" horiz-adv-x="239" 
d="M248 35q-14 -9 -31 -18t-35.5 -14.5t-39 -7t-39.5 4.5q-17 6 -23 21l-2 4t-1 4q-14 -9 -29.5 -20t-35.5 -11q-13 0 -19.5 11t-4.5 23q3 22 16 39t30.5 28.5t37 17.5t35.5 6q8 0 18 -3.5t15 -8.5q10 5 20 8.5t20 3.5q11 0 24.5 -5t13.5 -21q0 -17 -12.5 -29.5t-30 -20.5
t-36.5 -12t-32 -4q0 -4 6 -6.5t13.5 -3.5t15 -1.5t11.5 -0.5q17 0 35 3.5t32 7.5q16 5 20 8t5 3q4 0 4 -3v-2zM20 37q-2 -2 -3.5 -6t0.5 -6q1 -2 11 2q20 7 30.5 14t16.5 15t10 16t10 17q-11 0 -31 -10t-44 -42zM125 57q-2 -2 -6.5 -6t-1.5 -3q4 1 14.5 6t17.5 9l10 7
q6 5 12.5 11t8.5 10q-2 0 -8.5 -2.5t-12.5 -5.5l-5 -3l-14 -10t-15 -13z" />
    <glyph glyph-name="ccedilla" unicode="&#xe7;" horiz-adv-x="145" 
d="M24 -46q-4 0 -11 1.5t-14 4t-12.5 7t-5.5 10.5q0 3 2 3l14 -4t15 -2h10q1 0 1 1q-2 2 -6.5 2.5t-6.5 1.5t-3 3q-3 3 -3 12q0 1 2.5 5t5.5 9q-9 5 -15 12.5t-6 18.5q0 19 11.5 34.5t28.5 26t36.5 16.5t36.5 7q7 0 13 -3q5 -2 9 -7t4 -16q0 -10 -8 -17t-18 -11.5
t-18.5 -6.5t-10.5 -2l-1 1q-2 0 -2 4v1l5 5q2 2 8 8.5t8 10.5h-3q-3 0 -11 -2t-18 -7t-20.5 -13.5t-18.5 -21.5q-2 -5 -1.5 -6t0.5 -2v-1q1 -1 2 -3.5t5.5 -5t14.5 -4.5t29 -2q36 0 60 8.5t25 10.5q4 0 5 -1q0 -2 -1 -5q-13 -10 -29 -17q-14 -7 -33.5 -12t-44.5 -7h-5
q-3 0 -6 0.5t-6 0.5q-1 0 -1 -2l-1 -2q2 -1 7.5 -6.5t5.5 -14.5q0 -8 -6.5 -14.5t-17.5 -6.5z" />
    <glyph glyph-name="egrave" unicode="&#xe8;" horiz-adv-x="148" 
d="M157 35q-14 -9 -31 -18t-35.5 -14.5t-39 -7t-39.5 4.5q-11 5 -17 12t-8 20v1q0 15 10 31t25.5 29t33.5 21.5t33 8.5q11 0 24.5 -5t13.5 -21q0 -17 -12.5 -29.5t-30 -20.5t-36.5 -12t-32 -4q0 -4 6 -6.5t13.5 -3.5t15 -1.5t11.5 -0.5q17 0 35 3.5t32 7.5q16 5 20 8t5 3
q4 0 4 -3v-2zM34 57q-2 -2 -6.5 -6t-1.5 -3q4 1 14.5 6t17.5 9l10 7q6 5 12.5 11t8.5 10q-2 0 -8.5 -2.5t-12.5 -5.5l-5 -3l-14 -10t-15 -13zM154 160q-6 -4 -21.5 -6t-31 -0.5t-27.5 6t-12 14.5q0 8 7.5 14.5t9.5 8.5q3 3 9.5 -2t16 -12t21.5 -12.5t25 -3.5q4 -1 4 -4
q0 -2 -1 -3z" />
    <glyph glyph-name="eacute" unicode="&#xe9;" horiz-adv-x="148" 
d="M157 35q-14 -9 -31 -18t-35.5 -14.5t-39 -7t-39.5 4.5q-11 5 -17 12t-8 20v1q0 15 10 31t25.5 29t33.5 21.5t33 8.5q11 0 24.5 -5t13.5 -21q0 -17 -12.5 -29.5t-30 -20.5t-36.5 -12t-32 -4q0 -4 6 -6.5t13.5 -3.5t15 -1.5t11.5 -0.5q17 0 35 3.5t32 7.5q16 5 20 8t5 3
q4 0 4 -3v-2zM34 57q-2 -2 -6.5 -6t-1.5 -3q4 1 14.5 6t17.5 9l10 7q6 5 12.5 11t8.5 10q-2 0 -8.5 -2.5t-12.5 -5.5l-5 -3l-14 -10t-15 -13zM58 160q-1 1 -1 3q0 3 4 4q13 -2 25 3.5t21.5 12.5t16 12t9.5 2q2 -2 9.5 -8.5t7.5 -14.5q0 -10 -12 -14.5t-27.5 -6t-31 0.5
t-21.5 6z" />
    <glyph glyph-name="ecircumflex" unicode="&#xea;" horiz-adv-x="148" 
d="M157 35q-14 -9 -31 -18t-35.5 -14.5t-39 -7t-39.5 4.5q-11 5 -17 12t-8 20v1q0 15 10 31t25.5 29t33.5 21.5t33 8.5q11 0 24.5 -5t13.5 -21q0 -17 -12.5 -29.5t-30 -20.5t-36.5 -12t-32 -4q0 -4 6 -6.5t13.5 -3.5t15 -1.5t11.5 -0.5q17 0 35 3.5t32 7.5q16 5 20 8t5 3
q4 0 4 -3v-2zM34 57q-2 -2 -6.5 -6t-1.5 -3q4 1 14.5 6t17.5 9l10 7q6 5 12.5 11t8.5 10q-2 0 -8.5 -2.5t-12.5 -5.5l-5 -3l-14 -10t-15 -13zM27 160l-2 4q0 2 1.5 2t2.5 1q29 7 40.5 12.5t19.5 11.5q13 8 15 8q3 0 12 -5.5t28 -20.5q22 -17 29.5 -20t7.5 -7t-5 -4
q-14 0 -36 5t-37 14q-6 -3 -16 -5t-21.5 -2.5t-22 1t-16.5 5.5z" />
    <glyph glyph-name="edieresis" unicode="&#xeb;" horiz-adv-x="148" 
d="M157 35q-14 -9 -31 -18t-35.5 -14.5t-39 -7t-39.5 4.5q-11 5 -17 12t-8 20v1q0 15 10 31t25.5 29t33.5 21.5t33 8.5q11 0 24.5 -5t13.5 -21q0 -17 -12.5 -29.5t-30 -20.5t-36.5 -12t-32 -4q0 -4 6 -6.5t13.5 -3.5t15 -1.5t11.5 -0.5q17 0 35 3.5t32 7.5q16 5 20 8t5 3
q4 0 4 -3v-2zM34 57q-2 -2 -6.5 -6t-1.5 -3q4 1 14.5 6t17.5 9l10 7q6 5 12.5 11t8.5 10q-2 0 -8.5 -2.5t-12.5 -5.5l-5 -3l-14 -10t-15 -13zM68 194q5 0 15 -5t12 -10q0 -15 -13 -24l-11 -8q-6 10 -9.5 18.5t0.5 19.5q5 9 6 9zM128 194q5 0 15 -5t12 -10q0 -15 -13 -24
l-11 -8q-6 10 -9.5 18.5t0.5 19.5q5 9 6 9z" />
    <glyph glyph-name="igrave" unicode="&#xec;" horiz-adv-x="142" 
d="M53 5q-16 10 -16 32v5q-3 -2 -10 -4t-14.5 -4t-15 -3.5t-11.5 -1.5q-1 0 -3 1t-2 3q0 1 0.5 1t0.5 1h1q0 2 2 2t4 2q10 5 24.5 17.5t29 26t25 24.5t12.5 13l2 1q-2 0 2 -1t9.5 -3.5t10 -5.5t2.5 -7q-5 -9 -11.5 -17.5t-12.5 -17.5t-10.5 -18.5t-3.5 -21.5q0 -2 5 -3.5
t11 -1.5q12 1 27.5 4t25.5 5l16 4q1 0 2 0.5t3 0.5h1l2.5 -5t-4.5 -4l-41 -20.5t-42 -8.5q-11 0 -21 5zM169 160q-6 -4 -21.5 -6t-31 -0.5t-27.5 6t-12 14.5q0 8 7.5 14.5t9.5 8.5q3 3 9.5 -2t16 -12t21.5 -12.5t25 -3.5q4 -1 4 -4q0 -2 -1 -3z" />
    <glyph glyph-name="iacute" unicode="&#xed;" horiz-adv-x="142" 
d="M53 5q-16 10 -16 32v5q-3 -2 -10 -4t-14.5 -4t-15 -3.5t-11.5 -1.5q-1 0 -3 1t-2 3q0 1 0.5 1t0.5 1h1q0 2 2 2t4 2q10 5 24.5 17.5t29 26t25 24.5t12.5 13l2 1q-2 0 2 -1t9.5 -3.5t10 -5.5t2.5 -7q-5 -9 -11.5 -17.5t-12.5 -17.5t-10.5 -18.5t-3.5 -21.5q0 -2 5 -3.5
t11 -1.5q12 1 27.5 4t25.5 5l16 4q1 0 2 0.5t3 0.5h1l2.5 -5t-4.5 -4l-41 -20.5t-42 -8.5q-11 0 -21 5zM73 160q-1 1 -1 3q0 3 4 4q13 -2 25 3.5t21.5 12.5t16 12t9.5 2q2 -2 9.5 -8.5t7.5 -14.5q0 -10 -12 -14.5t-27.5 -6t-31 0.5t-21.5 6z" />
    <glyph glyph-name="icircumflex" unicode="&#xee;" horiz-adv-x="142" 
d="M53 5q-16 10 -16 32v5q-3 -2 -10 -4t-14.5 -4t-15 -3.5t-11.5 -1.5q-1 0 -3 1t-2 3q0 1 0.5 1t0.5 1h1q0 2 2 2t4 2q10 5 24.5 17.5t29 26t25 24.5t12.5 13l2 1q-2 0 2 -1t9.5 -3.5t10 -5.5t2.5 -7q-5 -9 -11.5 -17.5t-12.5 -17.5t-10.5 -18.5t-3.5 -21.5q0 -2 5 -3.5
t11 -1.5q12 1 27.5 4t25.5 5l16 4q1 0 2 0.5t3 0.5h1l2.5 -5t-4.5 -4l-41 -20.5t-42 -8.5q-11 0 -21 5zM45 160l-2 4q0 2 1.5 2t2.5 1q29 7 40.5 12.5t19.5 11.5q13 8 15 8q3 0 12 -5.5t28 -20.5q22 -17 29.5 -20t7.5 -7t-5 -4q-14 0 -36 5t-37 14q-6 -3 -16 -5t-21.5 -2.5
t-22 1t-16.5 5.5z" />
    <glyph glyph-name="idieresis" unicode="&#xef;" horiz-adv-x="142" 
d="M53 5q-16 10 -16 32v5q-3 -2 -10 -4t-14.5 -4t-15 -3.5t-11.5 -1.5q-1 0 -3 1t-2 3q0 1 0.5 1t0.5 1h1q0 2 2 2t4 2q10 5 24.5 17.5t29 26t25 24.5t12.5 13l2 1q-2 0 2 -1t9.5 -3.5t10 -5.5t2.5 -7q-5 -9 -11.5 -17.5t-12.5 -17.5t-10.5 -18.5t-3.5 -21.5q0 -2 5 -3.5
t11 -1.5q12 1 27.5 4t25.5 5l16 4q1 0 2 0.5t3 0.5h1l2.5 -5t-4.5 -4l-41 -20.5t-42 -8.5q-11 0 -21 5zM77 194q5 0 15 -5t12 -10q0 -15 -13 -24l-11 -8q-6 10 -9.5 18.5t0.5 19.5q5 9 6 9zM137 194q5 0 15 -5t12 -10q0 -15 -13 -24l-11 -8q-6 10 -9.5 18.5t0.5 19.5
q5 9 6 9z" />
    <glyph glyph-name="ntilde" unicode="&#xf1;" horiz-adv-x="186" 
d="M199 40q5 0 3 -3.5t-4 -5.5t-9.5 -7.5t-19 -11.5t-25 -10.5t-28.5 -4.5q-2 0 -7.5 0.5t-11.5 3.5t-10.5 9t-4.5 17q0 8 4.5 17.5t7.5 15.5q-5 -4 -19.5 -14t-30.5 -20.5t-30.5 -19t-20.5 -8.5q-18 0 -18 14q2 8 3 9q5 13 16 25.5t21 23.5q11 13 16 17.5t7 8.5q0 2 -3 2
q-14 0 -27.5 -5.5t-23.5 -9.5q-3 0 -3 3q0 8 33 21q5 2 12.5 4t12.5 1q4 0 9.5 -4.5t5.5 -10.5q0 -4 -7 -15.5t-18 -27.5q37 25 65 45.5t33 23.5q6 2 18.5 -2.5t12.5 -9.5q0 -3 -1 -5q-3 -8 -14 -24.5t-30 -51.5q-1 -2 -2 -5q0 -4 16 -4q34 0 52.5 9.5t17.5 9.5h2zM53 151
q-8 10 -12 14.5t-5 16.5q-3 17 11 20q9 -2 10 -3q13 -4 27 -14t25 -19q14 -10 18.5 -14.5t9.5 -6.5q1 1 1 4q-1 15 0.5 15.5t6.5 5.5q2 2 3.5 -1t2.5 -7.5t1.5 -9t0.5 -7.5t-4 -9t-10 -7q-2 0 -10 4l-19 9.5t-22.5 12t-19.5 11.5q-4 0 -4.5 -3.5t-0.5 -7t-1.5 -5.5t-8.5 1z
" />
    <glyph glyph-name="ograve" unicode="&#xf2;" horiz-adv-x="190" 
d="M22 26q0 8 3 16q-11 -7 -22.5 -11t-20.5 -7q-11 -4 -20 -6q-1 0 -3 2q0 2 4 4q20 8 41 20.5t37 28.5q26 26 42.5 36.5t22.5 10.5h1h1l2 -2q2 2 5.5 2h5.5q19 0 27 -14t8 -28q0 -22 -11 -42q3 -2 9.5 -2.5t13.5 -0.5q16 0 24.5 3t9.5 3q4 -2 4 -4l-1 -1l-4 -3
q-5 -4 -21.5 -9.5t-39.5 -5.5h-1q-2 0 -4 0.5t-4 0.5q-14 -13 -31 -19t-33 -6q-13 0 -29 7.5t-16 26.5zM116 88q-4 -8 -4 -20q0 -4 2 -10.5t10 -13.5q8 8 12 19.5t4 21.5q0 8 -5.5 16t-15.5 8q0 -2 2.5 -5t2.5 -7t-6 -6h-1q0 -1 -0.5 -1.5t-0.5 -1.5zM55 29q0 -3 3 -5.5
t14 -2.5q8 0 16 1t15 6q-12 8 -16 20t-4 20l-4 -3.5t-9.5 -9t-10 -12.5t-4.5 -14zM178 160q-6 -4 -21.5 -6t-31 -0.5t-27.5 6t-12 14.5q0 8 7.5 14.5t9.5 8.5q3 3 9.5 -2t16 -12t21.5 -12.5t25 -3.5q4 -1 4 -4q0 -2 -1 -3z" />
    <glyph glyph-name="oacute" unicode="&#xf3;" horiz-adv-x="190" 
d="M22 26q0 8 3 16q-11 -7 -22.5 -11t-20.5 -7q-11 -4 -20 -6q-1 0 -3 2q0 2 4 4q20 8 41 20.5t37 28.5q26 26 42.5 36.5t22.5 10.5h1h1l2 -2q2 2 5.5 2h5.5q19 0 27 -14t8 -28q0 -22 -11 -42q3 -2 9.5 -2.5t13.5 -0.5q16 0 24.5 3t9.5 3q4 -2 4 -4l-1 -1l-4 -3
q-5 -4 -21.5 -9.5t-39.5 -5.5h-1q-2 0 -4 0.5t-4 0.5q-14 -13 -31 -19t-33 -6q-13 0 -29 7.5t-16 26.5zM116 88q-4 -8 -4 -20q0 -4 2 -10.5t10 -13.5q8 8 12 19.5t4 21.5q0 8 -5.5 16t-15.5 8q0 -2 2.5 -5t2.5 -7t-6 -6h-1q0 -1 -0.5 -1.5t-0.5 -1.5zM55 29q0 -3 3 -5.5
t14 -2.5q8 0 16 1t15 6q-12 8 -16 20t-4 20l-4 -3.5t-9.5 -9t-10 -12.5t-4.5 -14zM83 160q-1 1 -1 3q0 3 4 4q13 -2 25 3.5t21.5 12.5t16 12t9.5 2q2 -2 9.5 -8.5t7.5 -14.5q0 -10 -12 -14.5t-27.5 -6t-31 0.5t-21.5 6z" />
    <glyph glyph-name="ocircumflex" unicode="&#xf4;" horiz-adv-x="190" 
d="M22 26q0 8 3 16q-11 -7 -22.5 -11t-20.5 -7q-11 -4 -20 -6q-1 0 -3 2q0 2 4 4q20 8 41 20.5t37 28.5q26 26 42.5 36.5t22.5 10.5h1h1l2 -2q2 2 5.5 2h5.5q19 0 27 -14t8 -28q0 -22 -11 -42q3 -2 9.5 -2.5t13.5 -0.5q16 0 24.5 3t9.5 3q4 -2 4 -4l-1 -1l-4 -3
q-5 -4 -21.5 -9.5t-39.5 -5.5h-1q-2 0 -4 0.5t-4 0.5q-14 -13 -31 -19t-33 -6q-13 0 -29 7.5t-16 26.5zM116 88q-4 -8 -4 -20q0 -4 2 -10.5t10 -13.5q8 8 12 19.5t4 21.5q0 8 -5.5 16t-15.5 8q0 -2 2.5 -5t2.5 -7t-6 -6h-1q0 -1 -0.5 -1.5t-0.5 -1.5zM55 29q0 -3 3 -5.5
t14 -2.5q8 0 16 1t15 6q-12 8 -16 20t-4 20l-4 -3.5t-9.5 -9t-10 -12.5t-4.5 -14zM55 160l-2 4q0 2 1.5 2t2.5 1q29 7 40.5 12.5t19.5 11.5q13 8 15 8q3 0 12 -5.5t28 -20.5q22 -17 29.5 -20t7.5 -7t-5 -4q-14 0 -36 5t-37 14q-6 -3 -16 -5t-21.5 -2.5t-22 1t-16.5 5.5z" />
    <glyph glyph-name="otilde" unicode="&#xf5;" horiz-adv-x="190" 
d="M22 26q0 8 3 16q-11 -7 -22.5 -11t-20.5 -7q-11 -4 -20 -6q-1 0 -3 2q0 2 4 4q20 8 41 20.5t37 28.5q26 26 42.5 36.5t22.5 10.5h1h1l2 -2q2 2 5.5 2h5.5q19 0 27 -14t8 -28q0 -22 -11 -42q3 -2 9.5 -2.5t13.5 -0.5q16 0 24.5 3t9.5 3q4 -2 4 -4l-1 -1l-4 -3
q-5 -4 -21.5 -9.5t-39.5 -5.5h-1q-2 0 -4 0.5t-4 0.5q-14 -13 -31 -19t-33 -6q-13 0 -29 7.5t-16 26.5zM116 88q-4 -8 -4 -20q0 -4 2 -10.5t10 -13.5q8 8 12 19.5t4 21.5q0 8 -5.5 16t-15.5 8q0 -2 2.5 -5t2.5 -7t-6 -6h-1q0 -1 -0.5 -1.5t-0.5 -1.5zM55 29q0 -3 3 -5.5
t14 -2.5q8 0 16 1t15 6q-12 8 -16 20t-4 20l-4 -3.5t-9.5 -9t-10 -12.5t-4.5 -14zM93 151q-8 10 -12 14.5t-5 16.5q-3 17 11 20q9 -2 10 -3q13 -4 27 -14t25 -19q14 -10 18.5 -14.5t9.5 -6.5q1 1 1 4q-1 15 0.5 15.5t6.5 5.5q2 2 3.5 -1t2.5 -7.5t1.5 -9t0.5 -7.5t-4 -9
t-10 -7q-2 0 -10 4l-19 9.5t-22.5 12t-19.5 11.5q-4 0 -4.5 -3.5t-0.5 -7t-1.5 -5.5t-8.5 1z" />
    <glyph glyph-name="odieresis" unicode="&#xf6;" horiz-adv-x="190" 
d="M22 26q0 8 3 16q-11 -7 -22.5 -11t-20.5 -7q-11 -4 -20 -6q-1 0 -3 2q0 2 4 4q20 8 41 20.5t37 28.5q26 26 42.5 36.5t22.5 10.5h1h1l2 -2q2 2 5.5 2h5.5q19 0 27 -14t8 -28q0 -22 -11 -42q3 -2 9.5 -2.5t13.5 -0.5q16 0 24.5 3t9.5 3q4 -2 4 -4l-1 -1l-4 -3
q-5 -4 -21.5 -9.5t-39.5 -5.5h-1q-2 0 -4 0.5t-4 0.5q-14 -13 -31 -19t-33 -6q-13 0 -29 7.5t-16 26.5zM116 88q-4 -8 -4 -20q0 -4 2 -10.5t10 -13.5q8 8 12 19.5t4 21.5q0 8 -5.5 16t-15.5 8q0 -2 2.5 -5t2.5 -7t-6 -6h-1q0 -1 -0.5 -1.5t-0.5 -1.5zM55 29q0 -3 3 -5.5
t14 -2.5q8 0 16 1t15 6q-12 8 -16 20t-4 20l-4 -3.5t-9.5 -9t-10 -12.5t-4.5 -14zM97 194q5 0 15 -5t12 -10q0 -15 -13 -24l-11 -8q-6 10 -9.5 18.5t0.5 19.5q5 9 6 9zM157 194q5 0 15 -5t12 -10q0 -15 -13 -24l-11 -8q-6 10 -9.5 18.5t0.5 19.5q5 9 6 9z" />
    <glyph glyph-name="oslash" unicode="&#xf8;" horiz-adv-x="190" 
d="M22 26q0 8 3 16q-11 -7 -22.5 -11t-20.5 -7q-11 -4 -20 -6q-1 0 -3 2q0 2 4 4q20 8 41 20.5t37 28.5q26 26 42.5 36.5t22.5 10.5h1h1l2 -2q2 2 5.5 2h5.5q7 0 13 -3l11 18q4 5 5 6t6 1q7 -1 6.5 -6.5t-2.5 -9.5l-12 -20q8 -13 8 -28q0 -22 -11 -42q3 -2 9.5 -2.5
t13.5 -0.5q16 0 24.5 3t9.5 3q4 -2 4 -4l-1 -1l-4 -3q-5 -4 -21.5 -9.5t-39.5 -5.5h-1q-2 0 -4 0.5t-4 0.5q-14 -13 -31 -19t-33 -6q-6 0 -9 1l-32 -37q-1 0 -2 -1t-2 -1q-3 0 -1 3l28 38q-11 4 -19 11t-8 20zM55 29q0 -3 2 -5t10 -3l20 27q-4 11 -4 20l-4 -3.5t-9.5 -9
t-10 -12.5t-4.5 -14zM139 93q-5 -7 -11.5 -15t-14.5 -19q2 -3 4 -7t7 -8q8 8 12 19.5t4 21.5q0 5 -1 8zM82 21q13 2 21 7l-9 7zM123 101q2 4 4 6q-6 2 -8 2q0 -2 4 -8z" />
    <glyph glyph-name="ugrave" unicode="&#xf9;" horiz-adv-x="173" 
d="M187 41q4 0 4 -3q0 4 -0.5 0.5t-7 -10.5t-21 -15.5t-41.5 -14.5q-14 -3 -22 2t-12 12t-4.5 14t2.5 10q-14 -14 -31 -27.5t-42 -13.5q-10 0 -18.5 9t-8.5 21q0 16 9.5 33.5t21.5 31.5q13 17 31 33l1 1q7 0 16 -3t11 -11q-4 -7 -9 -14t-12 -15q-2 -2 -7.5 -9t-12.5 -16
t-12 -18t-5 -14h1h6q7 1 18 7.5t23 16.5t24 21t22 21q9 10 13.5 16.5t12.5 13.5q5 4 14.5 -1.5t9.5 -9.5q0 -5 -3 -10t-6 -11q-20 -32 -30.5 -45.5t-10.5 -18.5q3 -3 9 -3q3 0 13.5 2t22.5 5t21 6.5t9 6.5h1v0zM167 160q-6 -4 -21.5 -6t-31 -0.5t-27.5 6t-12 14.5
q0 8 7.5 14.5t9.5 8.5q3 3 9.5 -2t16 -12t21.5 -12.5t25 -3.5q4 -1 4 -4q0 -2 -1 -3z" />
    <glyph glyph-name="uacute" unicode="&#xfa;" horiz-adv-x="173" 
d="M187 41q4 0 4 -3q0 4 -0.5 0.5t-7 -10.5t-21 -15.5t-41.5 -14.5q-14 -3 -22 2t-12 12t-4.5 14t2.5 10q-14 -14 -31 -27.5t-42 -13.5q-10 0 -18.5 9t-8.5 21q0 16 9.5 33.5t21.5 31.5q13 17 31 33l1 1q7 0 16 -3t11 -11q-4 -7 -9 -14t-12 -15q-2 -2 -7.5 -9t-12.5 -16
t-12 -18t-5 -14h1h6q7 1 18 7.5t23 16.5t24 21t22 21q9 10 13.5 16.5t12.5 13.5q5 4 14.5 -1.5t9.5 -9.5q0 -5 -3 -10t-6 -11q-20 -32 -30.5 -45.5t-10.5 -18.5q3 -3 9 -3q3 0 13.5 2t22.5 5t21 6.5t9 6.5h1v0zM76 160q-1 1 -1 3q0 3 4 4q13 -2 25 3.5t21.5 12.5t16 12
t9.5 2q2 -2 9.5 -8.5t7.5 -14.5q0 -10 -12 -14.5t-27.5 -6t-31 0.5t-21.5 6z" />
    <glyph glyph-name="ucircumflex" unicode="&#xfb;" horiz-adv-x="173" 
d="M187 41q4 0 4 -3q0 4 -0.5 0.5t-7 -10.5t-21 -15.5t-41.5 -14.5q-14 -3 -22 2t-12 12t-4.5 14t2.5 10q-14 -14 -31 -27.5t-42 -13.5q-10 0 -18.5 9t-8.5 21q0 16 9.5 33.5t21.5 31.5q13 17 31 33l1 1q7 0 16 -3t11 -11q-4 -7 -9 -14t-12 -15q-2 -2 -7.5 -9t-12.5 -16
t-12 -18t-5 -14h1h6q7 1 18 7.5t23 16.5t24 21t22 21q9 10 13.5 16.5t12.5 13.5q5 4 14.5 -1.5t9.5 -9.5q0 -5 -3 -10t-6 -11q-20 -32 -30.5 -45.5t-10.5 -18.5q3 -3 9 -3q3 0 13.5 2t22.5 5t21 6.5t9 6.5h1v0zM44 160l-2 4q0 2 1.5 2t2.5 1q29 7 40.5 12.5t19.5 11.5
q13 8 15 8q3 0 12 -5.5t28 -20.5q22 -17 29.5 -20t7.5 -7t-5 -4q-14 0 -36 5t-37 14q-6 -3 -16 -5t-21.5 -2.5t-22 1t-16.5 5.5z" />
    <glyph glyph-name="udieresis" unicode="&#xfc;" horiz-adv-x="173" 
d="M187 41q4 0 4 -3q0 4 -0.5 0.5t-7 -10.5t-21 -15.5t-41.5 -14.5q-14 -3 -22 2t-12 12t-4.5 14t2.5 10q-14 -14 -31 -27.5t-42 -13.5q-10 0 -18.5 9t-8.5 21q0 16 9.5 33.5t21.5 31.5q13 17 31 33l1 1q7 0 16 -3t11 -11q-4 -7 -9 -14t-12 -15q-2 -2 -7.5 -9t-12.5 -16
t-12 -18t-5 -14h1h6q7 1 18 7.5t23 16.5t24 21t22 21q9 10 13.5 16.5t12.5 13.5q5 4 14.5 -1.5t9.5 -9.5q0 -5 -3 -10t-6 -11q-20 -32 -30.5 -45.5t-10.5 -18.5q3 -3 9 -3q3 0 13.5 2t22.5 5t21 6.5t9 6.5h1v0zM83 194q5 0 15 -5t12 -10q0 -15 -13 -24l-11 -8
q-6 10 -9.5 18.5t0.5 19.5q5 9 6 9zM143 194q5 0 15 -5t12 -10q0 -15 -13 -24l-11 -8q-6 10 -9.5 18.5t0.5 19.5q5 9 6 9z" />
    <glyph glyph-name="yacute" unicode="&#xfd;" horiz-adv-x="154" 
d="M155 35q4 0 4 -3q0 -2 -1.5 -2.5t-2.5 -1.5h-1q-4 -1 -8.5 -2t-11 -3.5t-16.5 -6.5t-25 -11q-12 -5 -26 -20.5t-30 -36.5t-34 -46.5t-37 -50.5q-14 -18 -23.5 -29.5t-15.5 -19t-9.5 -11.5t-7.5 -8q-5 -5 -7.5 -6t-4.5 -2h-2q-14 0 -19.5 5t-5.5 14q0 21 14.5 46.5
t36.5 51t49 48.5t51 40l17 24q-8 -6 -25 -6t-23 9.5t-6 17.5q0 13 5 26.5t13 26.5t17.5 25t18.5 21q1 1 6 0.5t9.5 -2.5t8.5 -5t4 -6q0 -2 -2 -4l-1 -1q-11 -14 -23.5 -32.5t-22.5 -45.5q15 0 30.5 10t28.5 21q18 18 26 29.5t12.5 17.5t8.5 8.5t14 2.5q5 0 10 -2.5t5 -7.5
q0 -3 -1 -5t-5.5 -8.5t-15 -20t-28.5 -38.5l-14 -18h3q27 11 43 14.5t17 3.5h3zM-31 -92q-17 -18 -30.5 -38t-24.5 -36q13 17 25 33t24 33zM59 160q-1 1 -1 3q0 3 4 4q13 -2 25 3.5t21.5 12.5t16 12t9.5 2q2 -2 9.5 -8.5t7.5 -14.5q0 -10 -12 -14.5t-27.5 -6t-31 0.5
t-21.5 6z" />
    <glyph glyph-name="ydieresis" unicode="&#xff;" horiz-adv-x="154" 
d="M155 35q4 0 4 -3q0 -2 -1.5 -2.5t-2.5 -1.5h-1q-4 -1 -8.5 -2t-11 -3.5t-16.5 -6.5t-25 -11q-12 -5 -26 -20.5t-30 -36.5t-34 -46.5t-37 -50.5q-14 -18 -23.5 -29.5t-15.5 -19t-9.5 -11.5t-7.5 -8q-5 -5 -7.5 -6t-4.5 -2h-2q-14 0 -19.5 5t-5.5 14q0 21 14.5 46.5
t36.5 51t49 48.5t51 40l17 24q-8 -6 -25 -6t-23 9.5t-6 17.5q0 13 5 26.5t13 26.5t17.5 25t18.5 21q1 1 6 0.5t9.5 -2.5t8.5 -5t4 -6q0 -2 -2 -4l-1 -1q-11 -14 -23.5 -32.5t-22.5 -45.5q15 0 30.5 10t28.5 21q18 18 26 29.5t12.5 17.5t8.5 8.5t14 2.5q5 0 10 -2.5t5 -7.5
q0 -3 -1 -5t-5.5 -8.5t-15 -20t-28.5 -38.5l-14 -18h3q27 11 43 14.5t17 3.5h3zM-31 -92q-17 -18 -30.5 -38t-24.5 -36q13 17 25 33t24 33zM72 194q5 0 15 -5t12 -10q0 -15 -13 -24l-11 -8q-6 10 -9.5 18.5t0.5 19.5q5 9 6 9zM132 194q5 0 15 -5t12 -10q0 -15 -13 -24
l-11 -8q-6 10 -9.5 18.5t0.5 19.5q5 9 6 9z" />
    <glyph glyph-name="caron" unicode="&#x2c7;" horiz-adv-x="219" 
d="M189 181l2 -4q0 -2 -1.5 -2t-2.5 -1q-29 -7 -40.5 -12.5t-19.5 -11.5q-13 -8 -15 -8q-3 0 -12 5.5t-28 20.5q-22 17 -29.5 20t-7.5 7t5 4q14 0 36 -5t37 -14q6 3 16 5t21.5 2.5t22 -1t16.5 -5.5z" />
    <glyph glyph-name="Zcaron" unicode="&#x17d;" horiz-adv-x="413" 
d="M435 394q0 -4 -0.5 -8t-3.5 -7q-31 -38 -72.5 -72.5t-79.5 -66.5q-75 -64 -124.5 -108t-77.5 -74q-5 -6 -11.5 -14t-12.5 -15.5t-10.5 -12.5l-4.5 -5q11 2 30 4t36 2q42 0 101.5 -12t124.5 -32q23 -7 41 -12.5t29 -5.5q5 0 10 1.5t5 9.5q0 10 -7 21q-5 7 -5 8t-1 3
q0 5 2 5q3 0 7 -4.5t7.5 -10.5t6 -12t2.5 -10q0 -15 -11 -20t-25 -5q-33 3 -70 10t-74.5 14.5t-73 13t-65.5 5.5t-49.5 -3.5t-24.5 -3.5q-7 -1 -9 2l-4 8q-4 8 -4 13t9 8h1q6 15 27 40.5t53.5 59t74 73t87.5 81.5l66 61q14 14 28.5 27.5t27.5 27.5q-59 -10 -115.5 -35.5
t-102 -56t-75.5 -60t-36 -45.5v-1q-4 -3 -6 -7.5t-4 -8.5h-1q-4 -10 -8 -10q-5 0 -9 6.5t-4 18.5q0 19 18 43.5t49.5 50.5t74.5 51.5t93 48.5q24 11 64 23.5t86 12.5q10 0 15 -5t5 -10zM444 463l2 -4q0 -2 -1.5 -2t-2.5 -1q-29 -7 -40.5 -12.5t-19.5 -11.5q-13 -8 -15 -8
q-3 0 -12 5.5t-28 20.5q-22 17 -29.5 20t-7.5 7t5 4q14 0 36 -5t37 -14q6 3 16 5t21.5 2.5t22 -1t16.5 -5.5z" />
    <glyph glyph-name="zcaron" unicode="&#x17e;" horiz-adv-x="154" 
d="M166 39q4 0 4 -3q0 -2 -1.5 -2.5t-2.5 -1.5h-1q-2 0 -7 -2t-6 -2q-17 -8 -29.5 -13.5t-29.5 -21.5t-43.5 -48t-72.5 -93q-7 -9 -17.5 -22t-21 -25.5t-19.5 -21.5t-13 -10q-8 0 -17.5 4.5t-9.5 15.5q0 23 14.5 48t36.5 50t49 48t53 43q4 5 10 13.5t13 16.5t13 14.5t9 7.5
q-7 3 -10.5 12t-3.5 17q0 4 2 8q-15 -12 -29.5 -22t-35.5 -16l-9 -3h-4h-1q-2 0 -2 1q-1 1 -1 2q0 2 2 3t8 5.5t18 15t32 33.5q11 14 23 30t19 33h2h-1q7 -2 13 -4q5 -2 9.5 -4.5t4.5 -5.5t-3 -9.5t-4 -10.5h1q5 5 7 5q5 0 14 -8t9 -11q0 -7 -10.5 -13.5t-15.5 -11.5
q1 0 2.5 1t5.5 1q7 0 10.5 -4.5t3.5 -7.5q0 -14 -9 -26t-23 -16q0 -6 -4 -11q20 5 39 13t27 9h1h1h1zM-25 -97q-6 -3 -13 -11.5t-14 -18.5t-13 -19.5t-9 -15.5q5 6 9 12t9 11zM95 62q0 -1 1 -2q2 2 3.5 6.5t3.5 6.5q-2 -2 -4.5 -6.5t-3.5 -4.5zM198 211l2 -4q0 -2 -1.5 -2
t-2.5 -1q-29 -7 -40.5 -12.5t-19.5 -11.5q-13 -8 -15 -8q-3 0 -12 5.5t-28 20.5q-22 17 -29.5 20t-7.5 7t5 4q14 0 36 -5t37 -14q6 3 16 5t21.5 2.5t22 -1t16.5 -5.5z" />
    <glyph glyph-name="Scaron" unicode="&#x160;" horiz-adv-x="430" 
d="M57 -28q35 6 70.5 14t70 15t67 11.5t61.5 4.5q24 0 41.5 -2.5t25.5 -4.5q-10 10 -24.5 40.5t-29 67t-27 71t-18.5 51.5q-12 35 -23.5 67.5t-11.5 69.5q0 11 5 20t17 12q33 0 64 -15.5t55.5 -41.5t39 -60.5t14.5 -71.5q0 -20 -4 -33.5t-6 -18.5v-1q-2 -1 -7 -4t-11 -3
q-5 0 -10.5 2t-5.5 7q0 1 0.5 1.5t0.5 1.5q-1 -1 -1 -2q3 4 6 11q2 6 4 14.5t2 21.5q0 23 -7.5 48.5t-22 48t-35.5 39.5t-48 24q-13 2 -15.5 2h-4.5q0 -20 6 -50.5t16.5 -66.5t23 -74t25 -73t24.5 -64t20 -45q1 -2 2 -7t0.5 -10t-2.5 -8.5t-7 -3.5q-18 0 -36.5 3.5
t-41.5 3.5q-38 0 -73 -4.5t-69 -10.5t-67 -10.5t-66 -4.5q-15 0 -23.5 1t-8.5 10q0 5 5.5 12t8.5 10q5 5 7 5q3 0 3 -3q0 -5 -5 -10t-7 -11q13 0 33 4zM460 453l2 -4q0 -2 -1.5 -2t-2.5 -1q-29 -7 -40.5 -12.5t-19.5 -11.5q-13 -8 -15 -8q-3 0 -12 5.5t-28 20.5
q-22 17 -29.5 20t-7.5 7t5 4q14 0 36 -5t37 -14q6 3 16 5t21.5 2.5t22 -1t16.5 -5.5z" />
    <glyph glyph-name="scaron" unicode="&#x161;" horiz-adv-x="157" 
d="M171 39q3 0 3 -2q0 -1 -2 -3q0 -1 -5.5 -6t-14 -11t-19.5 -10.5t-24 -4.5q-14 0 -19 5q-12 -8 -23 -10.5t-22 -2.5q-23 0 -32.5 8t-11.5 16q-6 0 -14 -2.5t-16 -4.5t-16 -2t-12 6q0 1 0.5 1.5t5.5 2.5q24 8 45.5 21t39.5 27t32 27.5t22 21.5q2 5 4.5 10.5t8.5 5.5
q5 0 14 -4t9 -7q-2 -8 -0.5 -13.5t4.5 -19.5q5 -20 0 -35t-19 -31h1h2q13 0 21 1.5t14 4t11 5.5t13 6zM98 76q-14 -12 -34 -27.5t-52 -26.5q7 -8 22 -8q8 0 19 4.5t21 11.5t17 16.5t7 18.5v11zM193 184l2 -4q0 -2 -1.5 -2t-2.5 -1q-29 -7 -40.5 -12.5t-19.5 -11.5
q-13 -8 -15 -8q-3 0 -12 5.5t-28 20.5q-22 17 -29.5 20t-7.5 7t5 4q14 0 36 -5t37 -14q6 3 16 5t21.5 2.5t22 -1t16.5 -5.5z" />
    <glyph glyph-name="Lslash" unicode="&#x141;" horiz-adv-x="265" 
d="M352 141q2 -10 -3 -16q-3 -4 -6 -6q1 1 -9 0.5t-29.5 -1.5t-46.5 -1.5t-58 0.5q-26 -37 -50 -69t-44 -53l-1 -2q59 -1 112.5 -8t85.5 -12l69 -10q2 0 8 -1.5t6 -3.5t-2 -2.5t-4 -0.5l-21 2q1 0 -25 2.5t-66 5t-88 5t-93 2.5h-2q-9 -8 -19 -16.5t-24 -8.5q-9 0 -24 8
t-15 20q0 9 8 13t18.5 5.5t21.5 1t17 -0.5q20 20 44.5 52.5t51.5 71.5q-35 2 -70.5 5t-69.5 11q-3 0 -4 3q0 2 2 4q32 0 74.5 0.5t84.5 1.5q25 37 49 74.5t44 71t36 60t24 40.5l4 5q-2 2 8.5 6.5t17.5 4.5q2 0 5.5 -1t3.5 -6t-8 -19v-1q-6 -13 -20.5 -38t-34.5 -56.5
t-43.5 -67t-47.5 -71.5q48 2 83 3t40 2h6.5t3.5 -9z" />
    <glyph glyph-name="lslash" unicode="&#x142;" horiz-adv-x="140" 
d="M277 164q2 -10 -3 -16q-3 -4 -6 -6q3 2 -32 -0.5t-89 -2.5q-25 -23 -50.5 -43t-49.5 -36q-2 -3 -2.5 -7t-1.5 -8v-6.5t3 -6.5t10 -5t20 -1q45 3 62 10.5t18 7.5q4 0 4 -5l-5 -4q-2 -2 -10.5 -6.5t-21 -10t-27.5 -10.5t-31 -8q-10 0 -22 1.5t-25 15.5q-7 10 -7 22
q-10 -5 -24 -13t-26 -9q-3 0 -3 3q0 1 2 2t8 3.5t16 8.5t26 17q0 5 1.5 10.5t3.5 10.5q4 10 15.5 28t28.5 42q-28 2 -55.5 5.5t-54.5 9.5q-3 0 -4 3q0 2 2 4q27 0 60.5 0.5t68.5 1.5q35 48 80.5 102t89.5 98q2 2 6 3t12 1q9 0 17 -7t8 -21q0 -16 -9 -36t-24 -42.5
t-35.5 -46.5t-43.5 -48q36 1 60.5 2t29.5 2h6.5t3.5 -9zM115 167h16t16 1q21 21 41 44.5t36 46t26 43t10 36.5q-47 -47 -79 -87t-63 -81zM61 87q9 7 24.5 21t33.5 32h-12t-12 1q-9 -13 -17.5 -26t-16.5 -27v-1z" />
    <glyph glyph-name="A" unicode="A" horiz-adv-x="405" 
d="M14 96q-1 0 -5 5.5t-4 16.5q0 6 2 7.5t7 1.5q27 3 62.5 2t69.5 -1q80 106 144 164.5t112 86t80 32.5t47 5q14 0 26 -2.5t14 -10.5q1 -5 -1 -11q-1 -3 -2 -5l-13 -19.5t-33.5 -49.5t-58.5 -84t-88 -122q4 -1 11 -1.5t33 -3.5q2 0 4.5 -1t2.5 -3q0 -4 -13 -4h-17.5
t-30.5 -1q-32 -46 -53 -75.5t-33 -46.5t-16.5 -23.5l-4.5 -6.5l-2 1q-1 1 -1 5q20 40 40.5 74.5t42.5 71.5q-41 -2 -95 -3t-99 -1q-29 -35 -52 -60.5t-39 -39.5q-9 -9 -13 -9q-3 0 -3 3q0 2 1 2.5t5 5.5q4 4 26 30.5t54 68.5h-106zM275 240q-29 -29 -55.5 -58.5t-48.5 -54.5
q30 -2 74.5 -5t100.5 -8q21 35 46.5 74.5t49.5 76.5t44.5 68t33.5 50h-8q-7 0 -24.5 -3t-43.5 -14q-38 -17 -81 -49t-88 -77z" />
    </font>
</defs>
</svg>
